<svg width="1009" height="142" viewBox="0 0 1009 142" fill="none" xmlns="http://www.w3.org/2000/svg">
<path d="M76.0938 28.9331V16.7525H336.557H351.618V21.1272H365.602V26.1103H387.116V21.1272H406.479V16.7525H448.433V21.1272H478.269V16.7525H932.903V28.9331H76.0938Z" fill="#405273" stroke="black" stroke-width="2"/>
<path d="M932.906 42.3318V16.7525H952.438V42.3318H932.906Z" fill="#6C81A1" stroke="black" stroke-width="3"/>
<path d="M991.499 34.3286H952.436V103.404H991.499V34.3286Z" fill="#734C44" stroke="black" stroke-width="3"/>
<path d="M75.9303 42.704H56.8574V95.4047H75.9303V108.58L931.849 109.892V95.2871H951.606V42.7868H931.849V29.2001L75.9303 29.2001V42.704Z" fill="#FEE1B8" stroke="black" stroke-width="2"/>
<path d="M991.501 16.7525H952.438V34.3286H970.853V24.2952H973.078V34.3286H991.501V16.7525Z" fill="#734C44" stroke="black" stroke-width="3"/>
<path d="M990.315 17.6428H974.32V33.4442H990.315V17.6428Z" fill="#593E47"/>
<path d="M990.313 35.2211H974.318V102.568H990.313V35.2211Z" fill="#593E47"/>
<path d="M991.501 120.981H952.438V103.404H970.853V113.438H973.078V103.404H991.501V120.981Z" fill="#734C44" stroke="black" stroke-width="3"/>
<path d="M990.315 120.09H974.32V104.288H990.315V120.09Z" fill="#593E47"/>
<path d="M932.906 120.981V95.4014H952.438V120.981H932.906Z" fill="#6C81A1" stroke="black" stroke-width="3"/>
<path d="M56.5634 34.3236H17.5V103.399H56.5634V34.3236Z" fill="#734C44" stroke="black" stroke-width="3"/>
<path d="M56.5634 16.7475H17.5V34.3236H35.9156V24.2902H38.1406V34.3236H56.5634V16.7475Z" fill="#734C44" stroke="black" stroke-width="3"/>
<path d="M55.3777 17.6378H39.3828V33.4392H55.3777V17.6378Z" fill="#593E47"/>
<path d="M55.3779 35.2161H39.3828V102.563H55.3779V35.2161Z" fill="#593E47"/>
<path d="M56.5634 121.747H17.5V103.399H35.9156V113.873H38.1406V103.399H56.5634V121.747Z" fill="#734C44" stroke="black" stroke-width="3"/>
<path d="M55.3777 120.835H39.3828V104.284H55.3777V120.835Z" fill="#593E47"/>
<path d="M56.5645 42.6081V17.0288H76.0962V42.6081H56.5645Z" fill="#6C81A1" stroke="black" stroke-width="3"/>
<path d="M57.2148 121.747V95.3964H76.7466V121.747H57.2148Z" fill="#6C81A1" stroke="black" stroke-width="3"/>
<path d="M76.748 108.795V121.747H336.609H351.634V117.096H365.586V111.797H387.051V117.096H406.369V121.747H448.225V117.096H477.992V121.747H931.574V108.795H76.748Z" fill="#405273" stroke="black" stroke-width="2"/>
<g opacity="0.7" clip-path="url(#clip0_452_5394)">
<path d="M-18.0781 12.2475H-19.5312H-20.9844H-22.4219V10.7944V9.34124H-20.9844V7.90374V6.45061V4.99749V3.54436H-22.4219V4.99749H-23.875H-25.3281V3.54436V2.09124V0.65374H-23.875H-22.4219H-20.9844H-19.5312H-18.0781H-16.625H-15.1719H-13.7344V2.09124V3.54436V4.99749H-15.1719H-16.625V3.54436H-18.0781V4.99749V6.45061V7.90374V9.34124H-16.625V10.7944V12.2475H-18.0781ZM-3.57812 4.99749V3.54436H-5.03125H-6.48438H-7.9375V4.99749H-6.48438H-5.03125V6.45061V7.90374H-6.48438H-7.9375V9.34124H-6.48438H-5.03125H-3.57812V7.90374H-2.125V9.34124V10.7944V12.2475H-3.57812H-5.03125H-6.48438H-7.9375H-9.375H-10.8281H-12.2812V10.7944V9.34124H-10.8281V7.90374V6.45061V4.99749V3.54436H-12.2812V2.09124V0.65374H-10.8281H-9.375H-7.9375H-6.48438L-5.03125 0.65374H-3.57812H-2.125V2.09124V3.54436V4.99749H-3.57812ZM8.01562 12.2475H6.5625H5.10938H3.65625H2.21875V10.7944H0.765625V9.34124H-0.6875V7.90374V6.45061V4.99749V3.54436H0.765625V2.09124H2.21875V0.65374H3.65625H5.10938H6.5625V2.09124H8.01562V0.65374H9.46875H10.9062V2.09124V3.54436V4.99749H9.46875H8.01562H6.5625V3.54436H5.10938H3.65625V4.99749H2.21875V6.45061V7.90374H3.65625V9.34124H5.10938H6.5625H8.01562V7.90374H9.46875H10.9062V9.34124V10.7944H9.46875V12.2475H8.01562ZM23.9531 12.2475H22.5156H21.0625H19.6094V10.7944V9.34124H21.0625V7.90374H19.6094H18.1562H16.7031V9.34124H18.1562V10.7944V12.2475H16.7031H15.2656H13.8125H12.3594V10.7944V9.34124H13.8125V7.90374V6.45061V4.99749V3.54436H12.3594V2.09124V0.65374H13.8125H15.2656H16.7031H18.1562V2.09124V3.54436H16.7031V4.99749H18.1562H19.6094H21.0625V3.54436H19.6094V2.09124V0.65374H21.0625H22.5156H23.9531H25.4062V2.09124V3.54436H23.9531V4.99749V6.45061V7.90374V9.34124H25.4062V10.7944V12.2475H23.9531ZM39.9062 12.2475H38.4531H37.0156H35.5625H34.1094V10.7944V9.34124H35.5625H37.0156H38.4531V7.90374H37.0156H35.5625V6.45061H34.1094V4.99749V3.54436V2.09124H35.5625V0.65374H37.0156H38.4531H39.9062H41.3594H42.8125V2.09124V3.54436H41.3594H39.9062H38.4531V4.99749L39.9062 4.99749H41.3594V6.45061H42.8125V7.90374V9.34124V10.7944H41.3594V12.2475H39.9062ZM51.5 12.2475H50.0469H48.5938H47.1562V10.7944V9.34124H48.5938V7.90374V6.45061V4.99749V3.54436H47.1562V4.99749H45.7031H44.25V3.54436V2.09124V0.65374H45.7031H47.1562H48.5938H50.0469L51.5 0.65374H52.9531H54.4062H55.8438V2.09124V3.54436V4.99749H54.4062H52.9531V3.54436H51.5V4.99749V6.45061V7.90374V9.34124H52.9531V10.7944V12.2475H51.5ZM70.3438 12.2475H68.8906H67.4531H66V10.7944V9.34124H67.4531V7.90374H66H64.5469H63.0938H61.6406V9.34124H63.0938V10.7944V12.2475H61.6406H60.2031H58.75H57.2969V10.7944V9.34124H58.75V7.90374V6.45061H60.2031V4.99749V3.54436H61.6406V2.09124V0.65374H63.0938H64.5469H66H67.4531V2.09124V3.54436H68.8906V4.99749V6.45061H70.3438V7.90374V9.34124H71.7969V10.7944V12.2475H70.3438ZM64.5469 6.45061H66V4.99749V3.54436H64.5469H63.0938V4.99749V6.45061H64.5469ZM81.9375 12.2475H80.4844H79.0312H77.5781H76.1406V10.7944H74.6875V9.34124H73.2344V7.90374V6.45061V4.99749V3.54436H74.6875V2.09124H76.1406V0.65374H77.5781H79.0312H80.4844V2.09124H81.9375V0.65374L83.3906 0.65374H84.8281V2.09124V3.54436V4.99749H83.3906H81.9375H80.4844V3.54436H79.0312H77.5781V4.99749H76.1406V6.45061V7.90374H77.5781V9.34124H79.0312H80.4844H81.9375V7.90374H83.3906H84.8281V9.34124V10.7944H83.3906V12.2475H81.9375ZM96.4375 12.2475H94.9844H93.5312V10.7944V9.34124H92.0781V7.90374H90.625V9.34124V10.7944V12.2475H89.1875H87.7344H86.2812V10.7944V9.34124H87.7344V7.90374V6.45061V4.99749V3.54436H86.2812V2.09124V0.65374H87.7344H89.1875H90.625V2.09124V3.54436V4.99749H92.0781V3.54436H93.5312V2.09124V0.65374H94.9844H96.4375H97.875V2.09124V3.54436H96.4375V4.99749H94.9844V6.45061V7.90374H96.4375V9.34124H97.875V10.7944V12.2475H96.4375Z" fill="url(#paint0_linear_452_5394)"/>
<path d="M138.922 12.2475H137.469H136.016H134.578V10.7944V9.34124H136.016V7.90374V6.45061V4.99749V3.54436H134.578V4.99749H133.125H131.672V3.54436V2.09124V0.65374H133.125H134.578H136.016H137.469H138.922H140.375H141.828H143.266V2.09124V3.54436V4.99749H141.828H140.375V3.54436H138.922V4.99749V6.45061V7.90374V9.34124H140.375V10.7944V12.2475H138.922ZM153.422 4.99749V3.54436H151.969H150.516H149.062V4.99749H150.516H151.969V6.45061V7.90374H150.516H149.062V9.34124H150.516H151.969H153.422V7.90374H154.875V9.34124V10.7944V12.2475H153.422H151.969H150.516H149.062H147.625H146.172H144.719V10.7944V9.34124H146.172V7.90374V6.45061V4.99749V3.54436H144.719V2.09124V0.65374H146.172H147.625H149.062H150.516L151.969 0.65374H153.422H154.875V2.09124V3.54436V4.99749H153.422ZM165.016 12.2475H163.562H162.109H160.656H159.219V10.7944H157.766V9.34124H156.312V7.90374V6.45061V4.99749V3.54436H157.766V2.09124H159.219V0.65374H160.656H162.109H163.562V2.09124H165.016V0.65374H166.469H167.906V2.09124V3.54436V4.99749H166.469H165.016H163.562V3.54436H162.109H160.656V4.99749H159.219V6.45061V7.90374H160.656V9.34124H162.109H163.562H165.016V7.90374H166.469H167.906V9.34124V10.7944H166.469V12.2475H165.016ZM180.953 12.2475H179.516H178.062H176.609V10.7944V9.34124H178.062V7.90374H176.609H175.156H173.703V9.34124H175.156V10.7944V12.2475H173.703H172.266H170.812H169.359V10.7944V9.34124H170.812V7.90374V6.45061V4.99749V3.54436H169.359V2.09124V0.65374H170.812H172.266H173.703H175.156V2.09124V3.54436H173.703V4.99749H175.156H176.609H178.062V3.54436H176.609V2.09124V0.65374H178.062H179.516H180.953H182.406V2.09124V3.54436H180.953V4.99749V6.45061V7.90374V9.34124H182.406V10.7944V12.2475H180.953ZM196.906 12.2475H195.453H194.016H192.562H191.109V10.7944V9.34124H192.562H194.016H195.453V7.90374H194.016H192.562V6.45061H191.109V4.99749V3.54436V2.09124H192.562V0.65374H194.016H195.453H196.906H198.359H199.812V2.09124V3.54436H198.359H196.906H195.453V4.99749L196.906 4.99749H198.359V6.45061H199.812V7.90374V9.34124V10.7944H198.359V12.2475H196.906ZM208.5 12.2475H207.047H205.594H204.156V10.7944V9.34124H205.594V7.90374V6.45061V4.99749V3.54436H204.156V4.99749H202.703H201.25V3.54436V2.09124V0.65374H202.703H204.156H205.594H207.047L208.5 0.65374H209.953H211.406H212.844V2.09124V3.54436V4.99749H211.406H209.953V3.54436H208.5V4.99749V6.45061V7.90374V9.34124H209.953V10.7944V12.2475H208.5ZM227.344 12.2475H225.891H224.453H223V10.7944V9.34124H224.453V7.90374H223H221.547H220.094H218.641V9.34124H220.094V10.7944V12.2475H218.641H217.203H215.75H214.297V10.7944V9.34124H215.75V7.90374V6.45061H217.203V4.99749V3.54436H218.641V2.09124V0.65374H220.094H221.547H223H224.453V2.09124V3.54436H225.891V4.99749V6.45061H227.344V7.90374V9.34124H228.797V10.7944V12.2475H227.344ZM221.547 6.45061H223V4.99749V3.54436H221.547H220.094V4.99749V6.45061H221.547ZM238.938 12.2475H237.484H236.031H234.578H233.141V10.7944H231.688V9.34124H230.234V7.90374V6.45061V4.99749V3.54436H231.688V2.09124H233.141V0.65374H234.578H236.031H237.484V2.09124H238.938V0.65374L240.391 0.65374H241.828V2.09124V3.54436V4.99749H240.391H238.938H237.484V3.54436H236.031H234.578V4.99749H233.141V6.45061V7.90374H234.578V9.34124H236.031H237.484H238.938V7.90374H240.391H241.828V9.34124V10.7944H240.391V12.2475H238.938ZM253.438 12.2475H251.984H250.531V10.7944V9.34124H249.078V7.90374H247.625V9.34124V10.7944V12.2475H246.188H244.734H243.281V10.7944V9.34124H244.734V7.90374V6.45061V4.99749V3.54436H243.281V2.09124V0.65374H244.734H246.188H247.625V2.09124V3.54436V4.99749H249.078V3.54436H250.531V2.09124V0.65374H251.984H253.438H254.875V2.09124V3.54436H253.438V4.99749H251.984V6.45061V7.90374H253.438V9.34124H254.875V10.7944V12.2475H253.438Z" fill="url(#paint1_linear_452_5394)"/>
<path d="M295.922 12.2475H294.469H293.016H291.578V10.7944V9.34124H293.016V7.90374V6.45061V4.99749V3.54436H291.578V4.99749H290.125H288.672V3.54436V2.09124V0.65374H290.125H291.578H293.016H294.469H295.922H297.375H298.828H300.266V2.09124V3.54436V4.99749H298.828H297.375V3.54436H295.922V4.99749V6.45061V7.90374V9.34124H297.375V10.7944V12.2475H295.922ZM310.422 4.99749V3.54436H308.969H307.516H306.062V4.99749H307.516H308.969V6.45061V7.90374H307.516H306.062V9.34124H307.516H308.969H310.422V7.90374H311.875V9.34124V10.7944V12.2475H310.422H308.969H307.516H306.062H304.625H303.172H301.719V10.7944V9.34124H303.172V7.90374V6.45061V4.99749V3.54436H301.719V2.09124V0.65374H303.172H304.625H306.062H307.516L308.969 0.65374H310.422H311.875V2.09124V3.54436V4.99749H310.422ZM322.016 12.2475H320.562H319.109H317.656H316.219V10.7944H314.766V9.34124H313.312V7.90374V6.45061V4.99749V3.54436H314.766V2.09124H316.219V0.65374H317.656H319.109H320.562V2.09124H322.016V0.65374H323.469H324.906V2.09124V3.54436V4.99749H323.469H322.016H320.562V3.54436H319.109H317.656V4.99749H316.219V6.45061V7.90374H317.656V9.34124H319.109H320.562H322.016V7.90374H323.469H324.906V9.34124V10.7944H323.469V12.2475H322.016ZM337.953 12.2475H336.516H335.062H333.609V10.7944V9.34124H335.062V7.90374H333.609H332.156H330.703V9.34124H332.156V10.7944V12.2475H330.703H329.266H327.812H326.359V10.7944V9.34124H327.812V7.90374V6.45061V4.99749V3.54436H326.359V2.09124V0.65374H327.812H329.266H330.703H332.156V2.09124V3.54436H330.703V4.99749H332.156H333.609H335.062V3.54436H333.609V2.09124V0.65374H335.062H336.516H337.953H339.406V2.09124V3.54436H337.953V4.99749V6.45061V7.90374V9.34124H339.406V10.7944V12.2475H337.953ZM353.906 12.2475H352.453H351.016H349.562H348.109V10.7944V9.34124H349.562H351.016H352.453V7.90374H351.016H349.562V6.45061H348.109V4.99749V3.54436V2.09124H349.562V0.65374H351.016H352.453H353.906H355.359H356.812V2.09124V3.54436H355.359H353.906H352.453V4.99749L353.906 4.99749H355.359V6.45061H356.812V7.90374V9.34124V10.7944H355.359V12.2475H353.906ZM365.5 12.2475H364.047H362.594H361.156V10.7944V9.34124H362.594V7.90374V6.45061V4.99749V3.54436H361.156V4.99749H359.703H358.25V3.54436V2.09124V0.65374H359.703H361.156H362.594H364.047L365.5 0.65374H366.953H368.406H369.844V2.09124V3.54436V4.99749H368.406H366.953V3.54436H365.5V4.99749V6.45061V7.90374V9.34124H366.953V10.7944V12.2475H365.5ZM384.344 12.2475H382.891H381.453H380V10.7944V9.34124H381.453V7.90374H380H378.547H377.094H375.641V9.34124H377.094V10.7944V12.2475H375.641H374.203H372.75H371.297V10.7944V9.34124H372.75V7.90374V6.45061H374.203V4.99749V3.54436H375.641V2.09124V0.65374H377.094H378.547H380H381.453V2.09124V3.54436H382.891V4.99749V6.45061H384.344V7.90374V9.34124H385.797V10.7944V12.2475H384.344ZM378.547 6.45061H380V4.99749V3.54436H378.547H377.094V4.99749V6.45061H378.547ZM395.938 12.2475H394.484H393.031H391.578H390.141V10.7944H388.688V9.34124H387.234V7.90374V6.45061V4.99749V3.54436H388.688V2.09124H390.141V0.65374H391.578H393.031H394.484V2.09124H395.938V0.65374L397.391 0.65374H398.828V2.09124V3.54436V4.99749H397.391H395.938H394.484V3.54436H393.031H391.578V4.99749H390.141V6.45061V7.90374H391.578V9.34124H393.031H394.484H395.938V7.90374H397.391H398.828V9.34124V10.7944H397.391V12.2475H395.938ZM410.438 12.2475H408.984H407.531V10.7944V9.34124H406.078V7.90374H404.625V9.34124V10.7944V12.2475H403.188H401.734H400.281V10.7944V9.34124H401.734V7.90374V6.45061V4.99749V3.54436H400.281V2.09124V0.65374H401.734H403.188H404.625V2.09124V3.54436V4.99749H406.078V3.54436H407.531V2.09124V0.65374H408.984H410.438H411.875V2.09124V3.54436H410.438V4.99749H408.984V6.45061V7.90374H410.438V9.34124H411.875V10.7944V12.2475H410.438Z" fill="url(#paint2_linear_452_5394)"/>
<path d="M452.922 12.2475H451.469H450.016H448.578V10.7944V9.34124H450.016V7.90374V6.45061V4.99749V3.54436H448.578V4.99749H447.125H445.672V3.54436V2.09124V0.65374H447.125H448.578H450.016H451.469H452.922H454.375H455.828H457.266V2.09124V3.54436V4.99749H455.828H454.375V3.54436H452.922V4.99749V6.45061V7.90374V9.34124H454.375V10.7944V12.2475H452.922ZM467.422 4.99749V3.54436H465.969H464.516H463.062V4.99749H464.516H465.969V6.45061V7.90374H464.516H463.062V9.34124H464.516H465.969H467.422V7.90374H468.875V9.34124V10.7944V12.2475H467.422H465.969H464.516H463.062H461.625H460.172H458.719V10.7944V9.34124H460.172V7.90374V6.45061V4.99749V3.54436H458.719V2.09124V0.65374H460.172H461.625H463.062H464.516L465.969 0.65374H467.422H468.875V2.09124V3.54436V4.99749H467.422ZM479.016 12.2475H477.562H476.109H474.656H473.219V10.7944H471.766V9.34124H470.312V7.90374V6.45061V4.99749V3.54436H471.766V2.09124H473.219V0.65374H474.656H476.109H477.562V2.09124H479.016V0.65374H480.469H481.906V2.09124V3.54436V4.99749H480.469H479.016H477.562V3.54436H476.109H474.656V4.99749H473.219V6.45061V7.90374H474.656V9.34124H476.109H477.562H479.016V7.90374H480.469H481.906V9.34124V10.7944H480.469V12.2475H479.016ZM494.953 12.2475H493.516H492.062H490.609V10.7944V9.34124H492.062V7.90374H490.609H489.156H487.703V9.34124H489.156V10.7944V12.2475H487.703H486.266H484.812H483.359V10.7944V9.34124H484.812V7.90374V6.45061V4.99749V3.54436H483.359V2.09124V0.65374H484.812H486.266H487.703H489.156V2.09124V3.54436H487.703V4.99749H489.156H490.609H492.062V3.54436H490.609V2.09124V0.65374H492.062H493.516H494.953H496.406V2.09124V3.54436H494.953V4.99749V6.45061V7.90374V9.34124H496.406V10.7944V12.2475H494.953ZM510.906 12.2475H509.453H508.016H506.562H505.109V10.7944V9.34124H506.562H508.016H509.453V7.90374H508.016H506.562V6.45061H505.109V4.99749V3.54436V2.09124H506.562V0.65374H508.016H509.453H510.906H512.359H513.812V2.09124V3.54436H512.359H510.906H509.453V4.99749L510.906 4.99749H512.359V6.45061H513.812V7.90374V9.34124V10.7944H512.359V12.2475H510.906ZM522.5 12.2475H521.047H519.594H518.156V10.7944V9.34124H519.594V7.90374V6.45061V4.99749V3.54436H518.156V4.99749H516.703H515.25V3.54436V2.09124V0.65374H516.703H518.156H519.594H521.047L522.5 0.65374H523.953H525.406H526.844V2.09124V3.54436V4.99749H525.406H523.953V3.54436H522.5V4.99749V6.45061V7.90374V9.34124H523.953V10.7944V12.2475H522.5ZM541.344 12.2475H539.891H538.453H537V10.7944V9.34124H538.453V7.90374H537H535.547H534.094H532.641V9.34124H534.094V10.7944V12.2475H532.641H531.203H529.75H528.297V10.7944V9.34124H529.75V7.90374V6.45061H531.203V4.99749V3.54436H532.641V2.09124V0.65374H534.094H535.547H537H538.453V2.09124V3.54436H539.891V4.99749V6.45061H541.344V7.90374V9.34124H542.797V10.7944V12.2475H541.344ZM535.547 6.45061H537V4.99749V3.54436H535.547H534.094V4.99749V6.45061H535.547ZM552.938 12.2475H551.484H550.031H548.578H547.141V10.7944H545.688V9.34124H544.234V7.90374V6.45061V4.99749V3.54436H545.688V2.09124H547.141V0.65374H548.578H550.031H551.484V2.09124H552.938V0.65374L554.391 0.65374H555.828V2.09124V3.54436V4.99749H554.391H552.938H551.484V3.54436H550.031H548.578V4.99749H547.141V6.45061V7.90374H548.578V9.34124H550.031H551.484H552.938V7.90374H554.391H555.828V9.34124V10.7944H554.391V12.2475H552.938ZM567.438 12.2475H565.984H564.531V10.7944V9.34124H563.078V7.90374H561.625V9.34124V10.7944V12.2475H560.188H558.734H557.281V10.7944V9.34124H558.734V7.90374V6.45061V4.99749V3.54436H557.281V2.09124V0.65374H558.734H560.188H561.625V2.09124V3.54436V4.99749H563.078V3.54436H564.531V2.09124V0.65374H565.984H567.438H568.875V2.09124V3.54436H567.438V4.99749H565.984V6.45061V7.90374H567.438V9.34124H568.875V10.7944V12.2475H567.438Z" fill="url(#paint3_linear_452_5394)"/>
<path d="M609.922 12.2475H608.469H607.016H605.578V10.7944V9.34124H607.016V7.90374V6.45061V4.99749V3.54436H605.578V4.99749H604.125H602.672V3.54436V2.09124V0.65374H604.125H605.578H607.016H608.469H609.922H611.375H612.828H614.266V2.09124V3.54436V4.99749H612.828H611.375V3.54436H609.922V4.99749V6.45061V7.90374V9.34124H611.375V10.7944V12.2475H609.922ZM624.422 4.99749V3.54436H622.969H621.516H620.062V4.99749H621.516H622.969V6.45061V7.90374H621.516H620.062V9.34124H621.516H622.969H624.422V7.90374H625.875V9.34124V10.7944V12.2475H624.422H622.969H621.516H620.062H618.625H617.172H615.719V10.7944V9.34124H617.172V7.90374V6.45061V4.99749V3.54436H615.719V2.09124V0.65374H617.172H618.625H620.062H621.516L622.969 0.65374H624.422H625.875V2.09124V3.54436V4.99749H624.422ZM636.016 12.2475H634.562H633.109H631.656H630.219V10.7944H628.766V9.34124H627.312V7.90374V6.45061V4.99749V3.54436H628.766V2.09124H630.219V0.65374H631.656H633.109H634.562V2.09124H636.016V0.65374H637.469H638.906V2.09124V3.54436V4.99749H637.469H636.016H634.562V3.54436H633.109H631.656V4.99749H630.219V6.45061V7.90374H631.656V9.34124H633.109H634.562H636.016V7.90374H637.469H638.906V9.34124V10.7944H637.469V12.2475H636.016ZM651.953 12.2475H650.516H649.062H647.609V10.7944V9.34124H649.062V7.90374H647.609H646.156H644.703V9.34124H646.156V10.7944V12.2475H644.703H643.266H641.812H640.359V10.7944V9.34124H641.812V7.90374V6.45061V4.99749V3.54436H640.359V2.09124V0.65374H641.812H643.266H644.703H646.156V2.09124V3.54436H644.703V4.99749H646.156H647.609H649.062V3.54436H647.609V2.09124V0.65374H649.062H650.516H651.953H653.406V2.09124V3.54436H651.953V4.99749V6.45061V7.90374V9.34124H653.406V10.7944V12.2475H651.953ZM667.906 12.2475H666.453H665.016H663.562H662.109V10.7944V9.34124H663.562H665.016H666.453V7.90374H665.016H663.562V6.45061H662.109V4.99749V3.54436V2.09124H663.562V0.65374H665.016H666.453H667.906H669.359H670.812V2.09124V3.54436H669.359H667.906H666.453V4.99749L667.906 4.99749H669.359V6.45061H670.812V7.90374V9.34124V10.7944H669.359V12.2475H667.906ZM679.5 12.2475H678.047H676.594H675.156V10.7944V9.34124H676.594V7.90374V6.45061V4.99749V3.54436H675.156V4.99749H673.703H672.25V3.54436V2.09124V0.65374H673.703H675.156H676.594H678.047L679.5 0.65374H680.953H682.406H683.844V2.09124V3.54436V4.99749H682.406H680.953V3.54436H679.5V4.99749V6.45061V7.90374V9.34124H680.953V10.7944V12.2475H679.5ZM698.344 12.2475H696.891H695.453H694V10.7944V9.34124H695.453V7.90374H694H692.547H691.094H689.641V9.34124H691.094V10.7944V12.2475H689.641H688.203H686.75H685.297V10.7944V9.34124H686.75V7.90374V6.45061H688.203V4.99749V3.54436H689.641V2.09124V0.65374H691.094H692.547H694H695.453V2.09124V3.54436H696.891V4.99749V6.45061H698.344V7.90374V9.34124H699.797V10.7944V12.2475H698.344ZM692.547 6.45061H694V4.99749V3.54436H692.547H691.094V4.99749V6.45061H692.547ZM709.938 12.2475H708.484H707.031H705.578H704.141V10.7944H702.688V9.34124H701.234V7.90374V6.45061V4.99749V3.54436H702.688V2.09124H704.141V0.65374H705.578H707.031H708.484V2.09124H709.938V0.65374L711.391 0.65374H712.828V2.09124V3.54436V4.99749H711.391H709.938H708.484V3.54436H707.031H705.578V4.99749H704.141V6.45061V7.90374H705.578V9.34124H707.031H708.484H709.938V7.90374H711.391H712.828V9.34124V10.7944H711.391V12.2475H709.938ZM724.438 12.2475H722.984H721.531V10.7944V9.34124H720.078V7.90374H718.625V9.34124V10.7944V12.2475H717.188H715.734H714.281V10.7944V9.34124H715.734V7.90374V6.45061V4.99749V3.54436H714.281V2.09124V0.65374H715.734H717.188H718.625V2.09124V3.54436V4.99749H720.078V3.54436H721.531V2.09124V0.65374H722.984H724.438H725.875V2.09124V3.54436H724.438V4.99749H722.984V6.45061V7.90374H724.438V9.34124H725.875V10.7944V12.2475H724.438Z" fill="url(#paint4_linear_452_5394)"/>
<path d="M766.922 12.2475H765.469H764.016H762.578V10.7944V9.34124H764.016V7.90374V6.45061V4.99749V3.54436H762.578V4.99749H761.125H759.672V3.54436V2.09124V0.65374H761.125H762.578H764.016H765.469H766.922H768.375H769.828H771.266V2.09124V3.54436V4.99749H769.828H768.375V3.54436H766.922V4.99749V6.45061V7.90374V9.34124H768.375V10.7944V12.2475H766.922ZM781.422 4.99749V3.54436H779.969H778.516H777.062V4.99749H778.516H779.969V6.45061V7.90374H778.516H777.062V9.34124H778.516H779.969H781.422V7.90374H782.875V9.34124V10.7944V12.2475H781.422H779.969H778.516H777.062H775.625H774.172H772.719V10.7944V9.34124H774.172V7.90374V6.45061V4.99749V3.54436H772.719V2.09124V0.65374H774.172H775.625H777.062H778.516L779.969 0.65374H781.422H782.875V2.09124V3.54436V4.99749H781.422ZM793.016 12.2475H791.562H790.109H788.656H787.219V10.7944H785.766V9.34124H784.312V7.90374V6.45061V4.99749V3.54436H785.766V2.09124H787.219V0.65374H788.656H790.109H791.562V2.09124H793.016V0.65374H794.469H795.906V2.09124V3.54436V4.99749H794.469H793.016H791.562V3.54436H790.109H788.656V4.99749H787.219V6.45061V7.90374H788.656V9.34124H790.109H791.562H793.016V7.90374H794.469H795.906V9.34124V10.7944H794.469V12.2475H793.016ZM808.953 12.2475H807.516H806.062H804.609V10.7944V9.34124H806.062V7.90374H804.609H803.156H801.703V9.34124H803.156V10.7944V12.2475H801.703H800.266H798.812H797.359V10.7944V9.34124H798.812V7.90374V6.45061V4.99749V3.54436H797.359V2.09124V0.65374H798.812H800.266H801.703H803.156V2.09124V3.54436H801.703V4.99749H803.156H804.609H806.062V3.54436H804.609V2.09124V0.65374H806.062H807.516H808.953H810.406V2.09124V3.54436H808.953V4.99749V6.45061V7.90374V9.34124H810.406V10.7944V12.2475H808.953ZM824.906 12.2475H823.453H822.016H820.562H819.109V10.7944V9.34124H820.562H822.016H823.453V7.90374H822.016H820.562V6.45061H819.109V4.99749V3.54436V2.09124H820.562V0.65374H822.016H823.453H824.906H826.359H827.812V2.09124V3.54436H826.359H824.906H823.453V4.99749L824.906 4.99749H826.359V6.45061H827.812V7.90374V9.34124V10.7944H826.359V12.2475H824.906ZM836.5 12.2475H835.047H833.594H832.156V10.7944V9.34124H833.594V7.90374V6.45061V4.99749V3.54436H832.156V4.99749H830.703H829.25V3.54436V2.09124V0.65374H830.703H832.156H833.594H835.047L836.5 0.65374H837.953H839.406H840.844V2.09124V3.54436V4.99749H839.406H837.953V3.54436H836.5V4.99749V6.45061V7.90374V9.34124H837.953V10.7944V12.2475H836.5ZM855.344 12.2475H853.891H852.453H851V10.7944V9.34124H852.453V7.90374H851H849.547H848.094H846.641V9.34124H848.094V10.7944V12.2475H846.641H845.203H843.75H842.297V10.7944V9.34124H843.75V7.90374V6.45061H845.203V4.99749V3.54436H846.641V2.09124V0.65374H848.094H849.547H851H852.453V2.09124V3.54436H853.891V4.99749V6.45061H855.344V7.90374V9.34124H856.797V10.7944V12.2475H855.344ZM849.547 6.45061H851V4.99749V3.54436H849.547H848.094V4.99749V6.45061H849.547ZM866.938 12.2475H865.484H864.031H862.578H861.141V10.7944H859.688V9.34124H858.234V7.90374V6.45061V4.99749V3.54436H859.688V2.09124H861.141V0.65374H862.578H864.031H865.484V2.09124H866.938V0.65374L868.391 0.65374H869.828V2.09124V3.54436V4.99749H868.391H866.938H865.484V3.54436H864.031H862.578V4.99749H861.141V6.45061V7.90374H862.578V9.34124H864.031H865.484H866.938V7.90374H868.391H869.828V9.34124V10.7944H868.391V12.2475H866.938ZM881.438 12.2475H879.984H878.531V10.7944V9.34124H877.078V7.90374H875.625V9.34124V10.7944V12.2475H874.188H872.734H871.281V10.7944V9.34124H872.734V7.90374V6.45061V4.99749V3.54436H871.281V2.09124V0.65374H872.734H874.188H875.625V2.09124V3.54436V4.99749H877.078V3.54436H878.531V2.09124V0.65374H879.984H881.438H882.875V2.09124V3.54436H881.438V4.99749H879.984V6.45061V7.90374H881.438V9.34124H882.875V10.7944V12.2475H881.438Z" fill="url(#paint5_linear_452_5394)"/>
<path d="M923.922 12.2475H922.469H921.016H919.578V10.7944V9.34124H921.016V7.90374V6.45061V4.99749V3.54436H919.578V4.99749H918.125H916.672V3.54436V2.09124V0.65374H918.125H919.578H921.016H922.469H923.922H925.375H926.828H928.266V2.09124V3.54436V4.99749H926.828H925.375V3.54436H923.922V4.99749V6.45061V7.90374V9.34124H925.375V10.7944V12.2475H923.922ZM938.422 4.99749V3.54436H936.969H935.516H934.062V4.99749H935.516H936.969V6.45061V7.90374H935.516H934.062V9.34124H935.516H936.969H938.422V7.90374H939.875V9.34124V10.7944V12.2475H938.422H936.969H935.516H934.062H932.625H931.172H929.719V10.7944V9.34124H931.172V7.90374V6.45061V4.99749V3.54436H929.719V2.09124V0.65374H931.172H932.625H934.062H935.516L936.969 0.65374H938.422H939.875V2.09124V3.54436V4.99749H938.422ZM950.016 12.2475H948.562H947.109H945.656H944.219V10.7944H942.766V9.34124H941.312V7.90374V6.45061V4.99749V3.54436H942.766V2.09124H944.219V0.65374H945.656H947.109H948.562V2.09124H950.016V0.65374H951.469H952.906V2.09124V3.54436V4.99749H951.469H950.016H948.562V3.54436H947.109H945.656V4.99749H944.219V6.45061V7.90374H945.656V9.34124H947.109H948.562H950.016V7.90374H951.469H952.906V9.34124V10.7944H951.469V12.2475H950.016ZM965.953 12.2475H964.516H963.062H961.609V10.7944V9.34124H963.062V7.90374H961.609H960.156H958.703V9.34124H960.156V10.7944V12.2475H958.703H957.266H955.812H954.359V10.7944V9.34124H955.812V7.90374V6.45061V4.99749V3.54436H954.359V2.09124V0.65374H955.812H957.266H958.703H960.156V2.09124V3.54436H958.703V4.99749H960.156H961.609H963.062V3.54436H961.609V2.09124V0.65374H963.062H964.516H965.953H967.406V2.09124V3.54436H965.953V4.99749V6.45061V7.90374V9.34124H967.406V10.7944V12.2475H965.953ZM981.906 12.2475H980.453H979.016H977.562H976.109V10.7944V9.34124H977.562H979.016H980.453V7.90374H979.016H977.562V6.45061H976.109V4.99749V3.54436V2.09124H977.562V0.65374H979.016H980.453H981.906H983.359H984.812V2.09124V3.54436H983.359H981.906H980.453V4.99749L981.906 4.99749H983.359V6.45061H984.812V7.90374V9.34124V10.7944H983.359V12.2475H981.906ZM993.5 12.2475H992.047H990.594H989.156V10.7944V9.34124H990.594V7.90374V6.45061V4.99749V3.54436H989.156V4.99749H987.703H986.25V3.54436V2.09124V0.65374H987.703H989.156H990.594H992.047L993.5 0.65374H994.953H996.406H997.844V2.09124V3.54436V4.99749H996.406H994.953V3.54436H993.5V4.99749V6.45061V7.90374V9.34124H994.953V10.7944V12.2475H993.5ZM1012.34 12.2475H1010.89H1009.45H1008V10.7944V9.34124H1009.45V7.90374H1008H1006.55H1005.09H1003.64V9.34124H1005.09V10.7944V12.2475H1003.64H1002.2H1000.75H999.297V10.7944V9.34124H1000.75V7.90374V6.45061H1002.2V4.99749V3.54436H1003.64V2.09124V0.65374H1005.09H1006.55H1008H1009.45V2.09124V3.54436H1010.89V4.99749V6.45061H1012.34V7.90374V9.34124H1013.8V10.7944V12.2475H1012.34ZM1006.55 6.45061H1008V4.99749V3.54436H1006.55H1005.09V4.99749V6.45061H1006.55ZM1023.94 12.2475H1022.48H1021.03H1019.58H1018.14V10.7944H1016.69V9.34124H1015.23V7.90374V6.45061V4.99749V3.54436H1016.69V2.09124H1018.14V0.65374H1019.58H1021.03H1022.48V2.09124H1023.94V0.65374L1025.39 0.65374H1026.83V2.09124V3.54436V4.99749H1025.39H1023.94H1022.48V3.54436H1021.03H1019.58V4.99749H1018.14V6.45061V7.90374H1019.58V9.34124H1021.03H1022.48H1023.94V7.90374H1025.39H1026.83V9.34124V10.7944H1025.39V12.2475H1023.94ZM1038.44 12.2475H1036.98H1035.53V10.7944V9.34124H1034.08V7.90374H1032.62V9.34124V10.7944V12.2475H1031.19H1029.73H1028.28V10.7944V9.34124H1029.73V7.90374V6.45061V4.99749V3.54436H1028.28V2.09124V0.65374H1029.73H1031.19H1032.62V2.09124V3.54436V4.99749H1034.08V3.54436H1035.53V2.09124V0.65374H1036.98H1038.44H1039.88V2.09124V3.54436H1038.44V4.99749H1036.98V6.45061V7.90374H1038.44V9.34124H1039.88V10.7944V12.2475H1038.44Z" fill="url(#paint6_linear_452_5394)"/>
</g>
<g opacity="0.7" clip-path="url(#clip1_452_5394)">
<path d="M-25.0781 124.253H-26.5312H-27.9844H-29.4219V125.706V127.159H-27.9844V128.596V130.049V131.503V132.956H-29.4219V131.503H-30.875H-32.3281V132.956V134.409V135.846H-30.875H-29.4219H-27.9844H-26.5312H-25.0781H-23.625H-22.1719H-20.7344V134.409V132.956V131.503H-22.1719H-23.625V132.956H-25.0781V131.503V130.049V128.596V127.159H-23.625V125.706V124.253H-25.0781ZM-10.5781 131.503V132.956H-12.0312H-13.4844H-14.9375V131.503H-13.4844H-12.0312V130.049V128.596H-13.4844H-14.9375V127.159H-13.4844H-12.0312H-10.5781V128.596H-9.125V127.159V125.706V124.253H-10.5781H-12.0312H-13.4844H-14.9375H-16.375H-17.8281H-19.2812V125.706V127.159H-17.8281V128.596V130.049V131.503V132.956H-19.2812V134.409V135.846H-17.8281H-16.375H-14.9375H-13.4844H-12.0312H-10.5781H-9.125V134.409V132.956V131.503H-10.5781ZM1.01562 124.253H-0.4375H-1.89062H-3.34375H-4.78125V125.706H-6.23438V127.159H-7.6875V128.596V130.049V131.503V132.956H-6.23438V134.409H-4.78125V135.846H-3.34375H-1.89062H-0.4375V134.409H1.01562V135.846H2.46875H3.90625V134.409V132.956V131.503H2.46875H1.01562H-0.4375V132.956H-1.89062H-3.34375V131.503H-4.78125V130.049V128.596H-3.34375V127.159H-1.89062H-0.4375H1.01562V128.596H2.46875H3.90625V127.159V125.706H2.46875V124.253H1.01562ZM16.9531 124.253H15.5156H14.0625H12.6094V125.706V127.159H14.0625V128.596H12.6094H11.1562H9.70312V127.159H11.1562V125.706V124.253H9.70312H8.26562H6.8125H5.35938V125.706V127.159H6.8125V128.596V130.049V131.503V132.956H5.35938V134.409V135.846H6.8125H8.26562H9.70312H11.1562V134.409V132.956H9.70312V131.503H11.1562H12.6094H14.0625V132.956H12.6094V134.409V135.846H14.0625H15.5156H16.9531H18.4062V134.409V132.956H16.9531V131.503V130.049V128.596V127.159H18.4062V125.706V124.253H16.9531ZM32.9062 124.253H31.4531H30.0156H28.5625H27.1094V125.706V127.159H28.5625H30.0156H31.4531V128.596H30.0156H28.5625V130.049H27.1094V131.503V132.956V134.409H28.5625V135.846H30.0156H31.4531H32.9062H34.3594H35.8125V134.409V132.956H34.3594H32.9062H31.4531V131.503H32.9062H34.3594V130.049H35.8125V128.596V127.159V125.706H34.3594V124.253H32.9062ZM44.5 124.253H43.0469H41.5938H40.1562V125.706V127.159H41.5938V128.596V130.049V131.503V132.956H40.1562V131.503H38.7031H37.25V132.956V134.409V135.846H38.7031H40.1562H41.5938H43.0469H44.5H45.9531H47.4062H48.8438V134.409V132.956V131.503H47.4062H45.9531V132.956H44.5V131.503V130.049V128.596V127.159H45.9531V125.706V124.253H44.5ZM63.3438 124.253H61.8906H60.4531H59V125.706V127.159H60.4531V128.596H59H57.5469H56.0938H54.6406V127.159H56.0938V125.706V124.253H54.6406H53.2031H51.75H50.2969V125.706V127.159H51.75V128.596V130.049H53.2031V131.503V132.956H54.6406V134.409V135.846H56.0938H57.5469H59H60.4531V134.409V132.956H61.8906V131.503V130.049H63.3438V128.596V127.159H64.7969V125.706V124.253H63.3438ZM57.5469 130.049H59V131.503V132.956H57.5469H56.0938V131.503V130.049H57.5469ZM74.9375 124.253H73.4844H72.0312H70.5781H69.1406V125.706H67.6875V127.159H66.2344V128.596V130.049V131.503V132.956H67.6875V134.409H69.1406V135.846H70.5781H72.0312H73.4844V134.409H74.9375V135.846H76.3906H77.8281V134.409V132.956V131.503H76.3906H74.9375H73.4844V132.956H72.0312H70.5781V131.503H69.1406V130.049V128.596H70.5781V127.159H72.0312H73.4844H74.9375V128.596H76.3906H77.8281V127.159V125.706H76.3906V124.253H74.9375ZM89.4375 124.253H87.9844H86.5312V125.706V127.159H85.0781V128.596H83.625V127.159V125.706V124.253H82.1875H80.7344H79.2812V125.706V127.159H80.7344V128.596V130.049V131.503V132.956H79.2812V134.409V135.846H80.7344H82.1875H83.625V134.409V132.956V131.503H85.0781V132.956H86.5312V134.409V135.846H87.9844H89.4375H90.875V134.409V132.956H89.4375V131.503H87.9844V130.049V128.596H89.4375V127.159H90.875V125.706V124.253H89.4375Z" fill="url(#paint7_linear_452_5394)"/>
<path d="M131.922 124.253H130.469H129.016H127.578V125.706V127.159H129.016V128.596V130.049V131.503V132.956H127.578V131.503H126.125H124.672V132.956V134.409V135.846H126.125H127.578H129.016H130.469H131.922H133.375H134.828H136.266V134.409V132.956V131.503H134.828H133.375V132.956H131.922V131.503V130.049V128.596V127.159H133.375V125.706V124.253H131.922ZM146.422 131.503V132.956H144.969H143.516H142.062V131.503H143.516H144.969V130.049V128.596H143.516H142.062V127.159H143.516H144.969H146.422V128.596H147.875V127.159V125.706V124.253H146.422H144.969H143.516H142.062H140.625H139.172H137.719V125.706V127.159H139.172V128.596V130.049V131.503V132.956H137.719V134.409V135.846H139.172H140.625H142.062H143.516H144.969H146.422H147.875V134.409V132.956V131.503H146.422ZM158.016 124.253H156.562H155.109H153.656H152.219V125.706H150.766V127.159H149.312V128.596V130.049V131.503V132.956H150.766V134.409H152.219V135.846H153.656H155.109H156.562V134.409H158.016V135.846H159.469H160.906V134.409V132.956V131.503H159.469H158.016H156.562V132.956H155.109H153.656V131.503H152.219V130.049V128.596H153.656V127.159H155.109H156.562H158.016V128.596H159.469H160.906V127.159V125.706H159.469V124.253H158.016ZM173.953 124.253H172.516H171.062H169.609V125.706V127.159H171.062V128.596H169.609H168.156H166.703V127.159H168.156V125.706V124.253H166.703H165.266H163.812H162.359V125.706V127.159H163.812V128.596V130.049V131.503V132.956H162.359V134.409V135.846H163.812H165.266H166.703H168.156V134.409V132.956H166.703V131.503H168.156H169.609H171.062V132.956H169.609V134.409V135.846H171.062H172.516H173.953H175.406V134.409V132.956H173.953V131.503V130.049V128.596V127.159H175.406V125.706V124.253H173.953ZM189.906 124.253H188.453H187.016H185.562H184.109V125.706V127.159H185.562H187.016H188.453V128.596H187.016H185.562V130.049H184.109V131.503V132.956V134.409H185.562V135.846H187.016H188.453H189.906H191.359H192.812V134.409V132.956H191.359H189.906H188.453V131.503H189.906H191.359V130.049H192.812V128.596V127.159V125.706H191.359V124.253H189.906ZM201.5 124.253H200.047H198.594H197.156V125.706V127.159H198.594V128.596V130.049V131.503V132.956H197.156V131.503H195.703H194.25V132.956V134.409V135.846H195.703H197.156H198.594H200.047H201.5H202.953H204.406H205.844V134.409V132.956V131.503H204.406H202.953V132.956H201.5V131.503V130.049V128.596V127.159H202.953V125.706V124.253H201.5ZM220.344 124.253H218.891H217.453H216V125.706V127.159H217.453V128.596H216H214.547H213.094H211.641V127.159H213.094V125.706V124.253H211.641H210.203H208.75H207.297V125.706V127.159H208.75V128.596V130.049H210.203V131.503V132.956H211.641V134.409V135.846H213.094H214.547H216H217.453V134.409V132.956H218.891V131.503V130.049H220.344V128.596V127.159H221.797V125.706V124.253H220.344ZM214.547 130.049H216V131.503V132.956H214.547H213.094V131.503V130.049H214.547ZM231.938 124.253H230.484H229.031H227.578H226.141V125.706H224.688V127.159H223.234V128.596V130.049V131.503V132.956H224.688V134.409H226.141V135.846H227.578H229.031H230.484V134.409H231.938V135.846H233.391H234.828V134.409V132.956V131.503H233.391H231.938H230.484V132.956H229.031H227.578V131.503H226.141V130.049V128.596H227.578V127.159H229.031H230.484H231.938V128.596H233.391H234.828V127.159V125.706H233.391V124.253H231.938ZM246.438 124.253H244.984H243.531V125.706V127.159H242.078V128.596H240.625V127.159V125.706V124.253H239.188H237.734H236.281V125.706V127.159H237.734V128.596V130.049V131.503V132.956H236.281V134.409V135.846H237.734H239.188H240.625V134.409V132.956V131.503H242.078V132.956H243.531V134.409V135.846H244.984H246.438H247.875V134.409V132.956H246.438V131.503H244.984V130.049V128.596H246.438V127.159H247.875V125.706V124.253H246.438Z" fill="url(#paint8_linear_452_5394)"/>
<path d="M288.922 124.253H287.469H286.016H284.578V125.706V127.159H286.016V128.596V130.049V131.503V132.956H284.578V131.503H283.125H281.672V132.956V134.409V135.846H283.125H284.578H286.016H287.469H288.922H290.375H291.828H293.266V134.409V132.956V131.503H291.828H290.375V132.956H288.922V131.503V130.049V128.596V127.159H290.375V125.706V124.253H288.922ZM303.422 131.503V132.956H301.969H300.516H299.062V131.503H300.516H301.969V130.049V128.596H300.516H299.062V127.159H300.516H301.969H303.422V128.596H304.875V127.159V125.706V124.253H303.422H301.969H300.516H299.062H297.625H296.172H294.719V125.706V127.159H296.172V128.596V130.049V131.503V132.956H294.719V134.409V135.846H296.172H297.625H299.062H300.516H301.969H303.422H304.875V134.409V132.956V131.503H303.422ZM315.016 124.253H313.562H312.109H310.656H309.219V125.706H307.766V127.159H306.312V128.596V130.049V131.503V132.956H307.766V134.409H309.219V135.846H310.656H312.109H313.562V134.409H315.016V135.846H316.469H317.906V134.409V132.956V131.503H316.469H315.016H313.562V132.956H312.109H310.656V131.503H309.219V130.049V128.596H310.656V127.159H312.109H313.562H315.016V128.596H316.469H317.906V127.159V125.706H316.469V124.253H315.016ZM330.953 124.253H329.516H328.062H326.609V125.706V127.159H328.062V128.596H326.609H325.156H323.703V127.159H325.156V125.706V124.253H323.703H322.266H320.812H319.359V125.706V127.159H320.812V128.596V130.049V131.503V132.956H319.359V134.409V135.846H320.812H322.266H323.703H325.156V134.409V132.956H323.703V131.503H325.156H326.609H328.062V132.956H326.609V134.409V135.846H328.062H329.516H330.953H332.406V134.409V132.956H330.953V131.503V130.049V128.596V127.159H332.406V125.706V124.253H330.953ZM346.906 124.253H345.453H344.016H342.562H341.109V125.706V127.159H342.562H344.016H345.453V128.596H344.016H342.562V130.049H341.109V131.503V132.956V134.409H342.562V135.846H344.016H345.453H346.906H348.359H349.812V134.409V132.956H348.359H346.906H345.453V131.503H346.906H348.359V130.049H349.812V128.596V127.159V125.706H348.359V124.253H346.906ZM358.5 124.253H357.047H355.594H354.156V125.706V127.159H355.594V128.596V130.049V131.503V132.956H354.156V131.503H352.703H351.25V132.956V134.409V135.846H352.703H354.156H355.594H357.047H358.5H359.953H361.406H362.844V134.409V132.956V131.503H361.406H359.953V132.956H358.5V131.503V130.049V128.596V127.159H359.953V125.706V124.253H358.5ZM377.344 124.253H375.891H374.453H373V125.706V127.159H374.453V128.596H373H371.547H370.094H368.641V127.159H370.094V125.706V124.253H368.641H367.203H365.75H364.297V125.706V127.159H365.75V128.596V130.049H367.203V131.503V132.956H368.641V134.409V135.846H370.094H371.547H373H374.453V134.409V132.956H375.891V131.503V130.049H377.344V128.596V127.159H378.797V125.706V124.253H377.344ZM371.547 130.049H373V131.503V132.956H371.547H370.094V131.503V130.049H371.547ZM388.938 124.253H387.484H386.031H384.578H383.141V125.706H381.688V127.159H380.234V128.596V130.049V131.503V132.956H381.688V134.409H383.141V135.846H384.578H386.031H387.484V134.409H388.938V135.846H390.391H391.828V134.409V132.956V131.503H390.391H388.938H387.484V132.956H386.031H384.578V131.503H383.141V130.049V128.596H384.578V127.159H386.031H387.484H388.938V128.596H390.391H391.828V127.159V125.706H390.391V124.253H388.938ZM403.438 124.253H401.984H400.531V125.706V127.159H399.078V128.596H397.625V127.159V125.706V124.253H396.188H394.734H393.281V125.706V127.159H394.734V128.596V130.049V131.503V132.956H393.281V134.409V135.846H394.734H396.188H397.625V134.409V132.956V131.503H399.078V132.956H400.531V134.409V135.846H401.984H403.438H404.875V134.409V132.956H403.438V131.503H401.984V130.049V128.596H403.438V127.159H404.875V125.706V124.253H403.438Z" fill="url(#paint9_linear_452_5394)"/>
<path d="M445.922 124.253H444.469H443.016H441.578V125.706V127.159H443.016V128.596V130.049V131.503V132.956H441.578V131.503H440.125H438.672V132.956V134.409V135.846H440.125H441.578H443.016H444.469H445.922H447.375H448.828H450.266V134.409V132.956V131.503H448.828H447.375V132.956H445.922V131.503V130.049V128.596V127.159H447.375V125.706V124.253H445.922ZM460.422 131.503V132.956H458.969H457.516H456.062V131.503H457.516H458.969V130.049V128.596H457.516H456.062V127.159H457.516H458.969H460.422V128.596H461.875V127.159V125.706V124.253H460.422H458.969H457.516H456.062H454.625H453.172H451.719V125.706V127.159H453.172V128.596V130.049V131.503V132.956H451.719V134.409V135.846H453.172H454.625H456.062H457.516H458.969H460.422H461.875V134.409V132.956V131.503H460.422ZM472.016 124.253H470.562H469.109H467.656H466.219V125.706H464.766V127.159H463.312V128.596V130.049V131.503V132.956H464.766V134.409H466.219V135.846H467.656H469.109H470.562V134.409H472.016V135.846H473.469H474.906V134.409V132.956V131.503H473.469H472.016H470.562V132.956H469.109H467.656V131.503H466.219V130.049V128.596H467.656V127.159H469.109H470.562H472.016V128.596H473.469H474.906V127.159V125.706H473.469V124.253H472.016ZM487.953 124.253H486.516H485.062H483.609V125.706V127.159H485.062V128.596H483.609H482.156H480.703V127.159H482.156V125.706V124.253H480.703H479.266H477.812H476.359V125.706V127.159H477.812V128.596V130.049V131.503V132.956H476.359V134.409V135.846H477.812H479.266H480.703H482.156V134.409V132.956H480.703V131.503H482.156H483.609H485.062V132.956H483.609V134.409V135.846H485.062H486.516H487.953H489.406V134.409V132.956H487.953V131.503V130.049V128.596V127.159H489.406V125.706V124.253H487.953ZM503.906 124.253H502.453H501.016H499.562H498.109V125.706V127.159H499.562H501.016H502.453V128.596H501.016H499.562V130.049H498.109V131.503V132.956V134.409H499.562V135.846H501.016H502.453H503.906H505.359H506.812V134.409V132.956H505.359H503.906H502.453V131.503H503.906H505.359V130.049H506.812V128.596V127.159V125.706H505.359V124.253H503.906ZM515.5 124.253H514.047H512.594H511.156V125.706V127.159H512.594V128.596V130.049V131.503V132.956H511.156V131.503H509.703H508.25V132.956V134.409V135.846H509.703H511.156H512.594H514.047H515.5H516.953H518.406H519.844V134.409V132.956V131.503H518.406H516.953V132.956H515.5V131.503V130.049V128.596V127.159H516.953V125.706V124.253H515.5ZM534.344 124.253H532.891H531.453H530V125.706V127.159H531.453V128.596H530H528.547H527.094H525.641V127.159H527.094V125.706V124.253H525.641H524.203H522.75H521.297V125.706V127.159H522.75V128.596V130.049H524.203V131.503V132.956H525.641V134.409V135.846H527.094H528.547H530H531.453V134.409V132.956H532.891V131.503V130.049H534.344V128.596V127.159H535.797V125.706V124.253H534.344ZM528.547 130.049H530V131.503V132.956H528.547H527.094V131.503V130.049H528.547ZM545.938 124.253H544.484H543.031H541.578H540.141V125.706H538.688V127.159H537.234V128.596V130.049V131.503V132.956H538.688V134.409H540.141V135.846H541.578H543.031H544.484V134.409H545.938V135.846H547.391H548.828V134.409V132.956V131.503H547.391H545.938H544.484V132.956H543.031H541.578V131.503H540.141V130.049V128.596H541.578V127.159H543.031H544.484H545.938V128.596H547.391H548.828V127.159V125.706H547.391V124.253H545.938ZM560.438 124.253H558.984H557.531V125.706V127.159H556.078V128.596H554.625V127.159V125.706V124.253H553.188H551.734H550.281V125.706V127.159H551.734V128.596V130.049V131.503V132.956H550.281V134.409V135.846H551.734H553.188H554.625V134.409V132.956V131.503H556.078V132.956H557.531V134.409V135.846H558.984H560.438H561.875V134.409V132.956H560.438V131.503H558.984V130.049V128.596H560.438V127.159H561.875V125.706V124.253H560.438Z" fill="url(#paint10_linear_452_5394)"/>
<path d="M602.922 124.253H601.469H600.016H598.578V125.706V127.159H600.016V128.596V130.049V131.503V132.956H598.578V131.503H597.125H595.672V132.956V134.409V135.846H597.125H598.578H600.016H601.469H602.922H604.375H605.828H607.266V134.409V132.956V131.503H605.828H604.375V132.956H602.922V131.503V130.049V128.596V127.159H604.375V125.706V124.253H602.922ZM617.422 131.503V132.956H615.969H614.516H613.062V131.503H614.516H615.969V130.049V128.596H614.516H613.062V127.159H614.516H615.969H617.422V128.596H618.875V127.159V125.706V124.253H617.422H615.969H614.516H613.062H611.625H610.172H608.719V125.706V127.159H610.172V128.596V130.049V131.503V132.956H608.719V134.409V135.846H610.172H611.625H613.062H614.516H615.969H617.422H618.875V134.409V132.956V131.503H617.422ZM629.016 124.253H627.562H626.109H624.656H623.219V125.706H621.766V127.159H620.312V128.596V130.049V131.503V132.956H621.766V134.409H623.219V135.846H624.656H626.109H627.562V134.409H629.016V135.846H630.469H631.906V134.409V132.956V131.503H630.469H629.016H627.562V132.956H626.109H624.656V131.503H623.219V130.049V128.596H624.656V127.159H626.109H627.562H629.016V128.596H630.469H631.906V127.159V125.706H630.469V124.253H629.016ZM644.953 124.253H643.516H642.062H640.609V125.706V127.159H642.062V128.596H640.609H639.156H637.703V127.159H639.156V125.706V124.253H637.703H636.266H634.812H633.359V125.706V127.159H634.812V128.596V130.049V131.503V132.956H633.359V134.409V135.846H634.812H636.266H637.703H639.156V134.409V132.956H637.703V131.503H639.156H640.609H642.062V132.956H640.609V134.409V135.846H642.062H643.516H644.953H646.406V134.409V132.956H644.953V131.503V130.049V128.596V127.159H646.406V125.706V124.253H644.953ZM660.906 124.253H659.453H658.016H656.562H655.109V125.706V127.159H656.562H658.016H659.453V128.596H658.016H656.562V130.049H655.109V131.503V132.956V134.409H656.562V135.846H658.016H659.453H660.906H662.359H663.812V134.409V132.956H662.359H660.906H659.453V131.503H660.906H662.359V130.049H663.812V128.596V127.159V125.706H662.359V124.253H660.906ZM672.5 124.253H671.047H669.594H668.156V125.706V127.159H669.594V128.596V130.049V131.503V132.956H668.156V131.503H666.703H665.25V132.956V134.409V135.846H666.703H668.156H669.594H671.047H672.5H673.953H675.406H676.844V134.409V132.956V131.503H675.406H673.953V132.956H672.5V131.503V130.049V128.596V127.159H673.953V125.706V124.253H672.5ZM691.344 124.253H689.891H688.453H687V125.706V127.159H688.453V128.596H687H685.547H684.094H682.641V127.159H684.094V125.706V124.253H682.641H681.203H679.75H678.297V125.706V127.159H679.75V128.596V130.049H681.203V131.503V132.956H682.641V134.409V135.846H684.094H685.547H687H688.453V134.409V132.956H689.891V131.503V130.049H691.344V128.596V127.159H692.797V125.706V124.253H691.344ZM685.547 130.049H687V131.503V132.956H685.547H684.094V131.503V130.049H685.547ZM702.938 124.253H701.484H700.031H698.578H697.141V125.706H695.688V127.159H694.234V128.596V130.049V131.503V132.956H695.688V134.409H697.141V135.846H698.578H700.031H701.484V134.409H702.938V135.846H704.391H705.828V134.409V132.956V131.503H704.391H702.938H701.484V132.956H700.031H698.578V131.503H697.141V130.049V128.596H698.578V127.159H700.031H701.484H702.938V128.596H704.391H705.828V127.159V125.706H704.391V124.253H702.938ZM717.438 124.253H715.984H714.531V125.706V127.159H713.078V128.596H711.625V127.159V125.706V124.253H710.188H708.734H707.281V125.706V127.159H708.734V128.596V130.049V131.503V132.956H707.281V134.409V135.846H708.734H710.188H711.625V134.409V132.956V131.503H713.078V132.956H714.531V134.409V135.846H715.984H717.438H718.875V134.409V132.956H717.438V131.503H715.984V130.049V128.596H717.438V127.159H718.875V125.706V124.253H717.438Z" fill="url(#paint11_linear_452_5394)"/>
<path d="M759.922 124.253H758.469H757.016H755.578V125.706V127.159H757.016V128.596V130.049V131.503V132.956H755.578V131.503H754.125H752.672V132.956V134.409V135.846H754.125H755.578H757.016H758.469H759.922H761.375H762.828H764.266V134.409V132.956V131.503H762.828H761.375V132.956H759.922V131.503V130.049V128.596V127.159H761.375V125.706V124.253H759.922ZM774.422 131.503V132.956H772.969H771.516H770.062V131.503H771.516H772.969V130.049V128.596H771.516H770.062V127.159H771.516H772.969H774.422V128.596H775.875V127.159V125.706V124.253H774.422H772.969H771.516H770.062H768.625H767.172H765.719V125.706V127.159H767.172V128.596V130.049V131.503V132.956H765.719V134.409V135.846H767.172H768.625H770.062H771.516H772.969H774.422H775.875V134.409V132.956V131.503H774.422ZM786.016 124.253H784.562H783.109H781.656H780.219V125.706H778.766V127.159H777.312V128.596V130.049V131.503V132.956H778.766V134.409H780.219V135.846H781.656H783.109H784.562V134.409H786.016V135.846H787.469H788.906V134.409V132.956V131.503H787.469H786.016H784.562V132.956H783.109H781.656V131.503H780.219V130.049V128.596H781.656V127.159H783.109H784.562H786.016V128.596H787.469H788.906V127.159V125.706H787.469V124.253H786.016ZM801.953 124.253H800.516H799.062H797.609V125.706V127.159H799.062V128.596H797.609H796.156H794.703V127.159H796.156V125.706V124.253H794.703H793.266H791.812H790.359V125.706V127.159H791.812V128.596V130.049V131.503V132.956H790.359V134.409V135.846H791.812H793.266H794.703H796.156V134.409V132.956H794.703V131.503H796.156H797.609H799.062V132.956H797.609V134.409V135.846H799.062H800.516H801.953H803.406V134.409V132.956H801.953V131.503V130.049V128.596V127.159H803.406V125.706V124.253H801.953ZM817.906 124.253H816.453H815.016H813.562H812.109V125.706V127.159H813.562H815.016H816.453V128.596H815.016H813.562V130.049H812.109V131.503V132.956V134.409H813.562V135.846H815.016H816.453H817.906H819.359H820.812V134.409V132.956H819.359H817.906H816.453V131.503H817.906H819.359V130.049H820.812V128.596V127.159V125.706H819.359V124.253H817.906ZM829.5 124.253H828.047H826.594H825.156V125.706V127.159H826.594V128.596V130.049V131.503V132.956H825.156V131.503H823.703H822.25V132.956V134.409V135.846H823.703H825.156H826.594H828.047H829.5H830.953H832.406H833.844V134.409V132.956V131.503H832.406H830.953V132.956H829.5V131.503V130.049V128.596V127.159H830.953V125.706V124.253H829.5ZM848.344 124.253H846.891H845.453H844V125.706V127.159H845.453V128.596H844H842.547H841.094H839.641V127.159H841.094V125.706V124.253H839.641H838.203H836.75H835.297V125.706V127.159H836.75V128.596V130.049H838.203V131.503V132.956H839.641V134.409V135.846H841.094H842.547H844H845.453V134.409V132.956H846.891V131.503V130.049H848.344V128.596V127.159H849.797V125.706V124.253H848.344ZM842.547 130.049H844V131.503V132.956H842.547H841.094V131.503V130.049H842.547ZM859.938 124.253H858.484H857.031H855.578H854.141V125.706H852.688V127.159H851.234V128.596V130.049V131.503V132.956H852.688V134.409H854.141V135.846H855.578H857.031H858.484V134.409H859.938V135.846H861.391H862.828V134.409V132.956V131.503H861.391H859.938H858.484V132.956H857.031H855.578V131.503H854.141V130.049V128.596H855.578V127.159H857.031H858.484H859.938V128.596H861.391H862.828V127.159V125.706H861.391V124.253H859.938ZM874.438 124.253H872.984H871.531V125.706V127.159H870.078V128.596H868.625V127.159V125.706V124.253H867.188H865.734H864.281V125.706V127.159H865.734V128.596V130.049V131.503V132.956H864.281V134.409V135.846H865.734H867.188H868.625V134.409V132.956V131.503H870.078V132.956H871.531V134.409V135.846H872.984H874.438H875.875V134.409V132.956H874.438V131.503H872.984V130.049V128.596H874.438V127.159H875.875V125.706V124.253H874.438Z" fill="url(#paint12_linear_452_5394)"/>
<path d="M916.922 124.253H915.469H914.016H912.578V125.706V127.159H914.016V128.596V130.049V131.503V132.956H912.578V131.503H911.125H909.672V132.956V134.409V135.846H911.125H912.578H914.016H915.469H916.922H918.375H919.828H921.266V134.409V132.956V131.503H919.828H918.375V132.956H916.922V131.503V130.049V128.596V127.159H918.375V125.706V124.253H916.922ZM931.422 131.503V132.956H929.969H928.516H927.062V131.503H928.516H929.969V130.049V128.596H928.516H927.062V127.159H928.516H929.969H931.422V128.596H932.875V127.159V125.706V124.253H931.422H929.969H928.516H927.062H925.625H924.172H922.719V125.706V127.159H924.172V128.596V130.049V131.503V132.956H922.719V134.409V135.846H924.172H925.625H927.062H928.516H929.969H931.422H932.875V134.409V132.956V131.503H931.422ZM943.016 124.253H941.562H940.109H938.656H937.219V125.706H935.766V127.159H934.312V128.596V130.049V131.503V132.956H935.766V134.409H937.219V135.846H938.656H940.109H941.562V134.409H943.016V135.846H944.469H945.906V134.409V132.956V131.503H944.469H943.016H941.562V132.956H940.109H938.656V131.503H937.219V130.049V128.596H938.656V127.159H940.109H941.562H943.016V128.596H944.469H945.906V127.159V125.706H944.469V124.253H943.016ZM958.953 124.253H957.516H956.062H954.609V125.706V127.159H956.062V128.596H954.609H953.156H951.703V127.159H953.156V125.706V124.253H951.703H950.266H948.812H947.359V125.706V127.159H948.812V128.596V130.049V131.503V132.956H947.359V134.409V135.846H948.812H950.266H951.703H953.156V134.409V132.956H951.703V131.503H953.156H954.609H956.062V132.956H954.609V134.409V135.846H956.062H957.516H958.953H960.406V134.409V132.956H958.953V131.503V130.049V128.596V127.159H960.406V125.706V124.253H958.953ZM974.906 124.253H973.453H972.016H970.562H969.109V125.706V127.159H970.562H972.016H973.453V128.596H972.016H970.562V130.049H969.109V131.503V132.956V134.409H970.562V135.846H972.016H973.453H974.906H976.359H977.812V134.409V132.956H976.359H974.906H973.453V131.503H974.906H976.359V130.049H977.812V128.596V127.159V125.706H976.359V124.253H974.906ZM986.5 124.253H985.047H983.594H982.156V125.706V127.159H983.594V128.596V130.049V131.503V132.956H982.156V131.503H980.703H979.25V132.956V134.409V135.846H980.703H982.156H983.594H985.047H986.5H987.953H989.406H990.844V134.409V132.956V131.503H989.406H987.953V132.956H986.5V131.503V130.049V128.596V127.159H987.953V125.706V124.253H986.5ZM1005.34 124.253H1003.89H1002.45H1001V125.706V127.159H1002.45V128.596H1001H999.547H998.094H996.641V127.159H998.094V125.706V124.253H996.641H995.203H993.75H992.297V125.706V127.159H993.75V128.596V130.049H995.203V131.503V132.956H996.641V134.409V135.846H998.094H999.547H1001H1002.45V134.409V132.956H1003.89V131.503V130.049H1005.34V128.596V127.159H1006.8V125.706V124.253H1005.34ZM999.547 130.049H1001V131.503V132.956H999.547H998.094V131.503V130.049H999.547ZM1016.94 124.253H1015.48H1014.03H1012.58H1011.14V125.706H1009.69V127.159H1008.23V128.596V130.049V131.503V132.956H1009.69V134.409H1011.14V135.846H1012.58H1014.03H1015.48V134.409H1016.94V135.846H1018.39H1019.83V134.409V132.956V131.503H1018.39H1016.94H1015.48V132.956H1014.03H1012.58V131.503H1011.14V130.049V128.596H1012.58V127.159H1014.03H1015.48H1016.94V128.596H1018.39H1019.83V127.159V125.706H1018.39V124.253H1016.94ZM1031.44 124.253H1029.98H1028.53V125.706V127.159H1027.08V128.596H1025.62V127.159V125.706V124.253H1024.19H1022.73H1021.28V125.706V127.159H1022.73V128.596V130.049V131.503V132.956H1021.28V134.409V135.846H1022.73H1024.19H1025.62V134.409V132.956V131.503H1027.08V132.956H1028.53V134.409V135.846H1029.98H1031.44H1032.88V134.409V132.956H1031.44V131.503H1029.98V130.049V128.596H1031.44V127.159H1032.88V125.706V124.253H1031.44Z" fill="url(#paint13_linear_452_5394)"/>
</g>
<g opacity="0.7" clip-path="url(#clip2_452_5394)">
<path d="M996.5 24.4975V23.0444V21.5912V20.1537H997.953H999.406V21.5912H1000.84H1002.3H1003.75H1005.2V20.1537H1003.75V18.7006V17.2475H1005.2H1006.66H1008.09V18.7006V20.1537V21.5912V23.0444V24.4975V25.9506V27.4037V28.8412H1006.66H1005.2H1003.75V27.4037V25.9506H1005.2V24.4975H1003.75H1002.3H1000.84H999.406V25.9506H997.953H996.5V24.4975ZM1003.75 38.9975H1005.2V37.5444V36.0912V34.6381H1003.75V36.0912V37.5444H1002.3H1000.84V36.0912V34.6381H999.406V36.0912V37.5444V38.9975H1000.84V40.4506H999.406H997.953H996.5V38.9975V37.5444V36.0912V34.6381V33.2006V31.7475V30.2944H997.953H999.406V31.7475H1000.84H1002.3H1003.75H1005.2V30.2944H1006.66H1008.09V31.7475V33.2006V34.6381V36.0912V37.5444V38.9975V40.4506H1006.66H1005.2H1003.75V38.9975ZM996.5 50.5912V49.1381V47.685V46.2319V44.7944H997.953V43.3412H999.406V41.8881H1000.84H1002.3H1003.75H1005.2V43.3412H1006.66V44.7944H1008.09V46.2319V47.685V49.1381H1006.66V50.5912H1008.09V52.0444V53.4819H1006.66H1005.2H1003.75V52.0444V50.5912V49.1381H1005.2V47.685V46.2319H1003.75V44.7944H1002.3H1000.84V46.2319H999.406V47.685V49.1381V50.5912H1000.84V52.0444V53.4819H999.406H997.953V52.0444H996.5V50.5912ZM996.5 66.5287V65.0912V63.6381V62.185H997.953H999.406V63.6381H1000.84V62.185V60.7319V59.2787H999.406V60.7319H997.953H996.5V59.2787V57.8412V56.3881V54.935H997.953H999.406V56.3881H1000.84H1002.3H1003.75H1005.2V54.935H1006.66H1008.09V56.3881V57.8412V59.2787V60.7319H1006.66H1005.2V59.2787H1003.75V60.7319V62.185V63.6381H1005.2V62.185H1006.66H1008.09V63.6381V65.0912V66.5287V67.9819H1006.66H1005.2V66.5287H1003.75H1002.3H1000.84H999.406V67.9819H997.953H996.5V66.5287ZM996.5 82.4819V81.0287V79.5912V78.1381V76.685H997.953H999.406V78.1381V79.5912V81.0287H1000.84V79.5912V78.1381H1002.3V76.685H1003.75H1005.2H1006.66V78.1381H1008.09V79.5912V81.0287V82.4819V83.935V85.3881H1006.66H1005.2V83.935V82.4819V81.0287H1003.75V82.4819V83.935H1002.3V85.3881H1000.84H999.406H997.953V83.935H996.5V82.4819ZM996.5 94.0756V92.6225V91.1694V89.7319H997.953H999.406V91.1694H1000.84H1002.3H1003.75H1005.2V89.7319H1003.75V88.2787V86.8256H1005.2H1006.66H1008.09V88.2787V89.7319V91.1694V92.6225V94.0756V95.5287V96.9819V98.4194H1006.66H1005.2H1003.75V96.9819V95.5287H1005.2V94.0756H1003.75H1002.3H1000.84H999.406V95.5287H997.953H996.5V94.0756ZM996.5 112.919V111.466V110.029V108.576H997.953H999.406V110.029H1000.84V108.576V107.122V105.669V104.216H999.406V105.669H997.953H996.5V104.216V102.779V101.326V99.8725H997.953H999.406V101.326H1000.84H1002.3V102.779H1003.75H1005.2V104.216H1006.66H1008.09V105.669V107.122V108.576V110.029H1006.66H1005.2V111.466H1003.75H1002.3V112.919H1000.84H999.406V114.372H997.953H996.5V112.919ZM1002.3 107.122V108.576H1003.75H1005.2V107.122V105.669H1003.75H1002.3V107.122ZM996.5 124.513V123.06V121.607V120.154V118.716H997.953V117.263H999.406V115.81H1000.84H1002.3H1003.75H1005.2V117.263H1006.66V118.716H1008.09V120.154V121.607V123.06H1006.66V124.513H1008.09V125.966V127.404H1006.66H1005.2H1003.75V125.966V124.513V123.06H1005.2V121.607V120.154H1003.75V118.716H1002.3H1000.84V120.154H999.406V121.607V123.06V124.513H1000.84V125.966V127.404H999.406H997.953V125.966H996.5V124.513ZM996.5 139.013V137.56V136.107H997.953H999.406V134.654H1000.84V133.201H999.406H997.953H996.5V131.763V130.31V128.857H997.953H999.406V130.31H1000.84H1002.3H1003.75H1005.2V128.857H1006.66H1008.09V130.31V131.763V133.201H1006.66H1005.2H1003.75V134.654H1005.2V136.107H1006.66H1008.09V137.56V139.013V140.451H1006.66H1005.2V139.013H1003.75V137.56H1002.3H1000.84V139.013H999.406V140.451H997.953H996.5V139.013Z" fill="url(#paint14_linear_452_5394)"/>
</g>
<g clip-path="url(#clip3_452_5394)">
<path opacity="0.7" d="M12.5 134.154V135.607V137.06V138.497H11.0469H9.59375V137.06H8.15625H6.70312H5.25H3.79688V138.497H5.25V139.951V141.404H3.79688H2.34375H0.90625V139.951V138.497V137.06V135.607L0.90625 134.154V132.701V131.247L0.90625 129.81H2.34375H3.79688H5.25V131.247V132.701H3.79688V134.154H5.25H6.70312H8.15625H9.59375V132.701H11.0469H12.5V134.154ZM5.25 119.654H3.79687V121.107V122.56L3.79688 124.013H5.25V122.56V121.107H6.70312H8.15625V122.56V124.013H9.59375V122.56V121.107V119.654H8.15625V118.201H9.59375H11.0469H12.5V119.654V121.107V122.56V124.013V125.451V126.904V128.357H11.0469H9.59375V126.904H8.15625H6.70312H5.25H3.79688V128.357H2.34375H0.90625V126.904V125.451V124.013V122.56V121.107V119.654V118.201H2.34375H3.79687H5.25V119.654ZM12.5 108.06V109.513V110.966V112.419V113.857H11.0469V115.31H9.59375V116.763H8.15625H6.70312H5.25H3.79687V115.31H2.34375L2.34375 113.857H0.90625V112.419L0.90625 110.966V109.513H2.34375V108.06H0.90625V106.607V105.169H2.34375H3.79687H5.25V106.607V108.06V109.513H3.79687V110.966V112.419H5.25V113.857H6.70312H8.15625V112.419H9.59375V110.966V109.513V108.06H8.15625V106.607V105.169H9.59375H11.0469V106.607H12.5V108.06ZM12.5 92.1225V93.56V95.0131V96.4662H11.0469H9.59375V95.0131H8.15625V96.4662V97.9194V99.3725H9.59375V97.9194H11.0469H12.5V99.3725V100.81V102.263V103.716H11.0469H9.59375V102.263H8.15625H6.70312H5.25H3.79687V103.716H2.34375H0.90625V102.263V100.81V99.3725L0.90625 97.9194H2.34375H3.79687V99.3725H5.25V97.9194V96.4662V95.0131H3.79687V96.4662H2.34375H0.90625V95.0131L0.90625 93.56V92.1225V90.6694H2.34375H3.79687V92.1225H5.25H6.70312H8.15625H9.59375V90.6694H11.0469H12.5V92.1225ZM12.5 76.1694V77.6225V79.06V80.5131V81.9662H11.0469H9.59375V80.5131V79.06V77.6225H8.15625V79.06V80.5131H6.70312V81.9662H5.25H3.79687H2.34375V80.5131H0.90625L0.90625 79.06V77.6225V76.1694L0.90625 74.7162V73.2631H2.34375H3.79687V74.7162V76.1694V77.6225H5.25V76.1694V74.7162H6.70312V73.2631H8.15625H9.59375H11.0469V74.7162H12.5V76.1694ZM12.5 64.5756V66.0287V67.4819L12.5 68.9194H11.0469H9.59375L9.59375 67.4819H8.15625H6.70312H5.25H3.79687V68.9194H5.25V70.3725V71.8256H3.79687H2.34375H0.90625V70.3725V68.9194V67.4819V66.0287V64.5756V63.1225V61.6694L0.90625 60.2319H2.34375H3.79687H5.25V61.6694V63.1225H3.79687V64.5756H5.25H6.70312H8.15625H9.59375V63.1225H11.0469H12.5V64.5756ZM12.5 45.7319V47.185V48.6225V50.0756H11.0469H9.59375V48.6225H8.15625V50.0756V51.5287V52.9819V54.435H9.59375V52.9819H11.0469H12.5V54.435V55.8725V57.3256V58.7787H11.0469H9.59375V57.3256H8.15625H6.70312V55.8725H5.25H3.79687V54.435H2.34375H0.90625V52.9819V51.5287V50.0756V48.6225H2.34375H3.79687V47.185H5.25H6.70312V45.7319H8.15625H9.59375V44.2787H11.0469H12.5V45.7319ZM6.70312 51.5287V50.0756H5.25H3.79687L3.79687 51.5287V52.9819H5.25H6.70312V51.5287ZM12.5 34.1381V35.5912V37.0444V38.4975V39.935H11.0469V41.3881H9.59375V42.8412H8.15625H6.70312H5.25H3.79687V41.3881H2.34375L2.34375 39.935H0.90625L0.90625 38.4975V37.0444V35.5912H2.34375V34.1381H0.90625V32.685V31.2475H2.34375H3.79687H5.25L5.25 32.685V34.1381V35.5912H3.79687V37.0444V38.4975H5.25V39.935H6.70312H8.15625V38.4975H9.59375V37.0444V35.5912V34.1381H8.15625V32.685L8.15625 31.2475H9.59375H11.0469V32.685H12.5V34.1381ZM12.5 19.6381V21.0912V22.5444H11.0469H9.59375V23.9975H8.15625V25.4506H9.59375H11.0469H12.5V26.8881V28.3412V29.7944H11.0469H9.59375V28.3412H8.15625H6.70312H5.25H3.79687V29.7944H2.34375H0.90625V28.3412V26.8881V25.4506H2.34375H3.79687H5.25V23.9975H3.79687V22.5444H2.34375H0.90625V21.0912L0.90625 19.6381V18.2006H2.34375H3.79687V19.6381H5.25V21.0912H6.70312H8.15625V19.6381H9.59375V18.2006H11.0469H12.5V19.6381Z" fill="url(#paint15_linear_452_5394)"/>
</g>
<defs>
<linearGradient id="paint0_linear_452_5394" x1="35.4366" y1="17.0865" x2="35.7568" y2="1.12071" gradientUnits="userSpaceOnUse">
<stop stop-color="#652469"/>
<stop offset="0.348987" stop-color="#AF3174"/>
<stop offset="0.890659" stop-color="#E3813C"/>
</linearGradient>
<linearGradient id="paint1_linear_452_5394" x1="192.437" y1="17.0865" x2="192.757" y2="1.12071" gradientUnits="userSpaceOnUse">
<stop stop-color="#652469"/>
<stop offset="0.348987" stop-color="#AF3174"/>
<stop offset="0.890659" stop-color="#E3813C"/>
</linearGradient>
<linearGradient id="paint2_linear_452_5394" x1="349.437" y1="17.0865" x2="349.757" y2="1.12071" gradientUnits="userSpaceOnUse">
<stop stop-color="#652469"/>
<stop offset="0.348987" stop-color="#AF3174"/>
<stop offset="0.890659" stop-color="#E3813C"/>
</linearGradient>
<linearGradient id="paint3_linear_452_5394" x1="506.437" y1="17.0865" x2="506.757" y2="1.12071" gradientUnits="userSpaceOnUse">
<stop stop-color="#652469"/>
<stop offset="0.348987" stop-color="#AF3174"/>
<stop offset="0.890659" stop-color="#E3813C"/>
</linearGradient>
<linearGradient id="paint4_linear_452_5394" x1="663.437" y1="17.0865" x2="663.757" y2="1.12071" gradientUnits="userSpaceOnUse">
<stop stop-color="#652469"/>
<stop offset="0.348987" stop-color="#AF3174"/>
<stop offset="0.890659" stop-color="#E3813C"/>
</linearGradient>
<linearGradient id="paint5_linear_452_5394" x1="820.437" y1="17.0865" x2="820.757" y2="1.12071" gradientUnits="userSpaceOnUse">
<stop stop-color="#652469"/>
<stop offset="0.348987" stop-color="#AF3174"/>
<stop offset="0.890659" stop-color="#E3813C"/>
</linearGradient>
<linearGradient id="paint6_linear_452_5394" x1="977.437" y1="17.0865" x2="977.757" y2="1.12071" gradientUnits="userSpaceOnUse">
<stop stop-color="#652469"/>
<stop offset="0.348987" stop-color="#AF3174"/>
<stop offset="0.890659" stop-color="#E3813C"/>
</linearGradient>
<linearGradient id="paint7_linear_452_5394" x1="28.4366" y1="119.414" x2="28.7568" y2="135.379" gradientUnits="userSpaceOnUse">
<stop stop-color="#652469"/>
<stop offset="0.348987" stop-color="#AF3174"/>
<stop offset="0.890659" stop-color="#E3813C"/>
</linearGradient>
<linearGradient id="paint8_linear_452_5394" x1="185.437" y1="119.414" x2="185.757" y2="135.379" gradientUnits="userSpaceOnUse">
<stop stop-color="#652469"/>
<stop offset="0.348987" stop-color="#AF3174"/>
<stop offset="0.890659" stop-color="#E3813C"/>
</linearGradient>
<linearGradient id="paint9_linear_452_5394" x1="342.437" y1="119.414" x2="342.757" y2="135.379" gradientUnits="userSpaceOnUse">
<stop stop-color="#652469"/>
<stop offset="0.348987" stop-color="#AF3174"/>
<stop offset="0.890659" stop-color="#E3813C"/>
</linearGradient>
<linearGradient id="paint10_linear_452_5394" x1="499.437" y1="119.414" x2="499.757" y2="135.379" gradientUnits="userSpaceOnUse">
<stop stop-color="#652469"/>
<stop offset="0.348987" stop-color="#AF3174"/>
<stop offset="0.890659" stop-color="#E3813C"/>
</linearGradient>
<linearGradient id="paint11_linear_452_5394" x1="656.437" y1="119.414" x2="656.757" y2="135.379" gradientUnits="userSpaceOnUse">
<stop stop-color="#652469"/>
<stop offset="0.348987" stop-color="#AF3174"/>
<stop offset="0.890659" stop-color="#E3813C"/>
</linearGradient>
<linearGradient id="paint12_linear_452_5394" x1="813.437" y1="119.414" x2="813.757" y2="135.379" gradientUnits="userSpaceOnUse">
<stop stop-color="#652469"/>
<stop offset="0.348987" stop-color="#AF3174"/>
<stop offset="0.890659" stop-color="#E3813C"/>
</linearGradient>
<linearGradient id="paint13_linear_452_5394" x1="970.437" y1="119.414" x2="970.757" y2="135.379" gradientUnits="userSpaceOnUse">
<stop stop-color="#652469"/>
<stop offset="0.348987" stop-color="#AF3174"/>
<stop offset="0.890659" stop-color="#E3813C"/>
</linearGradient>
<linearGradient id="paint14_linear_452_5394" x1="991.661" y1="78.0122" x2="1007.63" y2="78.3324" gradientUnits="userSpaceOnUse">
<stop stop-color="#652469"/>
<stop offset="0.348987" stop-color="#AF3174"/>
<stop offset="0.890659" stop-color="#E3813C"/>
</linearGradient>
<linearGradient id="paint15_linear_452_5394" x1="17.339" y1="80.639" x2="1.37322" y2="80.3188" gradientUnits="userSpaceOnUse">
<stop stop-color="#652469"/>
<stop offset="0.348987" stop-color="#AF3174"/>
<stop offset="0.890659" stop-color="#E3813C"/>
</linearGradient>
<clipPath id="clip0_452_5394">
<rect width="981" height="17" fill="white" transform="translate(17.5 0.24749)"/>
</clipPath>
<clipPath id="clip1_452_5394">
<rect width="981" height="28" fill="white" transform="matrix(1 0 0 -1 10.5 141.753)"/>
</clipPath>
<clipPath id="clip2_452_5394">
<rect width="104" height="17" fill="white" transform="matrix(0 1 -1 0 1008.5 17.2475)"/>
</clipPath>
<clipPath id="clip3_452_5394">
<rect width="17" height="106" fill="white" transform="translate(0.5 16.2475)"/>
</clipPath>
</defs>
</svg>
