<svg width="55" height="55" viewBox="0 0 55 55" fill="none" xmlns="http://www.w3.org/2000/svg">
<path d="M49.4537 4.15598C47.8475 2.74897 25.5198 3.42925 11.1397 4.15598C9.32957 4.15598 2.54668 5.18243 2.54688 9.48552C2.54707 13.7886 8.72616 13.8461 11.1397 13.8461C16.1122 13.8461 46.9771 14.4247 49.4537 12.6348C52.4705 10.4545 52.7722 7.06295 49.4537 4.15598Z" fill="#FDF7F0" stroke="#412220" stroke-width="5"/>
<path d="M49.4537 22.7527C47.8475 21.3457 25.5198 22.0259 11.1397 22.7527C9.32957 22.7527 2.54668 23.7791 2.54688 28.0822C2.54707 32.3853 8.72616 32.4428 11.1397 32.4428C16.1122 32.4428 46.9771 33.0214 49.4537 31.2315C52.4705 29.0512 52.7722 25.6596 49.4537 22.7527Z" fill="#FDF7F0" stroke="#412220" stroke-width="5"/>
<path d="M49.4537 42.5149C47.8475 41.1079 25.5198 41.7881 11.1397 42.5149C9.32957 42.5149 2.54668 43.5413 2.54688 47.8444C2.54707 52.1475 8.72616 52.205 11.1397 52.205C16.1122 52.205 46.9771 52.7836 49.4537 50.9937C52.4705 48.8134 52.7722 45.4218 49.4537 42.5149Z" fill="#FDF7F0" stroke="#412220" stroke-width="5"/>
</svg>
