<svg width="60" height="59" viewBox="0 0 60 59" fill="none" xmlns="http://www.w3.org/2000/svg">
<path d="M55.6411 51.8568C54.3821 49.6591 30.129 25.8599 14.4126 10.6283C12.4647 8.68044 4.82347 1.72397 3.38826 3.15959C1.95306 4.5952 8.58302 11.2635 11.1802 13.8607C16.531 19.2115 49.5507 52.6172 52.8128 54.6852C56.7864 57.2042 58.2424 56.3975 55.6411 51.8568Z" fill="#D9D9D9" stroke="#412220" stroke-width="5"/>
<path d="M52.6527 3.93992C50.455 5.19897 26.6558 29.452 11.4242 45.1685C9.47634 47.1163 2.51987 54.7576 3.95549 56.1928C5.3911 57.628 12.0594 50.998 14.6566 48.4009C20.0074 43.0501 53.4131 10.0304 55.4811 6.76826C58.0001 2.79461 57.1934 1.33864 52.6527 3.93992Z" fill="#D9D9D9" stroke="#412220" stroke-width="5"/>
</svg>
