<svg width="29" height="21" viewBox="0 0 29 21" fill="none" xmlns="http://www.w3.org/2000/svg">
<path d="M12.0818 8.42702C11.8265 8.7294 10.1616 8.47629 9.45997 8.64808C8.75835 8.81987 13.3112 13.6317 14.0189 13.591C14.7266 13.5503 19.0468 8.95562 18.6565 8.64808C18.2661 8.34054 16.2387 8.68874 15.9653 8.42702C15.692 8.1653 16.3053 1.49599 15.9653 1.28635C15.6254 1.07671 12.6868 0.863968 12.0818 1.28635C11.4768 1.70873 12.3371 8.12464 12.0818 8.42702Z" fill="#301F23" stroke="#FFD600"/>
<path d="M4.59156 9.80364C4.32229 9.31619 1.37974 9.20554 1.02291 9.80364C1.02291 9.80364 0.56267 19.4899 1.02291 20.0616C1.48315 20.6334 27.1637 20.5781 27.7834 20.0616C28.403 19.5452 28.3914 10.3464 27.7834 9.80364C27.1754 9.26085 24.6942 9.26076 24.2153 9.80364C23.7364 10.3465 24.5919 16.1261 24.2153 16.5546C23.8387 16.9832 4.91199 17.0938 4.59156 16.5546C4.27113 16.0155 4.86084 10.2911 4.59156 9.80364Z" fill="#301F23" stroke="#FFD600"/>
</svg>
