<svg width="29" height="35" viewBox="0 0 29 35" fill="none" xmlns="http://www.w3.org/2000/svg">
<circle cx="14.498" cy="14.4961" r="12" fill="#130208" stroke="#412220" stroke-width="4"/>
<g filter="url(#filter0_d_636_934)">
<path d="M11.731 24.1342V26.9035H17.8917V23.8287C17.8917 22.1178 17.4844 21.0113 17.2807 20.6719C20.4885 20.1119 21.8633 18.4824 22.5253 15.7328C23.0548 13.5332 21.7954 11.6594 21.0996 10.9975C21.2523 10.8278 21.6928 10.5868 21.6928 9.56845C21.6928 8.55009 21.2691 8.20985 21.0996 7.38232C20.8789 7.38232 20.2441 7.45361 19.4702 7.73874C18.6962 8.02387 17.9902 9.10062 17.7865 9.37218C17.1076 9.25337 16.5636 8.87633 14.9354 8.87633C12.7208 8.87633 12.2251 9.25337 11.4954 9.37218C11.3404 8.92911 11.0925 8.55342 10.4577 8.09516C9.90805 7.69834 8.72653 7.46718 8.21735 7.38232C8.21735 7.63691 7.81001 8.09516 7.81001 9.16445C7.81001 10.0419 8.18341 10.5562 8.57378 10.7429C8.45497 10.8617 7.84588 11.1289 7.45358 11.965C6.89354 13.1585 6.6389 17.4131 8.21735 18.9407C9.7958 20.4682 12.8509 20.3154 12.3926 20.6719C12.026 20.957 11.7988 21.7411 11.731 22.0976C11.4763 22.2333 10.8142 22.5049 10.2031 22.5049C9.43938 22.5049 8.9813 22.0467 8.57378 21.5884C8.16625 21.1301 7.70817 20.3663 6.89354 19.959C6.24184 19.6331 5.87526 19.8232 5.77344 19.959C5.77341 20.1626 5.99739 20.7023 6.89354 21.2319C8.01373 21.8938 7.75927 22.9631 8.9813 23.8287C10.2033 24.6943 11.731 23.7268 11.731 24.1342Z" fill="#D53C6A"/>
</g>
<defs>
<filter id="filter0_d_636_934" x="1.77344" y="7.38232" width="24.8789" height="27.521" filterUnits="userSpaceOnUse" color-interpolation-filters="sRGB">
<feFlood flood-opacity="0" result="BackgroundImageFix"/>
<feColorMatrix in="SourceAlpha" type="matrix" values="0 0 0 0 0 0 0 0 0 0 0 0 0 0 0 0 0 0 127 0" result="hardAlpha"/>
<feOffset dy="4"/>
<feGaussianBlur stdDeviation="2"/>
<feComposite in2="hardAlpha" operator="out"/>
<feColorMatrix type="matrix" values="0 0 0 0 0 0 0 0 0 0 0 0 0 0 0 0 0 0 0.25 0"/>
<feBlend mode="normal" in2="BackgroundImageFix" result="effect1_dropShadow_636_934"/>
<feBlend mode="normal" in="SourceGraphic" in2="effect1_dropShadow_636_934" result="shape"/>
</filter>
</defs>
</svg>
