<svg width="29" height="29" viewBox="0 0 29 29" fill="none" xmlns="http://www.w3.org/2000/svg">
<circle cx="14.3223" cy="14.9854" r="12" fill="#3B5DC9" stroke="#412220" stroke-width="4"/>
<path d="M8.32793 8.94966C7.95368 9.52202 7.90659 20.4319 8.32793 21.0042C8.74927 21.5765 20.0244 21.4335 20.3521 21.0042C20.6798 20.5748 20.7262 9.33139 20.3521 8.94966C19.978 8.56793 8.70217 8.37731 8.32793 8.94966Z" fill="#F4F4F4"/>
<path d="M11.6862 13.2607H10.002V19.1211H11.6862V13.2607Z" fill="#3B5DC9"/>
<path d="M14.6081 13.2607H13.1268L12.9152 19.1211H14.6081V15.8102C14.6081 15.0774 14.6081 14.905 15.5392 14.7326C16.2841 14.5947 16.7525 15.0774 16.8936 15.336V19.1211H18.5865C18.6288 18.1755 18.688 16.0946 18.5865 15.336C18.4595 14.3878 18.2056 13.7413 16.8936 13.2607C15.8439 12.8761 14.9326 13.6507 14.6081 14.0861V13.2607Z" fill="#3B5DC9"/>
<path d="M11.0312 10.5742C10.4698 10.5742 10.0021 10.9987 10.002 11.4794C10.0018 11.9601 10.4361 12.5307 11.0312 12.5307C11.6264 12.5307 12.0137 11.8353 12.0137 11.4794C12.0137 11.1236 11.679 10.5742 11.0312 10.5742Z" fill="#3B5DC9"/>
</svg>
