<svg width="44" height="67" viewBox="0 0 44 67" fill="none" xmlns="http://www.w3.org/2000/svg">
<path d="M12.3668 5.61676C6.16678 8.44801 0.0726628 15.6764 4.30786 18.5097C8.54306 21.343 11.3547 20.2218 13.8662 17.6368C16.7857 14.6318 15.5455 12.4433 22.2628 12.4433C28.98 12.4433 31.7789 16.0832 28.98 20.5318C26.1812 24.9804 22.2628 26.1938 18.9042 30.2381C15.5455 34.2823 16.0069 38.3014 16.0069 41.562C16.0069 45.8089 17.2248 48.0328 22.2628 48.0328C27.3007 48.0328 26.9251 46.8195 26.9251 41.562C26.9251 27.1277 32.9105 31.8237 38.6231 24.0225C42.5225 18.6975 40.1755 11.3774 36.2824 7.87079C31.3493 3.42729 20.7628 1.78268 12.3668 5.61676Z" fill="#FDF7F0" stroke="#412220" stroke-width="5"/>
<path d="M17.6633 54.9032C15.775 55.99 14.8802 59.4657 15.7529 61.9445C16.6256 64.4234 20.3386 64.8643 22.9189 63.6317C24.3152 62.9647 26.0708 60.3794 25.171 57.397C24.1328 53.9556 19.5747 53.803 17.6633 54.9032Z" fill="#FDF7F0" stroke="#412220" stroke-width="5"/>
</svg>
