<svg width="23" height="23" viewBox="0 0 23 23" fill="none" xmlns="http://www.w3.org/2000/svg">
<path d="M18.5488 7.16583C19.0429 7.08727 20.1496 8.6293 20.8807 9.02203C21.6119 9.41476 22.5035 1.39444 21.8921 0.875921C21.2807 0.357405 13.4152 1.20464 13.4386 1.79532C13.462 2.38601 15.4338 3.65766 15.4061 4.11412C15.3784 4.57058 8.53969 10.2462 8.61542 10.7069C8.69114 11.1676 10.8668 13.6732 11.7581 13.7586C12.6494 13.8441 18.0546 7.24439 18.5488 7.16583Z" fill="#FFD600"/>
<path d="M19.4231 17.6926C20.3418 17.6221 20.726 21.2584 20.2123 22.2661C20.2123 22.2661 2.95093 23.2773 1.20689 22.2633C-0.537153 21.2493 0.0130995 2.61122 1.20689 2.45379C2.40068 2.29635 5.64343 2.17483 5.29817 3.21549C4.95291 4.25616 5.57184 16.8715 5.29817 17.6918C6.2626 17.3051 18.5043 17.7631 19.4231 17.6926Z" fill="#FFD600"/>
</svg>
