<svg width="23" height="24" viewBox="0 0 23 24" fill="none" xmlns="http://www.w3.org/2000/svg">
<path d="M19.0488 7.02373C19.5429 6.94272 20.6496 8.53292 21.3807 8.93791C22.1119 9.34291 23.0035 1.07204 22.3921 0.537329C21.7807 0.00261521 13.9152 0.876314 13.9386 1.48545C13.962 2.09459 15.9338 3.40596 15.9061 3.87669C15.8784 4.34741 9.03969 10.2004 9.11542 10.6754C9.19114 11.1505 11.3668 13.7344 12.2581 13.8225C13.1494 13.9106 18.5546 7.10474 19.0488 7.02373Z" fill="#FFD600"/>
<path d="M19.9231 17.8793C20.8418 17.8067 21.226 21.5565 20.7123 22.5957C20.7123 22.5957 3.45093 23.6385 1.70689 22.5928C-0.037153 21.5472 0.5131 2.32684 1.70689 2.16448C2.90068 2.00213 6.14342 1.87681 5.79817 2.94999C5.45291 4.02316 6.07184 17.0326 5.79817 17.8786C6.7626 17.4797 19.0043 17.952 19.9231 17.8793Z" fill="#FFD600"/>
</svg>
