<svg width="30" height="40" viewBox="0 0 30 40" fill="none" xmlns="http://www.w3.org/2000/svg">
<g filter="url(#filter0_ii_296_678)">
<path d="M1.34799 17.6149C1.04757 16.8128 1.54508 15.1152 2.91811 14.5621C4.24587 14.0271 5.58735 14.5621 6.1454 15.5215L8.50049 22.7612V3.65886C8.50049 2.83274 9.35301 1.64624 10.7975 1.64624C12.2419 1.64624 13.3851 2.69938 13.3851 3.65886V12.992C13.7049 12.3523 14.615 11.2475 15.7402 11.2475C16.6788 11.2475 18.4442 11.8581 18.4442 13.6898C18.9385 13.0211 19.774 12.0325 20.9737 12.0325C22.077 12.0325 23.416 12.4686 23.5033 15.5215C23.9685 14.9109 24.7264 13.6898 25.9456 13.6898C27.1648 13.6898 28.3007 14.3004 28.3007 15.5215C28.3007 16.4985 28.5734 25.914 28.3007 29.1287C28.0279 32.3434 23.5033 39.8923 15.1296 38.2874C10.8886 37.4745 8.33125 35.035 6.68419 32.3434C5.07924 29.7207 4.33861 26.8586 3.7467 25.0291L1.34799 17.6149Z" fill="#00A4FF"/>
</g>
<path d="M6.68419 32.3434L3.7467 25.0291M13.3851 12.992C13.3851 8.68753 13.3851 4.17788 13.3851 3.65886C13.3851 2.69938 12.2419 1.64624 10.7975 1.64624C9.35302 1.64624 8.50049 2.83274 8.50049 3.65886V22.7612L6.1454 15.5215C5.58735 14.5621 4.24587 14.0271 2.91811 14.5621C1.54508 15.1152 1.04757 16.8128 1.34799 17.6149L3.7467 25.0291M13.3851 12.992C13.3851 15.0535 13.3851 17.0679 13.3851 18.5744V12.992ZM13.3851 12.992C13.7049 12.3523 14.615 11.2475 15.7402 11.2475C16.6788 11.2475 18.4442 11.8581 18.4442 13.6898M18.4442 13.6898C18.4442 15.1552 18.4442 18.1383 18.4442 19.4467V13.6898ZM18.4442 13.6898C18.9385 13.0211 19.774 12.0325 20.9737 12.0325C22.077 12.0325 23.416 12.4686 23.5033 15.5215M23.5033 15.5215C23.573 17.9638 23.5323 20.5515 23.5033 21.5401V15.5215ZM23.5033 15.5215C23.9685 14.9109 24.7264 13.6898 25.9456 13.6898C27.1648 13.6898 28.3007 14.3004 28.3007 15.5215C28.3007 16.4985 28.5734 25.914 28.3007 29.1287C28.0279 32.3434 23.5033 39.8923 15.1296 38.2874C6.75597 36.6824 4.94605 28.7362 3.7467 25.0291" stroke="#002E42" stroke-width="1.5" stroke-linejoin="round"/>
<defs>
<filter id="filter0_ii_296_678" x="0.513672" y="0.89624" width="28.6582" height="38.3625" filterUnits="userSpaceOnUse" color-interpolation-filters="sRGB">
<feFlood flood-opacity="0" result="BackgroundImageFix"/>
<feBlend mode="normal" in="SourceGraphic" in2="BackgroundImageFix" result="shape"/>
<feColorMatrix in="SourceAlpha" type="matrix" values="0 0 0 0 0 0 0 0 0 0 0 0 0 0 0 0 0 0 127 0" result="hardAlpha"/>
<feOffset dx="2" dy="-6"/>
<feComposite in2="hardAlpha" operator="arithmetic" k2="-1" k3="1"/>
<feColorMatrix type="matrix" values="0 0 0 0 0.0196078 0 0 0 0 0.564706 0 0 0 0 0.752941 0 0 0 1 0"/>
<feBlend mode="normal" in2="shape" result="effect1_innerShadow_296_678"/>
<feColorMatrix in="SourceAlpha" type="matrix" values="0 0 0 0 0 0 0 0 0 0 0 0 0 0 0 0 0 0 127 0" result="hardAlpha"/>
<feOffset dx="-2" dy="4"/>
<feComposite in2="hardAlpha" operator="arithmetic" k2="-1" k3="1"/>
<feColorMatrix type="matrix" values="0 0 0 0 0.690196 0 0 0 0 0.941176 0 0 0 0 1 0 0 0 1 0"/>
<feBlend mode="normal" in2="effect1_innerShadow_296_678" result="effect2_innerShadow_296_678"/>
</filter>
</defs>
</svg>
