<svg width="1232" height="401" viewBox="0 0 1232 401" fill="none" xmlns="http://www.w3.org/2000/svg">
<path d="M51.4609 80.387V180.387H101.461V230.387H51.4609V330.387H1.46094V80.387H51.4609ZM151.461 130.387V80.387H201.461V130.387H151.461ZM101.461 180.387V130.387H151.461V180.387H101.461ZM151.461 280.387H101.461V230.387H151.461V280.387ZM201.461 330.387H151.461V280.387H201.461V330.387Z" fill="url(#paint0_linear_444_710)"/>
<path d="M301.461 130.387V80.387H401.461V130.387H451.461V330.387H401.461V280.387H301.461V330.387H251.461V130.387H301.461ZM401.461 230.387V130.787H301.461V230.387H401.461Z" fill="url(#paint1_linear_444_710)"/>
<path d="M601.461 80.387H701.461V280.387H651.461V130.387H601.461V80.387ZM501.461 230.387H551.461V280.387H501.461V230.387ZM551.461 280.387H651.461V330.387H551.461V280.387Z" fill="url(#paint2_linear_444_710)"/>
<path d="M801.461 130.387V80.387H901.461V130.387H951.461V330.387H901.461V280.387H801.461V330.387H751.461V130.387H801.461ZM901.461 230.387V130.787H801.461V230.387H901.461Z" fill="url(#paint3_linear_444_710)"/>
<path d="M1151.46 330.387H1001.46V80.387H1051.46V280.387H1151.46V330.387Z" fill="url(#paint4_linear_444_710)"/>
<path d="M51.9609 80.387V79.887H51.4609H1.46094H0.960938V80.387V330.387V330.887H1.46094H51.4609H51.9609V330.387V230.887H100.961V280.387V280.887H101.461H150.961V330.387V330.887H151.461H201.461H201.961V330.387V280.387V279.887H201.461H151.961V230.387V229.887H151.461H101.961V180.887H151.461H151.961V180.387V130.887H201.461H201.961V130.387V80.387V79.887H201.461H151.461H150.961V80.387V129.887H101.461H100.961V130.387V179.887H51.9609V80.387ZM301.961 330.387V280.887H400.961V330.387V330.887H401.461H451.461H451.961V330.387V130.387V129.887H451.461H401.961V80.387V79.887H401.461H301.461H300.961V80.387V129.887H251.461H250.961V130.387V330.387V330.887H251.461H301.461H301.961V330.387ZM301.961 131.287H400.961V229.887H301.961V131.287ZM601.461 79.887H600.961V80.387V130.387V130.887H601.461H650.961V279.887H551.961V230.387V229.887H551.461H501.461H500.961V230.387V280.387V280.887H501.461H550.961V330.387V330.887H551.461H651.461H651.961V330.387V280.887H701.461H701.961V280.387V80.387V79.887H701.461H601.461ZM801.961 330.387V280.887H900.961V330.387V330.887H901.461H951.461H951.961V330.387V130.387V129.887H951.461H901.961V80.387V79.887H901.461H801.461H800.961V80.387V129.887H751.461H750.961V130.387V330.387V330.887H751.461H801.461H801.961V330.387ZM801.961 131.287H900.961V229.887H801.961V131.287ZM1151.46 330.887H1151.96V330.387V280.387V279.887H1151.46H1051.96V80.387V79.887H1051.46H1001.46H1000.96V80.387V330.387V330.887H1001.46H1151.46Z" stroke="black" stroke-opacity="0.25"/>
<path d="M1081.46 50.387H1031.46L1001.46 80.387H1051.46L1081.46 50.387Z" fill="url(#paint5_linear_444_710)"/>
<path d="M1031.46 49.887C1031.33 49.887 1031.2 49.9396 1031.11 50.0334L1001.11 80.0334C1000.96 80.1764 1000.92 80.3915 1001 80.5783C1001.08 80.7651 1001.26 80.887 1001.46 80.887H1051.46C1051.59 80.887 1051.72 80.8343 1051.81 80.7405L1081.81 50.7405C1081.96 50.5975 1082 50.3825 1081.92 50.1956C1081.85 50.0088 1081.66 49.887 1081.46 49.887H1031.46Z" stroke="black" stroke-opacity="0.25" stroke-linejoin="round"/>
<path d="M1081.46 250.387V50.387L1051.46 80.387V280.387L1081.46 250.387Z" fill="url(#paint6_linear_444_710)"/>
<path d="M1081.96 50.387C1081.96 50.1847 1081.84 50.0024 1081.65 49.925C1081.47 49.8476 1081.25 49.8904 1081.11 50.0334L1051.11 80.0334C1051.01 80.1272 1050.96 80.2544 1050.96 80.387V280.387C1050.96 280.589 1051.08 280.772 1051.27 280.849C1051.46 280.926 1051.67 280.884 1051.81 280.741L1081.81 250.741C1081.91 250.647 1081.96 250.52 1081.96 250.387V50.387Z" stroke="black" stroke-opacity="0.25" stroke-linejoin="round"/>
<path d="M1181.46 300.387V250.387L1151.46 280.387V330.387L1181.46 300.387Z" fill="url(#paint7_linear_444_710)"/>
<path d="M1181.96 250.387C1181.96 250.185 1181.84 250.002 1181.65 249.925C1181.47 249.848 1181.25 249.89 1181.11 250.033L1151.11 280.033C1151.01 280.127 1150.96 280.254 1150.96 280.387V330.387C1150.96 330.589 1151.08 330.772 1151.27 330.849C1151.46 330.926 1151.67 330.884 1151.81 330.741L1181.81 300.741C1181.91 300.647 1181.96 300.52 1181.96 300.387V250.387Z" stroke="black" stroke-opacity="0.25" stroke-linejoin="round"/>
<path d="M1181.46 250.387H1081.46L1051.46 280.387H1151.46L1181.46 250.387Z" fill="url(#paint8_linear_444_710)"/>
<path d="M1081.46 249.887C1081.33 249.887 1081.2 249.94 1081.11 250.033L1051.11 280.033C1050.96 280.176 1050.92 280.391 1051 280.578C1051.08 280.765 1051.26 280.887 1051.46 280.887H1151.46C1151.59 280.887 1151.72 280.834 1151.81 280.741L1181.81 250.741C1181.96 250.598 1182 250.382 1181.92 250.196C1181.85 250.009 1181.66 249.887 1181.46 249.887H1081.46Z" stroke="black" stroke-opacity="0.25" stroke-linejoin="round"/>
<path d="M931.461 100.387V50.387L901.461 80.387V130.387L931.461 100.387Z" fill="url(#paint9_linear_444_710)"/>
<path d="M931.961 50.387C931.961 50.1847 931.839 50.0024 931.652 49.925C931.465 49.8476 931.25 49.8904 931.107 50.0334L901.107 80.0334C901.014 80.1272 900.961 80.2544 900.961 80.387V130.387C900.961 130.589 901.083 130.772 901.27 130.849C901.456 130.926 901.671 130.884 901.814 130.741L931.814 100.741C931.908 100.647 931.961 100.52 931.961 100.387V50.387Z" stroke="black" stroke-opacity="0.25" stroke-linejoin="round"/>
<path d="M981.461 100.387H931.461L901.461 130.387H951.461L981.461 100.387Z" fill="url(#paint10_linear_444_710)"/>
<path d="M931.461 99.887C931.328 99.887 931.201 99.9396 931.107 100.033L901.107 130.033C900.964 130.176 900.922 130.391 900.999 130.578C901.076 130.765 901.259 130.887 901.461 130.887H951.461C951.594 130.887 951.721 130.834 951.814 130.741L981.814 100.741C981.957 100.598 982 100.382 981.923 100.196C981.845 100.009 981.663 99.887 981.461 99.887H931.461Z" stroke="black" stroke-opacity="0.25" stroke-linejoin="round"/>
<path d="M1031.46 50.387V300.387L1001.46 330.387V80.387L1031.46 50.387Z" fill="url(#paint11_linear_444_710)"/>
<path d="M1031.81 300.741C1031.91 300.647 1031.96 300.52 1031.96 300.387V50.387C1031.96 50.1847 1031.84 50.0024 1031.65 49.925C1031.47 49.8476 1031.25 49.8904 1031.11 50.0334L1001.11 80.0334C1001.01 80.1272 1000.96 80.2544 1000.96 80.387V330.387C1000.96 330.589 1001.08 330.772 1001.27 330.849C1001.46 330.926 1001.67 330.884 1001.81 330.741L1031.81 300.741Z" stroke="black" stroke-opacity="0.25" stroke-linejoin="round"/>
<path d="M931.461 50.387H831.461L801.461 80.387H901.461L931.461 50.387Z" fill="url(#paint12_linear_444_710)"/>
<path d="M831.461 49.887C831.328 49.887 831.201 49.9396 831.107 50.0334L801.107 80.0334C800.964 80.1764 800.922 80.3915 800.999 80.5783C801.076 80.7651 801.259 80.887 801.461 80.887H901.461C901.594 80.887 901.721 80.8343 901.814 80.7405L931.814 50.7405C931.957 50.5975 932 50.3825 931.923 50.1956C931.845 50.0088 931.663 49.887 931.461 49.887H831.461Z" stroke="black" stroke-opacity="0.25" stroke-linejoin="round"/>
<path d="M1031.46 300.387H1181.46L1151.46 330.387H1001.46L1031.46 300.387Z" fill="url(#paint13_linear_444_710)"/>
<path d="M1181.81 300.741C1181.96 300.598 1182 300.382 1181.92 300.196C1181.85 300.009 1181.66 299.887 1181.46 299.887H1031.46C1031.33 299.887 1031.2 299.94 1031.11 300.033L1001.11 330.033C1000.96 330.176 1000.92 330.391 1001 330.578C1001.08 330.765 1001.26 330.887 1001.46 330.887H1151.46C1151.59 330.887 1151.72 330.834 1151.81 330.741L1181.81 300.741Z" stroke="black" stroke-opacity="0.25" stroke-linejoin="round"/>
<path d="M981.461 300.387V100.387L951.461 130.387V330.387L981.461 300.387Z" fill="url(#paint14_linear_444_710)"/>
<path d="M981.961 100.387C981.961 100.185 981.839 100.002 981.652 99.925C981.465 99.8476 981.25 99.8904 981.107 100.033L951.107 130.033C951.014 130.127 950.961 130.254 950.961 130.387V330.387C950.961 330.589 951.083 330.772 951.27 330.849C951.456 330.926 951.671 330.884 951.814 330.741L981.814 300.741C981.908 300.647 981.961 300.52 981.961 300.387V100.387Z" stroke="black" stroke-opacity="0.25" stroke-linejoin="round"/>
<path d="M931.461 100.787V200.387L901.461 230.387V130.787L931.461 100.787Z" fill="url(#paint15_linear_444_710)"/>
<path d="M931.814 200.74C931.908 200.647 931.961 200.519 931.961 200.387V100.787C931.961 100.585 931.839 100.402 931.652 100.325C931.465 100.248 931.25 100.29 931.107 100.433L901.107 130.433C901.014 130.527 900.961 130.654 900.961 130.787V230.387C900.961 230.589 901.083 230.771 901.27 230.849C901.456 230.926 901.671 230.883 901.814 230.74L931.814 200.74Z" stroke="black" stroke-opacity="0.25" stroke-linejoin="round"/>
<path d="M831.461 100.787H931.461L901.461 130.787H801.461L831.461 100.787Z" fill="url(#paint16_linear_444_710)"/>
<path d="M931.814 101.14C931.957 100.997 932 100.782 931.923 100.596C931.845 100.409 931.663 100.287 931.461 100.287H831.461C831.328 100.287 831.201 100.34 831.107 100.433L801.107 130.433C800.964 130.576 800.922 130.791 800.999 130.978C801.076 131.165 801.259 131.287 801.461 131.287H901.461C901.594 131.287 901.721 131.234 901.814 131.14L931.814 101.14Z" stroke="black" stroke-opacity="0.25" stroke-linejoin="round"/>
<path d="M831.461 50.387V100.387L801.461 130.387V80.387L831.461 50.387Z" fill="url(#paint17_linear_444_710)"/>
<path d="M831.814 100.741C831.908 100.647 831.961 100.52 831.961 100.387V50.387C831.961 50.1847 831.839 50.0024 831.652 49.925C831.465 49.8476 831.25 49.8904 831.107 50.0334L801.107 80.0334C801.014 80.1272 800.961 80.2544 800.961 80.387V130.387C800.961 130.589 801.083 130.772 801.27 130.849C801.456 130.926 801.671 130.884 801.814 130.741L831.814 100.741Z" stroke="black" stroke-opacity="0.25" stroke-linejoin="round"/>
<path d="M831.461 100.387H781.461L751.461 130.387H801.461L831.461 100.387Z" fill="url(#paint18_linear_444_710)"/>
<path d="M781.461 99.887C781.328 99.887 781.201 99.9396 781.107 100.033L751.107 130.033C750.964 130.176 750.922 130.391 750.999 130.578C751.076 130.765 751.259 130.887 751.461 130.887H801.461C801.594 130.887 801.721 130.834 801.814 130.741L831.814 100.741C831.957 100.598 832 100.382 831.923 100.196C831.845 100.009 831.663 99.887 831.461 99.887H781.461Z" stroke="black" stroke-opacity="0.25" stroke-linejoin="round"/>
<path d="M931.461 200.387H831.461L801.461 230.387H901.461L931.461 200.387Z" fill="url(#paint19_linear_444_710)"/>
<path d="M831.461 199.887C831.328 199.887 831.201 199.94 831.107 200.033L801.107 230.033C800.964 230.176 800.922 230.391 800.999 230.578C801.076 230.765 801.259 230.887 801.461 230.887H901.461C901.594 230.887 901.721 230.834 901.814 230.741L931.814 200.741C931.957 200.598 932 200.382 931.923 200.196C931.845 200.009 931.663 199.887 931.461 199.887H831.461Z" stroke="black" stroke-opacity="0.25" stroke-linejoin="round"/>
<path d="M831.461 200.387V100.787L801.461 130.787V230.387L831.461 200.387Z" fill="url(#paint20_linear_444_710)"/>
<path d="M831.961 100.787C831.961 100.585 831.839 100.402 831.652 100.325C831.465 100.248 831.25 100.29 831.107 100.433L801.107 130.433C801.014 130.527 800.961 130.654 800.961 130.787V230.387C800.961 230.589 801.083 230.771 801.27 230.849C801.456 230.926 801.671 230.883 801.814 230.74L831.814 200.74C831.908 200.647 831.961 200.519 831.961 200.387V100.787Z" stroke="black" stroke-opacity="0.25" stroke-linejoin="round"/>
<path d="M931.461 300.387H981.461L951.461 330.387H901.461L931.461 300.387Z" fill="url(#paint21_linear_444_710)"/>
<path d="M981.814 300.741C981.957 300.598 982 300.382 981.923 300.196C981.845 300.009 981.663 299.887 981.461 299.887H931.461C931.328 299.887 931.201 299.94 931.107 300.033L901.107 330.033C900.964 330.176 900.922 330.391 900.999 330.578C901.076 330.765 901.259 330.887 901.461 330.887H951.461C951.594 330.887 951.721 330.834 951.814 330.741L981.814 300.741Z" stroke="black" stroke-opacity="0.25" stroke-linejoin="round"/>
<path d="M931.461 250.387V300.387L901.461 330.387V280.387L931.461 250.387Z" fill="url(#paint22_linear_444_710)"/>
<path d="M931.814 300.741C931.908 300.647 931.961 300.52 931.961 300.387V250.387C931.961 250.185 931.839 250.002 931.652 249.925C931.465 249.848 931.25 249.89 931.107 250.033L901.107 280.033C901.014 280.127 900.961 280.254 900.961 280.387V330.387C900.961 330.589 901.083 330.772 901.27 330.849C901.456 330.926 901.671 330.884 901.814 330.741L931.814 300.741Z" stroke="black" stroke-opacity="0.25" stroke-linejoin="round"/>
<path d="M731.461 50.387H631.461L601.461 80.387H701.461L731.461 50.387Z" fill="url(#paint23_linear_444_710)"/>
<path d="M631.461 49.887C631.328 49.887 631.201 49.9396 631.107 50.0334L601.107 80.0334C600.964 80.1764 600.922 80.3915 600.999 80.5783C601.076 80.7651 601.259 80.887 601.461 80.887H701.461C701.594 80.887 701.721 80.8343 701.814 80.7405L731.814 50.7405C731.957 50.5975 732 50.3825 731.923 50.1956C731.845 50.0088 731.663 49.887 731.461 49.887H631.461Z" stroke="black" stroke-opacity="0.25" stroke-linejoin="round"/>
<path d="M831.461 250.387H931.461L901.461 280.387H801.461L831.461 250.387Z" fill="url(#paint24_linear_444_710)"/>
<path d="M931.814 250.741C931.957 250.598 932 250.382 931.923 250.196C931.845 250.009 931.663 249.887 931.461 249.887H831.461C831.328 249.887 831.201 249.94 831.107 250.033L801.107 280.033C800.964 280.176 800.922 280.391 800.999 280.578C801.076 280.765 801.259 280.887 801.461 280.887H901.461C901.594 280.887 901.721 280.834 901.814 280.741L931.814 250.741Z" stroke="black" stroke-opacity="0.25" stroke-linejoin="round"/>
<path d="M731.461 250.387V50.387L701.461 80.387V280.387L731.461 250.387Z" fill="url(#paint25_linear_444_710)"/>
<path d="M731.961 50.387C731.961 50.1847 731.839 50.0024 731.652 49.925C731.465 49.8476 731.25 49.8904 731.107 50.0334L701.107 80.0334C701.014 80.1272 700.961 80.2544 700.961 80.387V280.387C700.961 280.589 701.083 280.772 701.27 280.849C701.456 280.926 701.671 280.884 701.814 280.741L731.814 250.741C731.908 250.647 731.961 250.52 731.961 250.387V50.387Z" stroke="black" stroke-opacity="0.25" stroke-linejoin="round"/>
<path d="M781.461 100.387V300.387L751.461 330.387V130.387L781.461 100.387Z" fill="url(#paint26_linear_444_710)"/>
<path d="M781.814 300.741C781.908 300.647 781.961 300.52 781.961 300.387V100.387C781.961 100.185 781.839 100.002 781.652 99.925C781.465 99.8476 781.25 99.8904 781.107 100.033L751.107 130.033C751.014 130.127 750.961 130.254 750.961 130.387V330.387C750.961 330.589 751.083 330.772 751.27 330.849C751.456 330.926 751.671 330.884 751.814 330.741L781.814 300.741Z" stroke="black" stroke-opacity="0.25" stroke-linejoin="round"/>
<path d="M631.461 100.387H681.461L651.461 130.387H601.461L631.461 100.387Z" fill="url(#paint27_linear_444_710)"/>
<path d="M681.814 100.741C681.957 100.598 682 100.382 681.923 100.196C681.845 100.009 681.663 99.887 681.461 99.887H631.461C631.328 99.887 631.201 99.9396 631.107 100.033L601.107 130.033C600.964 130.176 600.922 130.391 600.999 130.578C601.076 130.765 601.259 130.887 601.461 130.887H651.461C651.594 130.887 651.721 130.834 651.814 130.741L681.814 100.741Z" stroke="black" stroke-opacity="0.25" stroke-linejoin="round"/>
<path d="M631.461 50.387V100.387L601.461 130.387V80.387L631.461 50.387Z" fill="url(#paint28_linear_444_710)"/>
<path d="M631.814 100.741C631.908 100.647 631.961 100.52 631.961 100.387V50.387C631.961 50.1847 631.839 50.0024 631.652 49.925C631.465 49.8476 631.25 49.8904 631.107 50.0334L601.107 80.0334C601.014 80.1272 600.961 80.2544 600.961 80.387V130.387C600.961 130.589 601.083 130.772 601.27 130.849C601.456 130.926 601.671 130.884 601.814 130.741L631.814 100.741Z" stroke="black" stroke-opacity="0.25" stroke-linejoin="round"/>
<path d="M831.461 300.387V250.387L801.461 280.387V330.387L831.461 300.387Z" fill="url(#paint29_linear_444_710)"/>
<path d="M831.961 250.387C831.961 250.185 831.839 250.002 831.652 249.925C831.465 249.848 831.25 249.89 831.107 250.033L801.107 280.033C801.014 280.127 800.961 280.254 800.961 280.387V330.387C800.961 330.589 801.083 330.772 801.27 330.849C801.456 330.926 801.671 330.884 801.814 330.741L831.814 300.741C831.908 300.647 831.961 300.52 831.961 300.387V250.387Z" stroke="black" stroke-opacity="0.25" stroke-linejoin="round"/>
<path d="M781.461 300.387H831.461L801.461 330.387H751.461L781.461 300.387Z" fill="url(#paint30_linear_444_710)"/>
<path d="M831.814 300.741C831.957 300.598 832 300.382 831.923 300.196C831.845 300.009 831.663 299.887 831.461 299.887H781.461C781.328 299.887 781.201 299.94 781.107 300.033L751.107 330.033C750.964 330.176 750.922 330.391 750.999 330.578C751.076 330.765 751.259 330.887 751.461 330.887H801.461C801.594 330.887 801.721 330.834 801.814 330.741L831.814 300.741Z" stroke="black" stroke-opacity="0.25" stroke-linejoin="round"/>
<path d="M681.461 100.387V250.387L651.461 280.387V130.387L681.461 100.387Z" fill="url(#paint31_linear_444_710)"/>
<path d="M681.814 250.741C681.908 250.647 681.961 250.52 681.961 250.387V100.387C681.961 100.185 681.839 100.002 681.652 99.925C681.465 99.8476 681.25 99.8904 681.107 100.033L651.107 130.033C651.014 130.127 650.961 130.254 650.961 130.387V280.387C650.961 280.589 651.083 280.772 651.27 280.849C651.456 280.926 651.671 280.884 651.814 280.741L681.814 250.741Z" stroke="black" stroke-opacity="0.25" stroke-linejoin="round"/>
<path d="M681.461 250.387H731.461L701.461 280.387H651.461L681.461 250.387Z" fill="url(#paint32_linear_444_710)"/>
<path d="M731.814 250.741C731.957 250.598 732 250.382 731.923 250.196C731.845 250.009 731.663 249.887 731.461 249.887H681.461C681.328 249.887 681.201 249.94 681.107 250.033L651.107 280.033C650.964 280.176 650.922 280.391 650.999 280.578C651.076 280.765 651.259 280.887 651.461 280.887H701.461C701.594 280.887 701.721 280.834 701.814 280.741L731.814 250.741Z" stroke="black" stroke-opacity="0.25" stroke-linejoin="round"/>
<path d="M681.461 300.387V250.387L651.461 280.387V330.387L681.461 300.387Z" fill="url(#paint33_linear_444_710)"/>
<path d="M681.961 250.387C681.961 250.185 681.839 250.002 681.652 249.925C681.465 249.848 681.25 249.89 681.107 250.033L651.107 280.033C651.014 280.127 650.961 280.254 650.961 280.387V330.387C650.961 330.589 651.083 330.772 651.27 330.849C651.456 330.926 651.671 330.884 651.814 330.741L681.814 300.741C681.908 300.647 681.961 300.52 681.961 300.387V250.387Z" stroke="black" stroke-opacity="0.25" stroke-linejoin="round"/>
<path d="M681.461 250.387H581.461L551.461 280.387H651.461L681.461 250.387Z" fill="url(#paint34_linear_444_710)"/>
<path d="M581.461 249.887C581.328 249.887 581.201 249.94 581.107 250.033L551.107 280.033C550.964 280.176 550.922 280.391 550.999 280.578C551.076 280.765 551.259 280.887 551.461 280.887H651.461C651.594 280.887 651.721 280.834 651.814 280.741L681.814 250.741C681.957 250.598 682 250.382 681.923 250.196C681.845 250.009 681.663 249.887 681.461 249.887H581.461Z" stroke="black" stroke-opacity="0.25" stroke-linejoin="round"/>
<path d="M431.461 100.387V50.387L401.461 80.387V130.387L431.461 100.387Z" fill="url(#paint35_linear_444_710)"/>
<path d="M431.961 50.387C431.961 50.1847 431.839 50.0024 431.652 49.925C431.465 49.8476 431.25 49.8904 431.107 50.0334L401.107 80.0334C401.014 80.1272 400.961 80.2544 400.961 80.387V130.387C400.961 130.589 401.083 130.772 401.27 130.849C401.456 130.926 401.671 130.884 401.814 130.741L431.814 100.741C431.908 100.647 431.961 100.52 431.961 100.387V50.387Z" stroke="black" stroke-opacity="0.25" stroke-linejoin="round"/>
<path d="M481.461 100.387H431.461L401.461 130.387H451.461L481.461 100.387Z" fill="url(#paint36_linear_444_710)"/>
<path d="M431.461 99.887C431.328 99.887 431.201 99.9396 431.107 100.033L401.107 130.033C400.964 130.176 400.922 130.391 400.999 130.578C401.076 130.765 401.259 130.887 401.461 130.887H451.461C451.594 130.887 451.721 130.834 451.814 130.741L481.814 100.741C481.957 100.598 482 100.382 481.923 100.196C481.845 100.009 481.663 99.887 481.461 99.887H431.461Z" stroke="black" stroke-opacity="0.25" stroke-linejoin="round"/>
<path d="M581.461 200.387H531.461L501.461 230.387H551.461L581.461 200.387Z" fill="url(#paint37_linear_444_710)"/>
<path d="M531.461 199.887C531.328 199.887 531.201 199.94 531.107 200.033L501.107 230.033C500.964 230.176 500.922 230.391 500.999 230.578C501.076 230.765 501.259 230.887 501.461 230.887H551.461C551.594 230.887 551.721 230.834 551.814 230.741L581.814 200.741C581.957 200.598 582 200.382 581.923 200.196C581.845 200.009 581.663 199.887 581.461 199.887H531.461Z" stroke="black" stroke-opacity="0.25" stroke-linejoin="round"/>
<path d="M581.461 250.387V200.387L551.461 230.387V280.387L581.461 250.387Z" fill="url(#paint38_linear_444_710)"/>
<path d="M581.961 200.387C581.961 200.185 581.839 200.002 581.652 199.925C581.465 199.848 581.25 199.89 581.107 200.033L551.107 230.033C551.014 230.127 550.961 230.254 550.961 230.387V280.387C550.961 280.589 551.083 280.772 551.27 280.849C551.456 280.926 551.671 280.884 551.814 280.741L581.814 250.741C581.908 250.647 581.961 250.52 581.961 250.387V200.387Z" stroke="black" stroke-opacity="0.25" stroke-linejoin="round"/>
<path d="M431.461 50.387H331.461L301.461 80.387H401.461L431.461 50.387Z" fill="url(#paint39_linear_444_710)"/>
<path d="M331.461 49.887C331.328 49.887 331.201 49.9396 331.107 50.0334L301.107 80.0334C300.964 80.1764 300.922 80.3915 300.999 80.5783C301.076 80.7651 301.259 80.887 301.461 80.887H401.461C401.594 80.887 401.721 80.8343 401.814 80.7405L431.814 50.7405C431.957 50.5975 432 50.3825 431.923 50.1956C431.845 50.0088 431.663 49.887 431.461 49.887H331.461Z" stroke="black" stroke-opacity="0.25" stroke-linejoin="round"/>
<path d="M581.461 300.387H681.461L651.461 330.387H551.461L581.461 300.387Z" fill="url(#paint40_linear_444_710)"/>
<path d="M681.814 300.741C681.957 300.598 682 300.382 681.923 300.196C681.845 300.009 681.663 299.887 681.461 299.887H581.461C581.328 299.887 581.201 299.94 581.107 300.033L551.107 330.033C550.964 330.176 550.922 330.391 550.999 330.578C551.076 330.765 551.259 330.887 551.461 330.887H651.461C651.594 330.887 651.721 330.834 651.814 330.741L681.814 300.741Z" stroke="black" stroke-opacity="0.25" stroke-linejoin="round"/>
<path d="M531.461 250.387H581.461L551.461 280.387H501.461L531.461 250.387Z" fill="url(#paint41_linear_444_710)"/>
<path d="M581.814 250.741C581.957 250.598 582 250.382 581.923 250.196C581.845 250.009 581.663 249.887 581.461 249.887H531.461C531.328 249.887 531.201 249.94 531.107 250.033L501.107 280.033C500.964 280.176 500.922 280.391 500.999 280.578C501.076 280.765 501.259 280.887 501.461 280.887H551.461C551.594 280.887 551.721 280.834 551.814 280.741L581.814 250.741Z" stroke="black" stroke-opacity="0.25" stroke-linejoin="round"/>
<path d="M531.461 200.387V250.387L501.461 280.387V230.387L531.461 200.387Z" fill="url(#paint42_linear_444_710)"/>
<path d="M531.814 250.741C531.908 250.647 531.961 250.52 531.961 250.387V200.387C531.961 200.185 531.839 200.002 531.652 199.925C531.465 199.848 531.25 199.89 531.107 200.033L501.107 230.033C501.014 230.127 500.961 230.254 500.961 230.387V280.387C500.961 280.589 501.083 280.772 501.27 280.849C501.456 280.926 501.671 280.884 501.814 280.741L531.814 250.741Z" stroke="black" stroke-opacity="0.25" stroke-linejoin="round"/>
<path d="M581.461 250.387V300.387L551.461 330.387V280.387L581.461 250.387Z" fill="url(#paint43_linear_444_710)"/>
<path d="M581.814 300.741C581.908 300.647 581.961 300.52 581.961 300.387V250.387C581.961 250.185 581.839 250.002 581.652 249.925C581.465 249.848 581.25 249.89 581.107 250.033L551.107 280.033C551.014 280.127 550.961 280.254 550.961 280.387V330.387C550.961 330.589 551.083 330.772 551.27 330.849C551.456 330.926 551.671 330.884 551.814 330.741L581.814 300.741Z" stroke="black" stroke-opacity="0.25" stroke-linejoin="round"/>
<path d="M481.461 300.387V100.387L451.461 130.387V330.387L481.461 300.387Z" fill="url(#paint44_linear_444_710)"/>
<path d="M481.961 100.387C481.961 100.185 481.839 100.002 481.652 99.925C481.465 99.8476 481.25 99.8904 481.107 100.033L451.107 130.033C451.014 130.127 450.961 130.254 450.961 130.387V330.387C450.961 330.589 451.083 330.772 451.27 330.849C451.456 330.926 451.671 330.884 451.814 330.741L481.814 300.741C481.908 300.647 481.961 300.52 481.961 300.387V100.387Z" stroke="black" stroke-opacity="0.25" stroke-linejoin="round"/>
<path d="M431.461 100.787V200.387L401.461 230.387V130.787L431.461 100.787Z" fill="url(#paint45_linear_444_710)"/>
<path d="M431.814 200.74C431.908 200.647 431.961 200.519 431.961 200.387V100.787C431.961 100.585 431.839 100.402 431.652 100.325C431.465 100.248 431.25 100.29 431.107 100.433L401.107 130.433C401.014 130.527 400.961 130.654 400.961 130.787V230.387C400.961 230.589 401.083 230.771 401.27 230.849C401.456 230.926 401.671 230.883 401.814 230.74L431.814 200.74Z" stroke="black" stroke-opacity="0.25" stroke-linejoin="round"/>
<path d="M331.461 100.787H431.461L401.461 130.787H301.461L331.461 100.787Z" fill="url(#paint46_linear_444_710)"/>
<path d="M431.814 101.14C431.957 100.997 432 100.782 431.923 100.596C431.845 100.409 431.663 100.287 431.461 100.287H331.461C331.328 100.287 331.201 100.34 331.107 100.433L301.107 130.433C300.964 130.576 300.922 130.791 300.999 130.978C301.076 131.165 301.259 131.287 301.461 131.287H401.461C401.594 131.287 401.721 131.234 401.814 131.14L431.814 101.14Z" stroke="black" stroke-opacity="0.25" stroke-linejoin="round"/>
<path d="M331.461 50.387V100.387L301.461 130.387V80.387L331.461 50.387Z" fill="url(#paint47_linear_444_710)"/>
<path d="M331.814 100.741C331.908 100.647 331.961 100.52 331.961 100.387V50.387C331.961 50.1847 331.839 50.0024 331.652 49.925C331.465 49.8476 331.25 49.8904 331.107 50.0334L301.107 80.0334C301.014 80.1272 300.961 80.2544 300.961 80.387V130.387C300.961 130.589 301.083 130.772 301.27 130.849C301.456 130.926 301.671 130.884 301.814 130.741L331.814 100.741Z" stroke="black" stroke-opacity="0.25" stroke-linejoin="round"/>
<path d="M331.461 100.387H281.461L251.461 130.387H301.461L331.461 100.387Z" fill="url(#paint48_linear_444_710)"/>
<path d="M281.461 99.887C281.328 99.887 281.201 99.9396 281.107 100.033L251.107 130.033C250.964 130.176 250.922 130.391 250.999 130.578C251.076 130.765 251.259 130.887 251.461 130.887H301.461C301.594 130.887 301.721 130.834 301.814 130.741L331.814 100.741C331.957 100.598 332 100.382 331.923 100.196C331.845 100.009 331.663 99.887 331.461 99.887H281.461Z" stroke="black" stroke-opacity="0.25" stroke-linejoin="round"/>
<path d="M431.461 200.387H331.461L301.461 230.387H401.461L431.461 200.387Z" fill="url(#paint49_linear_444_710)"/>
<path d="M331.461 199.887C331.328 199.887 331.201 199.94 331.107 200.033L301.107 230.033C300.964 230.176 300.922 230.391 300.999 230.578C301.076 230.765 301.259 230.887 301.461 230.887H401.461C401.594 230.887 401.721 230.834 401.814 230.741L431.814 200.741C431.957 200.598 432 200.382 431.923 200.196C431.845 200.009 431.663 199.887 431.461 199.887H331.461Z" stroke="black" stroke-opacity="0.25" stroke-linejoin="round"/>
<path d="M331.461 200.387V100.787L301.461 130.787V230.387L331.461 200.387Z" fill="url(#paint50_linear_444_710)"/>
<path d="M331.961 100.787C331.961 100.585 331.839 100.402 331.652 100.325C331.465 100.248 331.25 100.29 331.107 100.433L301.107 130.433C301.014 130.527 300.961 130.654 300.961 130.787V230.387C300.961 230.589 301.083 230.771 301.27 230.849C301.456 230.926 301.671 230.883 301.814 230.74L331.814 200.74C331.908 200.647 331.961 200.519 331.961 200.387V100.787Z" stroke="black" stroke-opacity="0.25" stroke-linejoin="round"/>
<path d="M231.461 50.387H181.461L151.461 80.387H201.461L231.461 50.387Z" fill="url(#paint51_linear_444_710)"/>
<path d="M181.461 49.887C181.328 49.887 181.201 49.9396 181.107 50.0334L151.107 80.0334C150.964 80.1764 150.922 80.3915 150.999 80.5783C151.076 80.7651 151.259 80.887 151.461 80.887H201.461C201.594 80.887 201.721 80.8343 201.814 80.7405L231.814 50.7405C231.957 50.5975 232 50.3825 231.923 50.1956C231.845 50.0088 231.663 49.887 231.461 49.887H181.461Z" stroke="black" stroke-opacity="0.25" stroke-linejoin="round"/>
<path d="M231.461 100.387V50.387L201.461 80.387V130.387L231.461 100.387Z" fill="url(#paint52_linear_444_710)"/>
<path d="M231.961 50.387C231.961 50.1847 231.839 50.0024 231.652 49.925C231.465 49.8476 231.25 49.8904 231.107 50.0334L201.107 80.0334C201.014 80.1272 200.961 80.2544 200.961 80.387V130.387C200.961 130.589 201.083 130.772 201.27 130.849C201.456 130.926 201.671 130.884 201.814 130.741L231.814 100.741C231.908 100.647 231.961 100.52 231.961 100.387V50.387Z" stroke="black" stroke-opacity="0.25" stroke-linejoin="round"/>
<path d="M431.461 300.387H481.461L451.461 330.387H401.461L431.461 300.387Z" fill="url(#paint53_linear_444_710)"/>
<path d="M481.814 300.741C481.957 300.598 482 300.382 481.923 300.196C481.845 300.009 481.663 299.887 481.461 299.887H431.461C431.328 299.887 431.201 299.94 431.107 300.033L401.107 330.033C400.964 330.176 400.922 330.391 400.999 330.578C401.076 330.765 401.259 330.887 401.461 330.887H451.461C451.594 330.887 451.721 330.834 451.814 330.741L481.814 300.741Z" stroke="black" stroke-opacity="0.25" stroke-linejoin="round"/>
<path d="M431.461 250.387V300.387L401.461 330.387V280.387L431.461 250.387Z" fill="url(#paint54_linear_444_710)"/>
<path d="M431.814 300.741C431.908 300.647 431.961 300.52 431.961 300.387V250.387C431.961 250.185 431.839 250.002 431.652 249.925C431.465 249.848 431.25 249.89 431.107 250.033L401.107 280.033C401.014 280.127 400.961 280.254 400.961 280.387V330.387C400.961 330.589 401.083 330.772 401.27 330.849C401.456 330.926 401.671 330.884 401.814 330.741L431.814 300.741Z" stroke="black" stroke-opacity="0.25" stroke-linejoin="round"/>
<path d="M331.461 250.387H431.461L401.461 280.387H301.461L331.461 250.387Z" fill="url(#paint55_linear_444_710)"/>
<path d="M431.814 250.741C431.957 250.598 432 250.382 431.923 250.196C431.845 250.009 431.663 249.887 431.461 249.887H331.461C331.328 249.887 331.201 249.94 331.107 250.033L301.107 280.033C300.964 280.176 300.922 280.391 300.999 280.578C301.076 280.765 301.259 280.887 301.461 280.887H401.461C401.594 280.887 401.721 280.834 401.814 280.741L431.814 250.741Z" stroke="black" stroke-opacity="0.25" stroke-linejoin="round"/>
<path d="M181.461 50.387V100.387L151.461 130.387V80.387L181.461 50.387Z" fill="url(#paint56_linear_444_710)"/>
<path d="M181.814 100.741C181.908 100.647 181.961 100.52 181.961 100.387V50.387C181.961 50.1847 181.839 50.0024 181.652 49.925C181.465 49.8476 181.25 49.8904 181.107 50.0334L151.107 80.0334C151.014 80.1272 150.961 80.2544 150.961 80.387V130.387C150.961 130.589 151.083 130.772 151.27 130.849C151.456 130.926 151.671 130.884 151.814 130.741L181.814 100.741Z" stroke="black" stroke-opacity="0.25" stroke-linejoin="round"/>
<path d="M181.461 100.387H231.461L201.461 130.387H151.461L181.461 100.387Z" fill="url(#paint57_linear_444_710)"/>
<path d="M231.814 100.741C231.957 100.598 232 100.382 231.923 100.196C231.845 100.009 231.663 99.887 231.461 99.887H181.461C181.328 99.887 181.201 99.9396 181.107 100.033L151.107 130.033C150.964 130.176 150.922 130.391 150.999 130.578C151.076 130.765 151.259 130.887 151.461 130.887H201.461C201.594 130.887 201.721 130.834 201.814 130.741L231.814 100.741Z" stroke="black" stroke-opacity="0.25" stroke-linejoin="round"/>
<path d="M281.461 100.387V300.387L251.461 330.387V130.387L281.461 100.387Z" fill="url(#paint58_linear_444_710)"/>
<path d="M281.814 300.741C281.908 300.647 281.961 300.52 281.961 300.387V100.387C281.961 100.185 281.839 100.002 281.652 99.925C281.465 99.8476 281.25 99.8904 281.107 100.033L251.107 130.033C251.014 130.127 250.961 130.254 250.961 130.387V330.387C250.961 330.589 251.083 330.772 251.27 330.849C251.456 330.926 251.671 330.884 251.814 330.741L281.814 300.741Z" stroke="black" stroke-opacity="0.25" stroke-linejoin="round"/>
<path d="M181.461 150.387V100.387L151.461 130.387V180.387L181.461 150.387Z" fill="url(#paint59_linear_444_710)"/>
<path d="M181.961 100.387C181.961 100.185 181.839 100.002 181.652 99.925C181.465 99.8476 181.25 99.8904 181.107 100.033L151.107 130.033C151.014 130.127 150.961 130.254 150.961 130.387V180.387C150.961 180.589 151.083 180.771 151.27 180.849C151.456 180.926 151.671 180.883 151.814 180.741L181.814 150.741C181.908 150.647 181.961 150.52 181.961 150.387V100.387Z" stroke="black" stroke-opacity="0.25" stroke-linejoin="round"/>
<path d="M181.461 100.387H131.461L101.461 130.387H151.461L181.461 100.387Z" fill="url(#paint60_linear_444_710)"/>
<path d="M131.461 99.887C131.328 99.887 131.201 99.9396 131.107 100.033L101.107 130.033C100.964 130.176 100.922 130.391 100.999 130.578C101.076 130.765 101.259 130.887 101.461 130.887H151.461C151.594 130.887 151.721 130.834 151.815 130.741L181.815 100.741C181.958 100.598 182 100.382 181.923 100.196C181.846 100.009 181.663 99.887 181.461 99.887H131.461Z" stroke="black" stroke-opacity="0.25" stroke-linejoin="round"/>
<path d="M331.461 300.387V250.387L301.461 280.387V330.387L331.461 300.387Z" fill="url(#paint61_linear_444_710)"/>
<path d="M331.961 250.387C331.961 250.185 331.839 250.002 331.652 249.925C331.465 249.848 331.25 249.89 331.107 250.033L301.107 280.033C301.014 280.127 300.961 280.254 300.961 280.387V330.387C300.961 330.589 301.083 330.772 301.27 330.849C301.456 330.926 301.671 330.884 301.814 330.741L331.814 300.741C331.908 300.647 331.961 300.52 331.961 300.387V250.387Z" stroke="black" stroke-opacity="0.25" stroke-linejoin="round"/>
<path d="M131.461 150.387H181.461L151.461 180.387H101.461L131.461 150.387Z" fill="url(#paint62_linear_444_710)"/>
<path d="M181.815 150.741C181.958 150.598 182 150.382 181.923 150.196C181.846 150.009 181.663 149.887 181.461 149.887H131.461C131.328 149.887 131.201 149.94 131.107 150.033L101.107 180.033C100.964 180.176 100.922 180.391 100.999 180.578C101.076 180.765 101.259 180.887 101.461 180.887H151.461C151.594 180.887 151.721 180.834 151.815 180.741L181.815 150.741Z" stroke="black" stroke-opacity="0.25" stroke-linejoin="round"/>
<path d="M131.461 100.387V150.387L101.461 180.387V130.387L131.461 100.387Z" fill="url(#paint63_linear_444_710)"/>
<path d="M131.814 150.741C131.908 150.647 131.961 150.52 131.961 150.387V100.387C131.961 100.185 131.839 100.002 131.652 99.925C131.465 99.8476 131.25 99.8904 131.107 100.033L101.107 130.033C101.014 130.127 100.961 130.254 100.961 130.387V180.387C100.961 180.589 101.083 180.771 101.27 180.849C101.456 180.926 101.671 180.883 101.814 180.741L131.814 150.741Z" stroke="black" stroke-opacity="0.25" stroke-linejoin="round"/>
<path d="M81.4609 50.387H31.4609L1.46094 80.387H51.4609L81.4609 50.387Z" fill="url(#paint64_linear_444_710)"/>
<path d="M31.4609 49.887C31.3283 49.887 31.2012 49.9396 31.1074 50.0334L1.10738 80.0334C0.964385 80.1764 0.921607 80.3915 0.998998 80.5783C1.07639 80.7651 1.25871 80.887 1.46094 80.887H51.4609C51.5935 80.887 51.7207 80.8343 51.8145 80.7405L81.8145 50.7405C81.9575 50.5975 82.0003 50.3825 81.9229 50.1956C81.8455 50.0088 81.6632 49.887 81.4609 49.887H31.4609Z" stroke="black" stroke-opacity="0.25" stroke-linejoin="round"/>
<path d="M281.461 300.387H331.461L301.461 330.387H251.461L281.461 300.387Z" fill="url(#paint65_linear_444_710)"/>
<path d="M331.814 300.741C331.957 300.598 332 300.382 331.923 300.196C331.845 300.009 331.663 299.887 331.461 299.887H281.461C281.328 299.887 281.201 299.94 281.107 300.033L251.107 330.033C250.964 330.176 250.922 330.391 250.999 330.578C251.076 330.765 251.259 330.887 251.461 330.887H301.461C301.594 330.887 301.721 330.834 301.814 330.741L331.814 300.741Z" stroke="black" stroke-opacity="0.25" stroke-linejoin="round"/>
<path d="M81.4609 150.387V50.387L51.4609 80.387V180.387L81.4609 150.387Z" fill="url(#paint66_linear_444_710)"/>
<path d="M81.9609 50.387C81.9609 50.1847 81.8391 50.0024 81.6523 49.925C81.4654 49.8476 81.2504 49.8904 81.1074 50.0334L51.1074 80.0334C51.0136 80.1272 50.9609 80.2544 50.9609 80.387V180.387C50.9609 180.589 51.0828 180.771 51.2696 180.849C51.4564 180.926 51.6715 180.883 51.8145 180.74L81.8145 150.741C81.9083 150.647 81.9609 150.52 81.9609 150.387V50.387Z" stroke="black" stroke-opacity="0.25" stroke-linejoin="round"/>
<path d="M131.461 150.387H81.4609L51.4609 180.387H101.461L131.461 150.387Z" fill="url(#paint67_linear_444_710)"/>
<path d="M81.4609 149.887C81.3283 149.887 81.2012 149.94 81.1074 150.033L51.1074 180.033C50.9644 180.176 50.9216 180.391 50.999 180.578C51.0764 180.765 51.2587 180.887 51.4609 180.887H101.461C101.594 180.887 101.721 180.834 101.814 180.741L131.814 150.741C131.957 150.598 132 150.382 131.923 150.196C131.845 150.009 131.663 149.887 131.461 149.887H81.4609Z" stroke="black" stroke-opacity="0.25" stroke-linejoin="round"/>
<path d="M181.461 250.387V200.387L151.461 230.387V280.387L181.461 250.387Z" fill="url(#paint68_linear_444_710)"/>
<path d="M181.961 200.387C181.961 200.185 181.839 200.002 181.652 199.925C181.465 199.848 181.25 199.89 181.107 200.033L151.107 230.033C151.014 230.127 150.961 230.254 150.961 230.387V280.387C150.961 280.589 151.083 280.772 151.27 280.849C151.456 280.926 151.671 280.884 151.814 280.741L181.814 250.741C181.908 250.647 181.961 250.52 181.961 250.387V200.387Z" stroke="black" stroke-opacity="0.25" stroke-linejoin="round"/>
<path d="M181.461 200.387H131.461L101.461 230.387H151.461L181.461 200.387Z" fill="url(#paint69_linear_444_710)"/>
<path d="M131.461 199.887C131.328 199.887 131.201 199.94 131.107 200.033L101.107 230.033C100.964 230.176 100.922 230.391 100.999 230.578C101.076 230.765 101.259 230.887 101.461 230.887H151.461C151.594 230.887 151.721 230.834 151.815 230.741L181.815 200.741C181.958 200.598 182 200.382 181.923 200.196C181.846 200.009 181.663 199.887 181.461 199.887H131.461Z" stroke="black" stroke-opacity="0.25" stroke-linejoin="round"/>
<path d="M131.461 200.387V150.387L101.461 180.387V230.387L131.461 200.387Z" fill="url(#paint70_linear_444_710)"/>
<path d="M131.961 150.387C131.961 150.185 131.839 150.002 131.652 149.925C131.465 149.848 131.25 149.89 131.107 150.033L101.107 180.033C101.014 180.127 100.961 180.254 100.961 180.387V230.387C100.961 230.589 101.083 230.772 101.27 230.849C101.456 230.926 101.671 230.884 101.814 230.741L131.814 200.741C131.908 200.647 131.961 200.52 131.961 200.387V150.387Z" stroke="black" stroke-opacity="0.25" stroke-linejoin="round"/>
<path d="M231.461 250.387H181.461L151.461 280.387H201.461L231.461 250.387Z" fill="url(#paint71_linear_444_710)"/>
<path d="M181.461 249.887C181.328 249.887 181.201 249.94 181.107 250.033L151.107 280.033C150.964 280.176 150.922 280.391 150.999 280.578C151.076 280.765 151.259 280.887 151.461 280.887H201.461C201.594 280.887 201.721 280.834 201.814 280.741L231.814 250.741C231.957 250.598 232 250.382 231.923 250.196C231.845 250.009 231.663 249.887 231.461 249.887H181.461Z" stroke="black" stroke-opacity="0.25" stroke-linejoin="round"/>
<path d="M231.461 300.387V250.387L201.461 280.387V330.387L231.461 300.387Z" fill="url(#paint72_linear_444_710)"/>
<path d="M231.961 250.387C231.961 250.185 231.839 250.002 231.652 249.925C231.465 249.848 231.25 249.89 231.107 250.033L201.107 280.033C201.014 280.127 200.961 280.254 200.961 280.387V330.387C200.961 330.589 201.083 330.772 201.27 330.849C201.456 330.926 201.671 330.884 201.814 330.741L231.814 300.741C231.908 300.647 231.961 300.52 231.961 300.387V250.387Z" stroke="black" stroke-opacity="0.25" stroke-linejoin="round"/>
<path d="M181.461 250.387V300.387L151.461 330.387V280.387L181.461 250.387Z" fill="url(#paint73_linear_444_710)"/>
<path d="M181.814 300.741C181.908 300.647 181.961 300.52 181.961 300.387V250.387C181.961 250.185 181.839 250.002 181.652 249.925C181.465 249.848 181.25 249.89 181.107 250.033L151.107 280.033C151.014 280.127 150.961 280.254 150.961 280.387V330.387C150.961 330.589 151.083 330.772 151.27 330.849C151.456 330.926 151.671 330.884 151.814 330.741L181.814 300.741Z" stroke="black" stroke-opacity="0.25" stroke-linejoin="round"/>
<path d="M131.461 250.387H181.461L151.461 280.387H101.461L131.461 250.387Z" fill="url(#paint74_linear_444_710)"/>
<path d="M181.815 250.741C181.958 250.598 182 250.382 181.923 250.196C181.846 250.009 181.663 249.887 181.461 249.887H131.461C131.328 249.887 131.201 249.94 131.107 250.033L101.107 280.033C100.964 280.176 100.922 280.391 100.999 280.578C101.076 280.765 101.259 280.887 101.461 280.887H151.461C151.594 280.887 151.721 280.834 151.815 280.741L181.815 250.741Z" stroke="black" stroke-opacity="0.25" stroke-linejoin="round"/>
<path d="M181.461 300.387H231.461L201.461 330.387H151.461L181.461 300.387Z" fill="url(#paint75_linear_444_710)"/>
<path d="M231.814 300.741C231.957 300.598 232 300.382 231.923 300.196C231.845 300.009 231.663 299.887 231.461 299.887H181.461C181.328 299.887 181.201 299.94 181.107 300.033L151.107 330.033C150.964 330.176 150.922 330.391 150.999 330.578C151.076 330.765 151.259 330.887 151.461 330.887H201.461C201.594 330.887 201.721 330.834 201.814 330.741L231.814 300.741Z" stroke="black" stroke-opacity="0.25" stroke-linejoin="round"/>
<path d="M81.4609 200.387H131.461L101.461 230.387H51.4609L81.4609 200.387Z" fill="url(#paint76_linear_444_710)"/>
<path d="M131.814 200.741C131.957 200.598 132 200.382 131.923 200.196C131.845 200.009 131.663 199.887 131.461 199.887H81.4609C81.3283 199.887 81.2012 199.94 81.1074 200.033L51.1074 230.033C50.9644 230.176 50.9216 230.391 50.999 230.578C51.0764 230.765 51.2587 230.887 51.4609 230.887H101.461C101.594 230.887 101.721 230.834 101.814 230.741L131.814 200.741Z" stroke="black" stroke-opacity="0.25" stroke-linejoin="round"/>
<path d="M131.461 200.387V250.387L101.461 280.387V230.387L131.461 200.387Z" fill="url(#paint77_linear_444_710)"/>
<path d="M131.814 250.741C131.908 250.647 131.961 250.52 131.961 250.387V200.387C131.961 200.185 131.839 200.002 131.652 199.925C131.465 199.848 131.25 199.89 131.107 200.033L101.107 230.033C101.014 230.127 100.961 230.254 100.961 230.387V280.387C100.961 280.589 101.083 280.772 101.27 280.849C101.456 280.926 101.671 280.884 101.814 280.741L131.814 250.741Z" stroke="black" stroke-opacity="0.25" stroke-linejoin="round"/>
<path d="M31.4609 50.387V300.387L1.46094 330.387V80.387L31.4609 50.387Z" fill="url(#paint78_linear_444_710)"/>
<path d="M31.8145 300.741C31.9083 300.647 31.9609 300.52 31.9609 300.387V50.387C31.9609 50.1847 31.8391 50.0024 31.6523 49.925C31.4654 49.8476 31.2504 49.8904 31.1074 50.0334L1.10738 80.0334C1.01362 80.1272 0.960938 80.2544 0.960938 80.387V330.387C0.960938 330.589 1.08276 330.772 1.2696 330.849C1.45643 330.926 1.67149 330.884 1.81449 330.741L31.8145 300.741Z" stroke="black" stroke-opacity="0.25" stroke-linejoin="round"/>
<path d="M81.4609 300.387V200.387L51.4609 230.387V330.387L81.4609 300.387Z" fill="url(#paint79_linear_444_710)"/>
<path d="M81.9609 200.387C81.9609 200.185 81.8391 200.002 81.6523 199.925C81.4654 199.848 81.2504 199.89 81.1074 200.033L51.1074 230.033C51.0136 230.127 50.9609 230.254 50.9609 230.387V330.387C50.9609 330.589 51.0828 330.772 51.2696 330.849C51.4564 330.926 51.6715 330.884 51.8145 330.741L81.8145 300.741C81.9083 300.647 81.9609 300.52 81.9609 300.387V200.387Z" stroke="black" stroke-opacity="0.25" stroke-linejoin="round"/>
<path d="M31.4609 300.387H81.4609L51.4609 330.387H1.46094L31.4609 300.387Z" fill="url(#paint80_linear_444_710)"/>
<path d="M81.8145 300.741C81.9575 300.598 82.0003 300.382 81.9229 300.196C81.8455 300.009 81.6632 299.887 81.4609 299.887H31.4609C31.3283 299.887 31.2012 299.94 31.1074 300.033L1.10738 330.033C0.964385 330.176 0.921607 330.391 0.998998 330.578C1.07639 330.765 1.25871 330.887 1.46094 330.887H51.4609C51.5935 330.887 51.7207 330.834 51.8145 330.741L81.8145 300.741Z" stroke="black" stroke-opacity="0.25" stroke-linejoin="round"/>
<path d="M81.4609 50.387V150.387H131.461V200.387H81.4609V300.387H31.4609V50.387H81.4609ZM181.461 100.387V50.387H231.461V100.387H181.461ZM131.461 150.387V100.387H181.461V150.387H131.461ZM181.461 250.387H131.461V200.387H181.461V250.387ZM231.461 300.387H181.461V250.387H231.461V300.387ZM331.461 100.387V50.387H431.461V100.387H481.461V300.387H431.461V250.387H331.461V300.387H281.461V100.387H331.461ZM431.461 200.387V100.787H331.461V200.387H431.461ZM631.461 50.387H731.461V250.387H681.461V100.387H631.461V50.387ZM531.461 200.387H581.461V250.387H531.461V200.387ZM581.461 250.387H681.461V300.387H581.461V250.387ZM831.461 100.387V50.387H931.461V100.387H981.461V300.387H931.461V250.387H831.461V300.387H781.461V100.387H831.461ZM931.461 200.387V100.787H831.461V200.387H931.461ZM1181.46 300.387H1031.46V50.387H1081.46V250.387H1181.46V300.387Z" fill="url(#paint81_linear_444_710)"/>
<path d="M81.4609 50.387H82.4609V49.387H81.4609V50.387ZM81.4609 150.387H80.4609V151.387H81.4609V150.387ZM131.461 150.387H132.461V149.387H131.461V150.387ZM131.461 200.387V201.387H132.461V200.387H131.461ZM81.4609 200.387V199.387H80.4609V200.387H81.4609ZM81.4609 300.387V301.387H82.4609V300.387H81.4609ZM31.4609 300.387H30.4609V301.387H31.4609V300.387ZM31.4609 50.387V49.387H30.4609V50.387H31.4609ZM181.461 100.387H180.461V101.387H181.461V100.387ZM181.461 50.387V49.387H180.461V50.387H181.461ZM231.461 50.387H232.461V49.387H231.461V50.387ZM231.461 100.387V101.387H232.461V100.387H231.461ZM131.461 150.387H130.461V151.387H131.461V150.387ZM131.461 100.387V99.387H130.461V100.387H131.461ZM181.461 100.387H182.461V99.387H181.461V100.387ZM181.461 150.387V151.387H182.461V150.387H181.461ZM181.461 250.387V251.387H182.461V250.387H181.461ZM131.461 250.387H130.461V251.387H131.461V250.387ZM131.461 200.387V199.387H130.461V200.387H131.461ZM181.461 200.387H182.461V199.387H181.461V200.387ZM231.461 300.387V301.387H232.461V300.387H231.461ZM181.461 300.387H180.461V301.387H181.461V300.387ZM181.461 250.387V249.387H180.461V250.387H181.461ZM231.461 250.387H232.461V249.387H231.461V250.387ZM80.4609 50.387V150.387H82.4609V50.387H80.4609ZM81.4609 151.387H131.461V149.387H81.4609V151.387ZM130.461 150.387V200.387H132.461V150.387H130.461ZM131.461 199.387H81.4609V201.387H131.461V199.387ZM80.4609 200.387V300.387H82.4609V200.387H80.4609ZM81.4609 299.387H31.4609V301.387H81.4609V299.387ZM32.4609 300.387V50.387H30.4609V300.387H32.4609ZM31.4609 51.387H81.4609V49.387H31.4609V51.387ZM182.461 100.387V50.387H180.461V100.387H182.461ZM181.461 51.387H231.461V49.387H181.461V51.387ZM230.461 50.387V100.387H232.461V50.387H230.461ZM231.461 99.387H181.461V101.387H231.461V99.387ZM132.461 150.387V100.387H130.461V150.387H132.461ZM131.461 101.387H181.461V99.387H131.461V101.387ZM180.461 100.387V150.387H182.461V100.387H180.461ZM181.461 149.387H131.461V151.387H181.461V149.387ZM181.461 249.387H131.461V251.387H181.461V249.387ZM132.461 250.387V200.387H130.461V250.387H132.461ZM131.461 201.387H181.461V199.387H131.461V201.387ZM180.461 200.387V250.387H182.461V200.387H180.461ZM231.461 299.387H181.461V301.387H231.461V299.387ZM182.461 300.387V250.387H180.461V300.387H182.461ZM181.461 251.387H231.461V249.387H181.461V251.387ZM230.461 250.387V300.387H232.461V250.387H230.461ZM331.461 100.387V101.387H332.461V100.387H331.461ZM331.461 50.387V49.387H330.461V50.387H331.461ZM431.461 50.387H432.461V49.387H431.461V50.387ZM431.461 100.387H430.461V101.387H431.461V100.387ZM481.461 100.387H482.461V99.387H481.461V100.387ZM481.461 300.387V301.387H482.461V300.387H481.461ZM431.461 300.387H430.461V301.387H431.461V300.387ZM431.461 250.387H432.461V249.387H431.461V250.387ZM331.461 250.387V249.387H330.461V250.387H331.461ZM331.461 300.387V301.387H332.461V300.387H331.461ZM281.461 300.387H280.461V301.387H281.461V300.387ZM281.461 100.387V99.387H280.461V100.387H281.461ZM431.461 200.387V201.387H432.461V200.387H431.461ZM431.461 100.787H432.461V99.787H431.461V100.787ZM331.461 100.787V99.787H330.461V100.787H331.461ZM331.461 200.387H330.461V201.387H331.461V200.387ZM332.461 100.387V50.387H330.461V100.387H332.461ZM331.461 51.387H431.461V49.387H331.461V51.387ZM430.461 50.387V100.387H432.461V50.387H430.461ZM431.461 101.387H481.461V99.387H431.461V101.387ZM480.461 100.387V300.387H482.461V100.387H480.461ZM481.461 299.387H431.461V301.387H481.461V299.387ZM432.461 300.387V250.387H430.461V300.387H432.461ZM431.461 249.387H331.461V251.387H431.461V249.387ZM330.461 250.387V300.387H332.461V250.387H330.461ZM331.461 299.387H281.461V301.387H331.461V299.387ZM282.461 300.387V100.387H280.461V300.387H282.461ZM281.461 101.387H331.461V99.387H281.461V101.387ZM432.461 200.387V100.787H430.461V200.387H432.461ZM431.461 99.787H331.461V101.787H431.461V99.787ZM330.461 100.787V200.387H332.461V100.787H330.461ZM331.461 201.387H431.461V199.387H331.461V201.387ZM631.461 50.387V49.387H630.461V50.387H631.461ZM731.461 50.387H732.461V49.387H731.461V50.387ZM731.461 250.387V251.387H732.461V250.387H731.461ZM681.461 250.387H680.461V251.387H681.461V250.387ZM681.461 100.387H682.461V99.387H681.461V100.387ZM631.461 100.387H630.461V101.387H631.461V100.387ZM531.461 200.387V199.387H530.461V200.387H531.461ZM581.461 200.387H582.461V199.387H581.461V200.387ZM581.461 250.387V251.387H582.461V250.387H581.461ZM531.461 250.387H530.461V251.387H531.461V250.387ZM581.461 250.387V249.387H580.461V250.387H581.461ZM681.461 250.387H682.461V249.387H681.461V250.387ZM681.461 300.387V301.387H682.461V300.387H681.461ZM581.461 300.387H580.461V301.387H581.461V300.387ZM631.461 51.387H731.461V49.387H631.461V51.387ZM730.461 50.387V250.387H732.461V50.387H730.461ZM731.461 249.387H681.461V251.387H731.461V249.387ZM682.461 250.387V100.387H680.461V250.387H682.461ZM681.461 99.387H631.461V101.387H681.461V99.387ZM632.461 100.387V50.387H630.461V100.387H632.461ZM531.461 201.387H581.461V199.387H531.461V201.387ZM580.461 200.387V250.387H582.461V200.387H580.461ZM581.461 249.387H531.461V251.387H581.461V249.387ZM532.461 250.387V200.387H530.461V250.387H532.461ZM581.461 251.387H681.461V249.387H581.461V251.387ZM680.461 250.387V300.387H682.461V250.387H680.461ZM681.461 299.387H581.461V301.387H681.461V299.387ZM582.461 300.387V250.387H580.461V300.387H582.461ZM831.461 100.387V101.387H832.461V100.387H831.461ZM831.461 50.387V49.387H830.461V50.387H831.461ZM931.461 50.387H932.461V49.387H931.461V50.387ZM931.461 100.387H930.461V101.387H931.461V100.387ZM981.461 100.387H982.461V99.387H981.461V100.387ZM981.461 300.387V301.387H982.461V300.387H981.461ZM931.461 300.387H930.461V301.387H931.461V300.387ZM931.461 250.387H932.461V249.387H931.461V250.387ZM831.461 250.387V249.387H830.461V250.387H831.461ZM831.461 300.387V301.387H832.461V300.387H831.461ZM781.461 300.387H780.461V301.387H781.461V300.387ZM781.461 100.387V99.387H780.461V100.387H781.461ZM931.461 200.387V201.387H932.461V200.387H931.461ZM931.461 100.787H932.461V99.787H931.461V100.787ZM831.461 100.787V99.787H830.461V100.787H831.461ZM831.461 200.387H830.461V201.387H831.461V200.387ZM832.461 100.387V50.387H830.461V100.387H832.461ZM831.461 51.387H931.461V49.387H831.461V51.387ZM930.461 50.387V100.387H932.461V50.387H930.461ZM931.461 101.387H981.461V99.387H931.461V101.387ZM980.461 100.387V300.387H982.461V100.387H980.461ZM981.461 299.387H931.461V301.387H981.461V299.387ZM932.461 300.387V250.387H930.461V300.387H932.461ZM931.461 249.387H831.461V251.387H931.461V249.387ZM830.461 250.387V300.387H832.461V250.387H830.461ZM831.461 299.387H781.461V301.387H831.461V299.387ZM782.461 300.387V100.387H780.461V300.387H782.461ZM781.461 101.387H831.461V99.387H781.461V101.387ZM932.461 200.387V100.787H930.461V200.387H932.461ZM931.461 99.787H831.461V101.787H931.461V99.787ZM830.461 100.787V200.387H832.461V100.787H830.461ZM831.461 201.387H931.461V199.387H831.461V201.387ZM1181.46 300.387V301.387H1182.46V300.387H1181.46ZM1031.46 300.387H1030.46V301.387H1031.46V300.387ZM1031.46 50.387V49.387H1030.46V50.387H1031.46ZM1081.46 50.387H1082.46V49.387H1081.46V50.387ZM1081.46 250.387H1080.46V251.387H1081.46V250.387ZM1181.46 250.387H1182.46V249.387H1181.46V250.387ZM1181.46 299.387H1031.46V301.387H1181.46V299.387ZM1032.46 300.387V50.387H1030.46V300.387H1032.46ZM1031.46 51.387H1081.46V49.387H1031.46V51.387ZM1080.46 50.387V250.387H1082.46V50.387H1080.46ZM1081.46 251.387H1181.46V249.387H1081.46V251.387ZM1180.46 250.387V300.387H1182.46V250.387H1180.46Z" fill="black" fill-opacity="0.25"/>
<defs>
<linearGradient id="paint0_linear_444_710" x1="562.077" y1="328.019" x2="569.6" y2="93.3751" gradientUnits="userSpaceOnUse">
<stop stop-color="#652469"/>
<stop offset="0.348987" stop-color="#AF3174"/>
<stop offset="0.890659" stop-color="#E3813C"/>
</linearGradient>
<linearGradient id="paint1_linear_444_710" x1="562.077" y1="328.019" x2="569.6" y2="93.3751" gradientUnits="userSpaceOnUse">
<stop stop-color="#652469"/>
<stop offset="0.348987" stop-color="#AF3174"/>
<stop offset="0.890659" stop-color="#E3813C"/>
</linearGradient>
<linearGradient id="paint2_linear_444_710" x1="562.077" y1="328.019" x2="569.6" y2="93.3751" gradientUnits="userSpaceOnUse">
<stop stop-color="#652469"/>
<stop offset="0.348987" stop-color="#AF3174"/>
<stop offset="0.890659" stop-color="#E3813C"/>
</linearGradient>
<linearGradient id="paint3_linear_444_710" x1="562.077" y1="328.019" x2="569.6" y2="93.3751" gradientUnits="userSpaceOnUse">
<stop stop-color="#652469"/>
<stop offset="0.348987" stop-color="#AF3174"/>
<stop offset="0.890659" stop-color="#E3813C"/>
</linearGradient>
<linearGradient id="paint4_linear_444_710" x1="562.077" y1="328.019" x2="569.6" y2="93.3751" gradientUnits="userSpaceOnUse">
<stop stop-color="#652469"/>
<stop offset="0.348987" stop-color="#AF3174"/>
<stop offset="0.890659" stop-color="#E3813C"/>
</linearGradient>
<linearGradient id="paint5_linear_444_710" x1="1040.46" y1="80.1028" x2="1042.01" y2="52.0025" gradientUnits="userSpaceOnUse">
<stop stop-color="#652469"/>
<stop offset="0.348987" stop-color="#AF3174"/>
<stop offset="0.890659" stop-color="#E3813C"/>
</linearGradient>
<linearGradient id="paint6_linear_444_710" x1="1066.09" y1="278.208" x2="1173.32" y2="183.361" gradientUnits="userSpaceOnUse">
<stop stop-color="#652469"/>
<stop offset="0.348987" stop-color="#AF3174"/>
<stop offset="0.890659" stop-color="#E3813C"/>
</linearGradient>
<linearGradient id="paint7_linear_444_710" x1="1166.09" y1="329.629" x2="1191.69" y2="264.534" gradientUnits="userSpaceOnUse">
<stop stop-color="#652469"/>
<stop offset="0.348987" stop-color="#AF3174"/>
<stop offset="0.890659" stop-color="#E3813C"/>
</linearGradient>
<linearGradient id="paint8_linear_444_710" x1="1114.83" y1="280.103" x2="1115.79" y2="251.949" gradientUnits="userSpaceOnUse">
<stop stop-color="#652469"/>
<stop offset="0.348987" stop-color="#AF3174"/>
<stop offset="0.890659" stop-color="#E3813C"/>
</linearGradient>
<linearGradient id="paint9_linear_444_710" x1="916.086" y1="129.629" x2="941.686" y2="64.5335" gradientUnits="userSpaceOnUse">
<stop stop-color="#652469"/>
<stop offset="0.348987" stop-color="#AF3174"/>
<stop offset="0.890659" stop-color="#E3813C"/>
</linearGradient>
<linearGradient id="paint10_linear_444_710" x1="940.46" y1="130.103" x2="942.014" y2="102.003" gradientUnits="userSpaceOnUse">
<stop stop-color="#652469"/>
<stop offset="0.348987" stop-color="#AF3174"/>
<stop offset="0.890659" stop-color="#E3813C"/>
</linearGradient>
<linearGradient id="paint11_linear_444_710" x1="1016.09" y1="327.735" x2="1141.18" y2="236.85" gradientUnits="userSpaceOnUse">
<stop stop-color="#652469"/>
<stop offset="0.348987" stop-color="#AF3174"/>
<stop offset="0.890659" stop-color="#E3813C"/>
</linearGradient>
<linearGradient id="paint12_linear_444_710" x1="864.835" y1="80.1028" x2="865.793" y2="51.9492" gradientUnits="userSpaceOnUse">
<stop stop-color="#652469"/>
<stop offset="0.348987" stop-color="#AF3174"/>
<stop offset="0.890659" stop-color="#E3813C"/>
</linearGradient>
<linearGradient id="paint13_linear_444_710" x1="1089.21" y1="330.103" x2="1089.9" y2="301.934" gradientUnits="userSpaceOnUse">
<stop stop-color="#652469"/>
<stop offset="0.348987" stop-color="#AF3174"/>
<stop offset="0.890659" stop-color="#E3813C"/>
</linearGradient>
<linearGradient id="paint14_linear_444_710" x1="966.086" y1="328.208" x2="1073.32" y2="233.361" gradientUnits="userSpaceOnUse">
<stop stop-color="#652469"/>
<stop offset="0.348987" stop-color="#AF3174"/>
<stop offset="0.890659" stop-color="#E3813C"/>
</linearGradient>
<linearGradient id="paint15_linear_444_710" x1="916.086" y1="229.159" x2="971.264" y2="142.549" gradientUnits="userSpaceOnUse">
<stop stop-color="#652469"/>
<stop offset="0.348987" stop-color="#AF3174"/>
<stop offset="0.890659" stop-color="#E3813C"/>
</linearGradient>
<linearGradient id="paint16_linear_444_710" x1="864.835" y1="130.503" x2="865.793" y2="102.349" gradientUnits="userSpaceOnUse">
<stop stop-color="#652469"/>
<stop offset="0.348987" stop-color="#AF3174"/>
<stop offset="0.890659" stop-color="#E3813C"/>
</linearGradient>
<linearGradient id="paint17_linear_444_710" x1="816.086" y1="129.629" x2="841.686" y2="64.5335" gradientUnits="userSpaceOnUse">
<stop stop-color="#652469"/>
<stop offset="0.348987" stop-color="#AF3174"/>
<stop offset="0.890659" stop-color="#E3813C"/>
</linearGradient>
<linearGradient id="paint18_linear_444_710" x1="790.46" y1="130.103" x2="792.014" y2="102.003" gradientUnits="userSpaceOnUse">
<stop stop-color="#652469"/>
<stop offset="0.348987" stop-color="#AF3174"/>
<stop offset="0.890659" stop-color="#E3813C"/>
</linearGradient>
<linearGradient id="paint19_linear_444_710" x1="864.835" y1="230.103" x2="865.793" y2="201.949" gradientUnits="userSpaceOnUse">
<stop stop-color="#652469"/>
<stop offset="0.348987" stop-color="#AF3174"/>
<stop offset="0.890659" stop-color="#E3813C"/>
</linearGradient>
<linearGradient id="paint20_linear_444_710" x1="816.086" y1="229.159" x2="871.264" y2="142.549" gradientUnits="userSpaceOnUse">
<stop stop-color="#652469"/>
<stop offset="0.348987" stop-color="#AF3174"/>
<stop offset="0.890659" stop-color="#E3813C"/>
</linearGradient>
<linearGradient id="paint21_linear_444_710" x1="940.46" y1="330.103" x2="942.014" y2="302.003" gradientUnits="userSpaceOnUse">
<stop stop-color="#652469"/>
<stop offset="0.348987" stop-color="#AF3174"/>
<stop offset="0.890659" stop-color="#E3813C"/>
</linearGradient>
<linearGradient id="paint22_linear_444_710" x1="916.086" y1="329.629" x2="941.686" y2="264.534" gradientUnits="userSpaceOnUse">
<stop stop-color="#652469"/>
<stop offset="0.348987" stop-color="#AF3174"/>
<stop offset="0.890659" stop-color="#E3813C"/>
</linearGradient>
<linearGradient id="paint23_linear_444_710" x1="664.835" y1="80.1028" x2="665.793" y2="51.9492" gradientUnits="userSpaceOnUse">
<stop stop-color="#652469"/>
<stop offset="0.348987" stop-color="#AF3174"/>
<stop offset="0.890659" stop-color="#E3813C"/>
</linearGradient>
<linearGradient id="paint24_linear_444_710" x1="864.835" y1="280.103" x2="865.793" y2="251.949" gradientUnits="userSpaceOnUse">
<stop stop-color="#652469"/>
<stop offset="0.348987" stop-color="#AF3174"/>
<stop offset="0.890659" stop-color="#E3813C"/>
</linearGradient>
<linearGradient id="paint25_linear_444_710" x1="716.086" y1="278.208" x2="823.323" y2="183.361" gradientUnits="userSpaceOnUse">
<stop stop-color="#652469"/>
<stop offset="0.348987" stop-color="#AF3174"/>
<stop offset="0.890659" stop-color="#E3813C"/>
</linearGradient>
<linearGradient id="paint26_linear_444_710" x1="766.086" y1="328.208" x2="873.323" y2="233.361" gradientUnits="userSpaceOnUse">
<stop stop-color="#652469"/>
<stop offset="0.348987" stop-color="#AF3174"/>
<stop offset="0.890659" stop-color="#E3813C"/>
</linearGradient>
<linearGradient id="paint27_linear_444_710" x1="640.46" y1="130.103" x2="642.014" y2="102.003" gradientUnits="userSpaceOnUse">
<stop stop-color="#652469"/>
<stop offset="0.348987" stop-color="#AF3174"/>
<stop offset="0.890659" stop-color="#E3813C"/>
</linearGradient>
<linearGradient id="paint28_linear_444_710" x1="616.086" y1="129.629" x2="641.686" y2="64.5335" gradientUnits="userSpaceOnUse">
<stop stop-color="#652469"/>
<stop offset="0.348987" stop-color="#AF3174"/>
<stop offset="0.890659" stop-color="#E3813C"/>
</linearGradient>
<linearGradient id="paint29_linear_444_710" x1="816.086" y1="329.629" x2="841.686" y2="264.534" gradientUnits="userSpaceOnUse">
<stop stop-color="#652469"/>
<stop offset="0.348987" stop-color="#AF3174"/>
<stop offset="0.890659" stop-color="#E3813C"/>
</linearGradient>
<linearGradient id="paint30_linear_444_710" x1="790.46" y1="330.103" x2="792.014" y2="302.003" gradientUnits="userSpaceOnUse">
<stop stop-color="#652469"/>
<stop offset="0.348987" stop-color="#AF3174"/>
<stop offset="0.890659" stop-color="#E3813C"/>
</linearGradient>
<linearGradient id="paint31_linear_444_710" x1="666.086" y1="278.682" x2="750.015" y2="183.83" gradientUnits="userSpaceOnUse">
<stop stop-color="#652469"/>
<stop offset="0.348987" stop-color="#AF3174"/>
<stop offset="0.890659" stop-color="#E3813C"/>
</linearGradient>
<linearGradient id="paint32_linear_444_710" x1="690.46" y1="280.103" x2="692.014" y2="252.003" gradientUnits="userSpaceOnUse">
<stop stop-color="#652469"/>
<stop offset="0.348987" stop-color="#AF3174"/>
<stop offset="0.890659" stop-color="#E3813C"/>
</linearGradient>
<linearGradient id="paint33_linear_444_710" x1="666.086" y1="329.629" x2="691.686" y2="264.534" gradientUnits="userSpaceOnUse">
<stop stop-color="#652469"/>
<stop offset="0.348987" stop-color="#AF3174"/>
<stop offset="0.890659" stop-color="#E3813C"/>
</linearGradient>
<linearGradient id="paint34_linear_444_710" x1="614.835" y1="280.103" x2="615.793" y2="251.949" gradientUnits="userSpaceOnUse">
<stop stop-color="#652469"/>
<stop offset="0.348987" stop-color="#AF3174"/>
<stop offset="0.890659" stop-color="#E3813C"/>
</linearGradient>
<linearGradient id="paint35_linear_444_710" x1="416.086" y1="129.629" x2="441.686" y2="64.5335" gradientUnits="userSpaceOnUse">
<stop stop-color="#652469"/>
<stop offset="0.348987" stop-color="#AF3174"/>
<stop offset="0.890659" stop-color="#E3813C"/>
</linearGradient>
<linearGradient id="paint36_linear_444_710" x1="440.46" y1="130.103" x2="442.014" y2="102.003" gradientUnits="userSpaceOnUse">
<stop stop-color="#652469"/>
<stop offset="0.348987" stop-color="#AF3174"/>
<stop offset="0.890659" stop-color="#E3813C"/>
</linearGradient>
<linearGradient id="paint37_linear_444_710" x1="540.46" y1="230.103" x2="542.014" y2="202.003" gradientUnits="userSpaceOnUse">
<stop stop-color="#652469"/>
<stop offset="0.348987" stop-color="#AF3174"/>
<stop offset="0.890659" stop-color="#E3813C"/>
</linearGradient>
<linearGradient id="paint38_linear_444_710" x1="566.086" y1="279.629" x2="591.686" y2="214.534" gradientUnits="userSpaceOnUse">
<stop stop-color="#652469"/>
<stop offset="0.348987" stop-color="#AF3174"/>
<stop offset="0.890659" stop-color="#E3813C"/>
</linearGradient>
<linearGradient id="paint39_linear_444_710" x1="364.835" y1="80.1028" x2="365.793" y2="51.9492" gradientUnits="userSpaceOnUse">
<stop stop-color="#652469"/>
<stop offset="0.348987" stop-color="#AF3174"/>
<stop offset="0.890659" stop-color="#E3813C"/>
</linearGradient>
<linearGradient id="paint40_linear_444_710" x1="614.835" y1="330.103" x2="615.793" y2="301.949" gradientUnits="userSpaceOnUse">
<stop stop-color="#652469"/>
<stop offset="0.348987" stop-color="#AF3174"/>
<stop offset="0.890659" stop-color="#E3813C"/>
</linearGradient>
<linearGradient id="paint41_linear_444_710" x1="540.46" y1="280.103" x2="542.014" y2="252.003" gradientUnits="userSpaceOnUse">
<stop stop-color="#652469"/>
<stop offset="0.348987" stop-color="#AF3174"/>
<stop offset="0.890659" stop-color="#E3813C"/>
</linearGradient>
<linearGradient id="paint42_linear_444_710" x1="516.086" y1="279.629" x2="541.686" y2="214.534" gradientUnits="userSpaceOnUse">
<stop stop-color="#652469"/>
<stop offset="0.348987" stop-color="#AF3174"/>
<stop offset="0.890659" stop-color="#E3813C"/>
</linearGradient>
<linearGradient id="paint43_linear_444_710" x1="566.086" y1="329.629" x2="591.686" y2="264.534" gradientUnits="userSpaceOnUse">
<stop stop-color="#652469"/>
<stop offset="0.348987" stop-color="#AF3174"/>
<stop offset="0.890659" stop-color="#E3813C"/>
</linearGradient>
<linearGradient id="paint44_linear_444_710" x1="466.086" y1="328.208" x2="573.323" y2="233.361" gradientUnits="userSpaceOnUse">
<stop stop-color="#652469"/>
<stop offset="0.348987" stop-color="#AF3174"/>
<stop offset="0.890659" stop-color="#E3813C"/>
</linearGradient>
<linearGradient id="paint45_linear_444_710" x1="416.086" y1="229.159" x2="471.264" y2="142.549" gradientUnits="userSpaceOnUse">
<stop stop-color="#652469"/>
<stop offset="0.348987" stop-color="#AF3174"/>
<stop offset="0.890659" stop-color="#E3813C"/>
</linearGradient>
<linearGradient id="paint46_linear_444_710" x1="364.835" y1="130.503" x2="365.793" y2="102.349" gradientUnits="userSpaceOnUse">
<stop stop-color="#652469"/>
<stop offset="0.348987" stop-color="#AF3174"/>
<stop offset="0.890659" stop-color="#E3813C"/>
</linearGradient>
<linearGradient id="paint47_linear_444_710" x1="316.086" y1="129.629" x2="341.686" y2="64.5335" gradientUnits="userSpaceOnUse">
<stop stop-color="#652469"/>
<stop offset="0.348987" stop-color="#AF3174"/>
<stop offset="0.890659" stop-color="#E3813C"/>
</linearGradient>
<linearGradient id="paint48_linear_444_710" x1="290.46" y1="130.103" x2="292.014" y2="102.003" gradientUnits="userSpaceOnUse">
<stop stop-color="#652469"/>
<stop offset="0.348987" stop-color="#AF3174"/>
<stop offset="0.890659" stop-color="#E3813C"/>
</linearGradient>
<linearGradient id="paint49_linear_444_710" x1="364.835" y1="230.103" x2="365.793" y2="201.949" gradientUnits="userSpaceOnUse">
<stop stop-color="#652469"/>
<stop offset="0.348987" stop-color="#AF3174"/>
<stop offset="0.890659" stop-color="#E3813C"/>
</linearGradient>
<linearGradient id="paint50_linear_444_710" x1="316.086" y1="229.159" x2="371.264" y2="142.549" gradientUnits="userSpaceOnUse">
<stop stop-color="#652469"/>
<stop offset="0.348987" stop-color="#AF3174"/>
<stop offset="0.890659" stop-color="#E3813C"/>
</linearGradient>
<linearGradient id="paint51_linear_444_710" x1="190.46" y1="80.1028" x2="192.014" y2="52.0025" gradientUnits="userSpaceOnUse">
<stop stop-color="#652469"/>
<stop offset="0.348987" stop-color="#AF3174"/>
<stop offset="0.890659" stop-color="#E3813C"/>
</linearGradient>
<linearGradient id="paint52_linear_444_710" x1="216.086" y1="129.629" x2="241.686" y2="64.5335" gradientUnits="userSpaceOnUse">
<stop stop-color="#652469"/>
<stop offset="0.348987" stop-color="#AF3174"/>
<stop offset="0.890659" stop-color="#E3813C"/>
</linearGradient>
<linearGradient id="paint53_linear_444_710" x1="440.46" y1="330.103" x2="442.014" y2="302.003" gradientUnits="userSpaceOnUse">
<stop stop-color="#652469"/>
<stop offset="0.348987" stop-color="#AF3174"/>
<stop offset="0.890659" stop-color="#E3813C"/>
</linearGradient>
<linearGradient id="paint54_linear_444_710" x1="416.086" y1="329.629" x2="441.686" y2="264.534" gradientUnits="userSpaceOnUse">
<stop stop-color="#652469"/>
<stop offset="0.348987" stop-color="#AF3174"/>
<stop offset="0.890659" stop-color="#E3813C"/>
</linearGradient>
<linearGradient id="paint55_linear_444_710" x1="364.835" y1="280.103" x2="365.793" y2="251.949" gradientUnits="userSpaceOnUse">
<stop stop-color="#652469"/>
<stop offset="0.348987" stop-color="#AF3174"/>
<stop offset="0.890659" stop-color="#E3813C"/>
</linearGradient>
<linearGradient id="paint56_linear_444_710" x1="166.086" y1="129.629" x2="191.686" y2="64.5335" gradientUnits="userSpaceOnUse">
<stop stop-color="#652469"/>
<stop offset="0.348987" stop-color="#AF3174"/>
<stop offset="0.890659" stop-color="#E3813C"/>
</linearGradient>
<linearGradient id="paint57_linear_444_710" x1="190.46" y1="130.103" x2="192.014" y2="102.003" gradientUnits="userSpaceOnUse">
<stop stop-color="#652469"/>
<stop offset="0.348987" stop-color="#AF3174"/>
<stop offset="0.890659" stop-color="#E3813C"/>
</linearGradient>
<linearGradient id="paint58_linear_444_710" x1="266.086" y1="328.208" x2="373.323" y2="233.361" gradientUnits="userSpaceOnUse">
<stop stop-color="#652469"/>
<stop offset="0.348987" stop-color="#AF3174"/>
<stop offset="0.890659" stop-color="#E3813C"/>
</linearGradient>
<linearGradient id="paint59_linear_444_710" x1="166.086" y1="179.629" x2="191.686" y2="114.534" gradientUnits="userSpaceOnUse">
<stop stop-color="#652469"/>
<stop offset="0.348987" stop-color="#AF3174"/>
<stop offset="0.890659" stop-color="#E3813C"/>
</linearGradient>
<linearGradient id="paint60_linear_444_710" x1="140.46" y1="130.103" x2="142.014" y2="102.003" gradientUnits="userSpaceOnUse">
<stop stop-color="#652469"/>
<stop offset="0.348987" stop-color="#AF3174"/>
<stop offset="0.890659" stop-color="#E3813C"/>
</linearGradient>
<linearGradient id="paint61_linear_444_710" x1="316.086" y1="329.629" x2="341.686" y2="264.534" gradientUnits="userSpaceOnUse">
<stop stop-color="#652469"/>
<stop offset="0.348987" stop-color="#AF3174"/>
<stop offset="0.890659" stop-color="#E3813C"/>
</linearGradient>
<linearGradient id="paint62_linear_444_710" x1="140.46" y1="180.103" x2="142.014" y2="152.003" gradientUnits="userSpaceOnUse">
<stop stop-color="#652469"/>
<stop offset="0.348987" stop-color="#AF3174"/>
<stop offset="0.890659" stop-color="#E3813C"/>
</linearGradient>
<linearGradient id="paint63_linear_444_710" x1="116.086" y1="179.629" x2="141.686" y2="114.534" gradientUnits="userSpaceOnUse">
<stop stop-color="#652469"/>
<stop offset="0.348987" stop-color="#AF3174"/>
<stop offset="0.890659" stop-color="#E3813C"/>
</linearGradient>
<linearGradient id="paint64_linear_444_710" x1="40.4603" y1="80.1028" x2="42.0144" y2="52.0025" gradientUnits="userSpaceOnUse">
<stop stop-color="#652469"/>
<stop offset="0.348987" stop-color="#AF3174"/>
<stop offset="0.890659" stop-color="#E3813C"/>
</linearGradient>
<linearGradient id="paint65_linear_444_710" x1="290.46" y1="330.103" x2="292.014" y2="302.003" gradientUnits="userSpaceOnUse">
<stop stop-color="#652469"/>
<stop offset="0.348987" stop-color="#AF3174"/>
<stop offset="0.890659" stop-color="#E3813C"/>
</linearGradient>
<linearGradient id="paint66_linear_444_710" x1="66.0857" y1="179.155" x2="121.507" y2="92.4325" gradientUnits="userSpaceOnUse">
<stop stop-color="#652469"/>
<stop offset="0.348987" stop-color="#AF3174"/>
<stop offset="0.890659" stop-color="#E3813C"/>
</linearGradient>
<linearGradient id="paint67_linear_444_710" x1="90.4603" y1="180.103" x2="92.0144" y2="152.003" gradientUnits="userSpaceOnUse">
<stop stop-color="#652469"/>
<stop offset="0.348987" stop-color="#AF3174"/>
<stop offset="0.890659" stop-color="#E3813C"/>
</linearGradient>
<linearGradient id="paint68_linear_444_710" x1="166.086" y1="279.629" x2="191.686" y2="214.534" gradientUnits="userSpaceOnUse">
<stop stop-color="#652469"/>
<stop offset="0.348987" stop-color="#AF3174"/>
<stop offset="0.890659" stop-color="#E3813C"/>
</linearGradient>
<linearGradient id="paint69_linear_444_710" x1="140.46" y1="230.103" x2="142.014" y2="202.003" gradientUnits="userSpaceOnUse">
<stop stop-color="#652469"/>
<stop offset="0.348987" stop-color="#AF3174"/>
<stop offset="0.890659" stop-color="#E3813C"/>
</linearGradient>
<linearGradient id="paint70_linear_444_710" x1="116.086" y1="229.629" x2="141.686" y2="164.534" gradientUnits="userSpaceOnUse">
<stop stop-color="#652469"/>
<stop offset="0.348987" stop-color="#AF3174"/>
<stop offset="0.890659" stop-color="#E3813C"/>
</linearGradient>
<linearGradient id="paint71_linear_444_710" x1="190.46" y1="280.103" x2="192.014" y2="252.003" gradientUnits="userSpaceOnUse">
<stop stop-color="#652469"/>
<stop offset="0.348987" stop-color="#AF3174"/>
<stop offset="0.890659" stop-color="#E3813C"/>
</linearGradient>
<linearGradient id="paint72_linear_444_710" x1="216.086" y1="329.629" x2="241.686" y2="264.534" gradientUnits="userSpaceOnUse">
<stop stop-color="#652469"/>
<stop offset="0.348987" stop-color="#AF3174"/>
<stop offset="0.890659" stop-color="#E3813C"/>
</linearGradient>
<linearGradient id="paint73_linear_444_710" x1="166.086" y1="329.629" x2="191.686" y2="264.534" gradientUnits="userSpaceOnUse">
<stop stop-color="#652469"/>
<stop offset="0.348987" stop-color="#AF3174"/>
<stop offset="0.890659" stop-color="#E3813C"/>
</linearGradient>
<linearGradient id="paint74_linear_444_710" x1="140.46" y1="280.103" x2="142.014" y2="252.003" gradientUnits="userSpaceOnUse">
<stop stop-color="#652469"/>
<stop offset="0.348987" stop-color="#AF3174"/>
<stop offset="0.890659" stop-color="#E3813C"/>
</linearGradient>
<linearGradient id="paint75_linear_444_710" x1="190.46" y1="330.103" x2="192.014" y2="302.003" gradientUnits="userSpaceOnUse">
<stop stop-color="#652469"/>
<stop offset="0.348987" stop-color="#AF3174"/>
<stop offset="0.890659" stop-color="#E3813C"/>
</linearGradient>
<linearGradient id="paint76_linear_444_710" x1="90.4603" y1="230.103" x2="92.0144" y2="202.003" gradientUnits="userSpaceOnUse">
<stop stop-color="#652469"/>
<stop offset="0.348987" stop-color="#AF3174"/>
<stop offset="0.890659" stop-color="#E3813C"/>
</linearGradient>
<linearGradient id="paint77_linear_444_710" x1="116.086" y1="279.629" x2="141.686" y2="214.534" gradientUnits="userSpaceOnUse">
<stop stop-color="#652469"/>
<stop offset="0.348987" stop-color="#AF3174"/>
<stop offset="0.890659" stop-color="#E3813C"/>
</linearGradient>
<linearGradient id="paint78_linear_444_710" x1="16.0857" y1="327.735" x2="141.182" y2="236.85" gradientUnits="userSpaceOnUse">
<stop stop-color="#652469"/>
<stop offset="0.348987" stop-color="#AF3174"/>
<stop offset="0.890659" stop-color="#E3813C"/>
</linearGradient>
<linearGradient id="paint79_linear_444_710" x1="66.0857" y1="329.156" x2="121.507" y2="242.432" gradientUnits="userSpaceOnUse">
<stop stop-color="#652469"/>
<stop offset="0.348987" stop-color="#AF3174"/>
<stop offset="0.890659" stop-color="#E3813C"/>
</linearGradient>
<linearGradient id="paint80_linear_444_710" x1="40.4603" y1="330.103" x2="42.0144" y2="302.003" gradientUnits="userSpaceOnUse">
<stop stop-color="#652469"/>
<stop offset="0.348987" stop-color="#AF3174"/>
<stop offset="0.890659" stop-color="#E3813C"/>
</linearGradient>
<linearGradient id="paint81_linear_444_710" x1="616.452" y1="396.598" x2="634.882" y2="21.6881" gradientUnits="userSpaceOnUse">
<stop stop-color="#652469"/>
<stop offset="0.348987" stop-color="#AF3174"/>
<stop offset="0.890659" stop-color="#E3813C"/>
</linearGradient>
</defs>
</svg>
