<svg width="1237" height="401" viewBox="0 0 1237 401" fill="none" xmlns="http://www.w3.org/2000/svg">
<path d="M1.52734 185.387V135.387H51.5273V185.387H1.52734ZM51.5273 85.387H201.527V135.387H51.5273V85.387ZM151.527 235.387H51.5273V185.387H151.527V235.387ZM201.527 285.387H151.527V235.387H201.527V285.387ZM1.52734 285.387H151.527V335.387H1.52734V285.387Z" fill="url(#paint0_linear_444_2427)"/>
<path d="M351.527 135.387V285.387H401.527V335.387H251.527V285.387H301.527V135.387H251.527V85.387H401.527V135.387H351.527Z" fill="url(#paint1_linear_444_2427)"/>
<path d="M601.527 235.387H551.527V185.387H601.527V85.387H651.527V335.387H601.527V235.387ZM501.527 185.387V335.387H451.527V85.387H501.527V135.387H551.527V185.387H501.527Z" fill="url(#paint2_linear_444_2427)"/>
<path d="M901.527 135.387V85.387H751.527V135.387H901.527ZM751.527 135.387H701.527V285.387H751.527V135.387ZM901.527 335.387H751.527V285.387H851.527V235.387H801.527V185.387H901.527V335.387Z" fill="url(#paint3_linear_444_2427)"/>
<path d="M1101.53 185.387V85.387H1151.53V335.387H1101.53V235.387H1001.53V335.387H951.527V85.387H1001.53V185.387H1101.53Z" fill="url(#paint4_linear_444_2427)"/>
<path d="M1.02734 185.387V185.887H1.52734H51.0273V235.387V235.887H51.5273H151.027V284.887H1.52734H1.02734V285.387V335.387V335.887H1.52734H151.527H152.027V335.387V285.887H201.527H202.027V285.387V235.387V234.887H201.527H152.027V185.387V184.887H151.527H52.0273V135.887H201.527H202.027V135.387V85.387V84.887H201.527H51.5273H51.0273V85.387V134.887H1.52734H1.02734V135.387V185.387ZM402.027 285.387V284.887H401.527H352.027V135.887H401.527H402.027V135.387V85.387V84.887H401.527H251.527H251.027V85.387V135.387V135.887H251.527H301.027V284.887H251.527H251.027V285.387V335.387V335.887H251.527H401.527H402.027V335.387V285.387ZM551.027 235.387V235.887H551.527H601.027V335.387V335.887H601.527H651.527H652.027V335.387V85.387V84.887H651.527H601.527H601.027V85.387V184.887H552.027V135.387V134.887H551.527H502.027V85.387V84.887H501.527H451.527H451.027V85.387V335.387V335.887H451.527H501.527H502.027V335.387V185.887H551.027V235.387ZM901.527 135.887H902.027V135.387V85.387V84.887H901.527H751.527H751.027V85.387V134.887H701.527H701.027V135.387V285.387V285.887H701.527H751.027V335.387V335.887H751.527H901.527H902.027V335.387V185.387V184.887H901.527H801.527H801.027V185.387V235.387V235.887H801.527H851.027V284.887H752.027V135.887H901.527ZM1101.53 84.887H1101.03V85.387V184.887H1002.03V85.387V84.887H1001.53H951.527H951.027V85.387V335.387V335.887H951.527H1001.53H1002.03V335.387V235.887H1101.03V335.387V335.887H1101.53H1151.53H1152.03V335.387V85.387V84.887H1151.53H1101.53Z" stroke="black" stroke-opacity="0.25"/>
<path d="M1186.53 50.387H1136.53L1101.53 85.387H1151.53L1186.53 50.387Z" fill="url(#paint5_linear_444_2427)"/>
<path d="M1136.53 49.887C1136.39 49.887 1136.27 49.9396 1136.17 50.0334L1101.17 85.0334C1101.03 85.1764 1100.99 85.3915 1101.07 85.5783C1101.14 85.7651 1101.33 85.887 1101.53 85.887H1151.53C1151.66 85.887 1151.79 85.8343 1151.88 85.7405L1186.88 50.7405C1187.02 50.5975 1187.07 50.3825 1186.99 50.1956C1186.91 50.0088 1186.73 49.887 1186.53 49.887H1136.53Z" stroke="black" stroke-opacity="0.25" stroke-linejoin="round"/>
<path d="M1136.53 50.387V150.387L1101.53 185.387V85.387L1136.53 50.387Z" fill="url(#paint6_linear_444_2427)"/>
<path d="M1136.88 150.741C1136.97 150.647 1137.03 150.52 1137.03 150.387V50.387C1137.03 50.1847 1136.91 50.0024 1136.72 49.925C1136.53 49.8476 1136.32 49.8904 1136.17 50.0334L1101.17 85.0334C1101.08 85.1272 1101.03 85.2544 1101.03 85.387V185.387C1101.03 185.589 1101.15 185.771 1101.34 185.849C1101.52 185.926 1101.74 185.883 1101.88 185.74L1136.88 150.741Z" stroke="black" stroke-opacity="0.25" stroke-linejoin="round"/>
<path d="M1186.53 300.387V50.387L1151.53 85.387V335.387L1186.53 300.387Z" fill="url(#paint7_linear_444_2427)"/>
<path d="M1187.03 50.387C1187.03 50.1847 1186.91 50.0024 1186.72 49.925C1186.53 49.8476 1186.32 49.8904 1186.17 50.0334L1151.17 85.0334C1151.08 85.1272 1151.03 85.2544 1151.03 85.387V335.387C1151.03 335.589 1151.15 335.772 1151.34 335.849C1151.52 335.926 1151.74 335.884 1151.88 335.741L1186.88 300.741C1186.97 300.647 1187.03 300.52 1187.03 300.387V50.387Z" stroke="black" stroke-opacity="0.25" stroke-linejoin="round"/>
<path d="M1036.53 50.387H986.527L951.527 85.387H1001.53L1036.53 50.387Z" fill="url(#paint8_linear_444_2427)"/>
<path d="M986.527 49.887C986.395 49.887 986.268 49.9396 986.174 50.0334L951.174 85.0334C951.031 85.1764 950.988 85.3915 951.065 85.5783C951.143 85.7651 951.325 85.887 951.527 85.887H1001.53C1001.66 85.887 1001.79 85.8343 1001.88 85.7405L1036.88 50.7405C1037.02 50.5975 1037.07 50.3825 1036.99 50.1956C1036.91 50.0088 1036.73 49.887 1036.53 49.887H986.527Z" stroke="black" stroke-opacity="0.25" stroke-linejoin="round"/>
<path d="M1136.53 150.387H1036.53L1001.53 185.387H1101.53L1136.53 150.387Z" fill="url(#paint9_linear_444_2427)"/>
<path d="M1036.53 149.887C1036.39 149.887 1036.27 149.94 1036.17 150.033L1001.17 185.033C1001.03 185.176 1000.99 185.391 1001.07 185.578C1001.14 185.765 1001.33 185.887 1001.53 185.887H1101.53C1101.66 185.887 1101.79 185.834 1101.88 185.741L1136.88 150.741C1137.02 150.598 1137.07 150.382 1136.99 150.196C1136.91 150.009 1136.73 149.887 1136.53 149.887H1036.53Z" stroke="black" stroke-opacity="0.25" stroke-linejoin="round"/>
<path d="M1036.53 150.387V50.387L1001.53 85.387V185.387L1036.53 150.387Z" fill="url(#paint10_linear_444_2427)"/>
<path d="M1037.03 50.387C1037.03 50.1847 1036.91 50.0024 1036.72 49.925C1036.53 49.8476 1036.32 49.8904 1036.17 50.0334L1001.17 85.0334C1001.08 85.1272 1001.03 85.2544 1001.03 85.387V185.387C1001.03 185.589 1001.15 185.771 1001.34 185.849C1001.52 185.926 1001.74 185.883 1001.88 185.74L1036.88 150.741C1036.97 150.647 1037.03 150.52 1037.03 150.387V50.387Z" stroke="black" stroke-opacity="0.25" stroke-linejoin="round"/>
<path d="M1136.53 200.387V300.387L1101.53 335.387V235.387L1136.53 200.387Z" fill="url(#paint11_linear_444_2427)"/>
<path d="M1136.88 300.741C1136.97 300.647 1137.03 300.52 1137.03 300.387V200.387C1137.03 200.185 1136.91 200.002 1136.72 199.925C1136.53 199.848 1136.32 199.89 1136.17 200.033L1101.17 235.033C1101.08 235.127 1101.03 235.254 1101.03 235.387V335.387C1101.03 335.589 1101.15 335.772 1101.34 335.849C1101.52 335.926 1101.74 335.884 1101.88 335.741L1136.88 300.741Z" stroke="black" stroke-opacity="0.25" stroke-linejoin="round"/>
<path d="M1036.53 200.387H1136.53L1101.53 235.387H1001.53L1036.53 200.387Z" fill="url(#paint12_linear_444_2427)"/>
<path d="M1136.88 200.741C1137.02 200.598 1137.07 200.382 1136.99 200.196C1136.91 200.009 1136.73 199.887 1136.53 199.887H1036.53C1036.39 199.887 1036.27 199.94 1036.17 200.033L1001.17 235.033C1001.03 235.176 1000.99 235.391 1001.07 235.578C1001.14 235.765 1001.33 235.887 1001.53 235.887H1101.53C1101.66 235.887 1101.79 235.834 1101.88 235.741L1136.88 200.741Z" stroke="black" stroke-opacity="0.25" stroke-linejoin="round"/>
<path d="M936.527 50.387V100.387L901.527 135.387V85.387L936.527 50.387Z" fill="url(#paint13_linear_444_2427)"/>
<path d="M936.881 100.741C936.975 100.647 937.027 100.52 937.027 100.387V50.387C937.027 50.1847 936.906 50.0024 936.719 49.925C936.532 49.8476 936.317 49.8904 936.174 50.0334L901.174 85.0334C901.08 85.1272 901.027 85.2544 901.027 85.387V135.387C901.027 135.589 901.149 135.772 901.336 135.849C901.523 135.926 901.738 135.884 901.881 135.741L936.881 100.741Z" stroke="black" stroke-opacity="0.25" stroke-linejoin="round"/>
<path d="M1136.53 300.387H1186.53L1151.53 335.387H1101.53L1136.53 300.387Z" fill="url(#paint14_linear_444_2427)"/>
<path d="M1186.88 300.741C1187.02 300.598 1187.07 300.382 1186.99 300.196C1186.91 300.009 1186.73 299.887 1186.53 299.887H1136.53C1136.39 299.887 1136.27 299.94 1136.17 300.033L1101.17 335.033C1101.03 335.176 1100.99 335.391 1101.07 335.578C1101.14 335.765 1101.33 335.887 1101.53 335.887H1151.53C1151.66 335.887 1151.79 335.834 1151.88 335.741L1186.88 300.741Z" stroke="black" stroke-opacity="0.25" stroke-linejoin="round"/>
<path d="M786.527 50.387H936.527L901.527 85.387H751.527L786.527 50.387Z" fill="url(#paint15_linear_444_2427)"/>
<path d="M936.881 50.7405C937.024 50.5975 937.067 50.3825 936.989 50.1956C936.912 50.0088 936.73 49.887 936.527 49.887H786.527C786.395 49.887 786.268 49.9396 786.174 50.0334L751.174 85.0334C751.031 85.1764 750.988 85.3915 751.065 85.5783C751.143 85.7651 751.325 85.887 751.527 85.887H901.527C901.66 85.887 901.787 85.8343 901.881 85.7405L936.881 50.7405Z" stroke="black" stroke-opacity="0.25" stroke-linejoin="round"/>
<path d="M986.527 50.387V300.387L951.527 335.387V85.387L986.527 50.387Z" fill="url(#paint16_linear_444_2427)"/>
<path d="M986.881 300.741C986.975 300.647 987.027 300.52 987.027 300.387V50.387C987.027 50.1847 986.906 50.0024 986.719 49.925C986.532 49.8476 986.317 49.8904 986.174 50.0334L951.174 85.0334C951.08 85.1272 951.027 85.2544 951.027 85.387V335.387C951.027 335.589 951.149 335.772 951.336 335.849C951.523 335.926 951.738 335.884 951.881 335.741L986.881 300.741Z" stroke="black" stroke-opacity="0.25" stroke-linejoin="round"/>
<path d="M1036.53 300.387V200.387L1001.53 235.387V335.387L1036.53 300.387Z" fill="url(#paint17_linear_444_2427)"/>
<path d="M1037.03 200.387C1037.03 200.185 1036.91 200.002 1036.72 199.925C1036.53 199.848 1036.32 199.89 1036.17 200.033L1001.17 235.033C1001.08 235.127 1001.03 235.254 1001.03 235.387V335.387C1001.03 335.589 1001.15 335.772 1001.34 335.849C1001.52 335.926 1001.74 335.884 1001.88 335.741L1036.88 300.741C1036.97 300.647 1037.03 300.52 1037.03 300.387V200.387Z" stroke="black" stroke-opacity="0.25" stroke-linejoin="round"/>
<path d="M936.527 100.387H786.527L751.527 135.387H901.527L936.527 100.387Z" fill="url(#paint18_linear_444_2427)"/>
<path d="M786.527 99.887C786.395 99.887 786.268 99.9396 786.174 100.033L751.174 135.033C751.031 135.176 750.988 135.391 751.065 135.578C751.143 135.765 751.325 135.887 751.527 135.887H901.527C901.66 135.887 901.787 135.834 901.881 135.741L936.881 100.741C937.024 100.598 937.067 100.382 936.989 100.196C936.912 100.009 936.73 99.887 936.527 99.887H786.527Z" stroke="black" stroke-opacity="0.25" stroke-linejoin="round"/>
<path d="M936.527 150.387H836.527L801.527 185.387H901.527L936.527 150.387Z" fill="url(#paint19_linear_444_2427)"/>
<path d="M836.527 149.887C836.395 149.887 836.268 149.94 836.174 150.033L801.174 185.033C801.031 185.176 800.988 185.391 801.065 185.578C801.143 185.765 801.325 185.887 801.527 185.887H901.527C901.66 185.887 901.787 185.834 901.881 185.741L936.881 150.741C937.024 150.598 937.067 150.382 936.989 150.196C936.912 150.009 936.73 149.887 936.527 149.887H836.527Z" stroke="black" stroke-opacity="0.25" stroke-linejoin="round"/>
<path d="M936.527 300.387V150.387L901.527 185.387V335.387L936.527 300.387Z" fill="url(#paint20_linear_444_2427)"/>
<path d="M937.027 150.387C937.027 150.185 936.906 150.002 936.719 149.925C936.532 149.848 936.317 149.89 936.174 150.033L901.174 185.033C901.08 185.127 901.027 185.254 901.027 185.387V335.387C901.027 335.589 901.149 335.772 901.336 335.849C901.523 335.926 901.738 335.884 901.881 335.741L936.881 300.741C936.975 300.647 937.027 300.52 937.027 300.387V150.387Z" stroke="black" stroke-opacity="0.25" stroke-linejoin="round"/>
<path d="M786.527 100.387V50.387L751.527 85.387V135.387L786.527 100.387Z" fill="url(#paint21_linear_444_2427)"/>
<path d="M787.027 50.387C787.027 50.1847 786.906 50.0024 786.719 49.925C786.532 49.8476 786.317 49.8904 786.174 50.0334L751.174 85.0334C751.08 85.1272 751.027 85.2544 751.027 85.387V135.387C751.027 135.589 751.149 135.772 751.336 135.849C751.523 135.926 751.738 135.884 751.881 135.741L786.881 100.741C786.975 100.647 787.027 100.52 787.027 100.387V50.387Z" stroke="black" stroke-opacity="0.25" stroke-linejoin="round"/>
<path d="M986.527 300.387H1036.53L1001.53 335.387H951.527L986.527 300.387Z" fill="url(#paint22_linear_444_2427)"/>
<path d="M1036.88 300.741C1037.02 300.598 1037.07 300.382 1036.99 300.196C1036.91 300.009 1036.73 299.887 1036.53 299.887H986.527C986.395 299.887 986.268 299.94 986.174 300.033L951.174 335.033C951.031 335.176 950.988 335.391 951.065 335.578C951.143 335.765 951.325 335.887 951.527 335.887H1001.53C1001.66 335.887 1001.79 335.834 1001.88 335.741L1036.88 300.741Z" stroke="black" stroke-opacity="0.25" stroke-linejoin="round"/>
<path d="M836.527 150.387V200.387L801.527 235.387V185.387L836.527 150.387Z" fill="url(#paint23_linear_444_2427)"/>
<path d="M836.881 200.741C836.975 200.647 837.027 200.52 837.027 200.387V150.387C837.027 150.185 836.906 150.002 836.719 149.925C836.532 149.848 836.317 149.89 836.174 150.033L801.174 185.033C801.08 185.127 801.027 185.254 801.027 185.387V235.387C801.027 235.589 801.149 235.772 801.336 235.849C801.523 235.926 801.738 235.884 801.881 235.741L836.881 200.741Z" stroke="black" stroke-opacity="0.25" stroke-linejoin="round"/>
<path d="M886.527 200.387V250.387L851.527 285.387V235.387L886.527 200.387Z" fill="url(#paint24_linear_444_2427)"/>
<path d="M886.881 250.741C886.975 250.647 887.027 250.52 887.027 250.387V200.387C887.027 200.185 886.906 200.002 886.719 199.925C886.532 199.848 886.317 199.89 886.174 200.033L851.174 235.033C851.08 235.127 851.027 235.254 851.027 235.387V285.387C851.027 285.589 851.149 285.772 851.336 285.849C851.523 285.926 851.738 285.884 851.881 285.741L886.881 250.741Z" stroke="black" stroke-opacity="0.25" stroke-linejoin="round"/>
<path d="M736.527 100.387H786.527L751.527 135.387H701.527L736.527 100.387Z" fill="url(#paint25_linear_444_2427)"/>
<path d="M786.881 100.741C787.024 100.598 787.067 100.382 786.989 100.196C786.912 100.009 786.73 99.887 786.527 99.887H736.527C736.395 99.887 736.268 99.9396 736.174 100.033L701.174 135.033C701.031 135.176 700.988 135.391 701.065 135.578C701.143 135.765 701.325 135.887 701.527 135.887H751.527C751.66 135.887 751.787 135.834 751.881 135.741L786.881 100.741Z" stroke="black" stroke-opacity="0.25" stroke-linejoin="round"/>
<path d="M836.527 200.387H886.527L851.527 235.387H801.527L836.527 200.387Z" fill="url(#paint26_linear_444_2427)"/>
<path d="M886.881 200.741C887.024 200.598 887.067 200.382 886.989 200.196C886.912 200.009 886.73 199.887 886.527 199.887H836.527C836.395 199.887 836.268 199.94 836.174 200.033L801.174 235.033C801.031 235.176 800.988 235.391 801.065 235.578C801.143 235.765 801.325 235.887 801.527 235.887H851.527C851.66 235.887 851.787 235.834 851.881 235.741L886.881 200.741Z" stroke="black" stroke-opacity="0.25" stroke-linejoin="round"/>
<path d="M686.527 50.387H636.527L601.527 85.387H651.527L686.527 50.387Z" fill="url(#paint27_linear_444_2427)"/>
<path d="M636.527 49.887C636.395 49.887 636.268 49.9396 636.174 50.0334L601.174 85.0334C601.031 85.1764 600.988 85.3915 601.065 85.5783C601.143 85.7651 601.325 85.887 601.527 85.887H651.527C651.66 85.887 651.787 85.8343 651.881 85.7405L686.881 50.7405C687.024 50.5975 687.067 50.3825 686.989 50.1956C686.912 50.0088 686.73 49.887 686.527 49.887H636.527Z" stroke="black" stroke-opacity="0.25" stroke-linejoin="round"/>
<path d="M786.527 100.387V250.387L751.527 285.387V135.387L786.527 100.387Z" fill="url(#paint28_linear_444_2427)"/>
<path d="M786.881 250.741C786.975 250.647 787.027 250.52 787.027 250.387V100.387C787.027 100.185 786.906 100.002 786.719 99.925C786.532 99.8476 786.317 99.8904 786.174 100.033L751.174 135.033C751.08 135.127 751.027 135.254 751.027 135.387V285.387C751.027 285.589 751.149 285.772 751.336 285.849C751.523 285.926 751.738 285.884 751.881 285.741L786.881 250.741Z" stroke="black" stroke-opacity="0.25" stroke-linejoin="round"/>
<path d="M886.527 250.387H786.527L751.527 285.387H851.527L886.527 250.387Z" fill="url(#paint29_linear_444_2427)"/>
<path d="M786.527 249.887C786.395 249.887 786.268 249.94 786.174 250.033L751.174 285.033C751.031 285.176 750.988 285.391 751.065 285.578C751.143 285.765 751.325 285.887 751.527 285.887H851.527C851.66 285.887 851.787 285.834 851.881 285.741L886.881 250.741C887.024 250.598 887.067 250.382 886.989 250.196C886.912 250.009 886.73 249.887 886.527 249.887H786.527Z" stroke="black" stroke-opacity="0.25" stroke-linejoin="round"/>
<path d="M736.527 250.387V100.387L701.527 135.387V285.387L736.527 250.387Z" fill="url(#paint30_linear_444_2427)"/>
<path d="M737.027 100.387C737.027 100.185 736.906 100.002 736.719 99.925C736.532 99.8476 736.317 99.8904 736.174 100.033L701.174 135.033C701.08 135.127 701.027 135.254 701.027 135.387V285.387C701.027 285.589 701.149 285.772 701.336 285.849C701.523 285.926 701.738 285.884 701.881 285.741L736.881 250.741C736.975 250.647 737.027 250.52 737.027 250.387V100.387Z" stroke="black" stroke-opacity="0.25" stroke-linejoin="round"/>
<path d="M786.527 300.387H936.527L901.527 335.387H751.527L786.527 300.387Z" fill="url(#paint31_linear_444_2427)"/>
<path d="M936.881 300.741C937.024 300.598 937.067 300.382 936.989 300.196C936.912 300.009 936.73 299.887 936.527 299.887H786.527C786.395 299.887 786.268 299.94 786.174 300.033L751.174 335.033C751.031 335.176 750.988 335.391 751.065 335.578C751.143 335.765 751.325 335.887 751.527 335.887H901.527C901.66 335.887 901.787 335.834 901.881 335.741L936.881 300.741Z" stroke="black" stroke-opacity="0.25" stroke-linejoin="round"/>
<path d="M636.527 50.387V150.387L601.527 185.387V85.387L636.527 50.387Z" fill="url(#paint32_linear_444_2427)"/>
<path d="M636.881 150.741C636.975 150.647 637.027 150.52 637.027 150.387V50.387C637.027 50.1847 636.906 50.0024 636.719 49.925C636.532 49.8476 636.317 49.8904 636.174 50.0334L601.174 85.0334C601.08 85.1272 601.027 85.2544 601.027 85.387V185.387C601.027 185.589 601.149 185.771 601.336 185.849C601.523 185.926 601.738 185.883 601.881 185.74L636.881 150.741Z" stroke="black" stroke-opacity="0.25" stroke-linejoin="round"/>
<path d="M686.527 300.387V50.387L651.527 85.387V335.387L686.527 300.387Z" fill="url(#paint33_linear_444_2427)"/>
<path d="M687.027 50.387C687.027 50.1847 686.906 50.0024 686.719 49.925C686.532 49.8476 686.317 49.8904 686.174 50.0334L651.174 85.0334C651.08 85.1272 651.027 85.2544 651.027 85.387V335.387C651.027 335.589 651.149 335.772 651.336 335.849C651.523 335.926 651.738 335.884 651.881 335.741L686.881 300.741C686.975 300.647 687.027 300.52 687.027 300.387V50.387Z" stroke="black" stroke-opacity="0.25" stroke-linejoin="round"/>
<path d="M786.527 250.387H736.527L701.527 285.387H751.527L786.527 250.387Z" fill="url(#paint34_linear_444_2427)"/>
<path d="M736.527 249.887C736.395 249.887 736.268 249.94 736.174 250.033L701.174 285.033C701.031 285.176 700.988 285.391 701.065 285.578C701.143 285.765 701.325 285.887 701.527 285.887H751.527C751.66 285.887 751.787 285.834 751.881 285.741L786.881 250.741C787.024 250.598 787.067 250.382 786.989 250.196C786.912 250.009 786.73 249.887 786.527 249.887H736.527Z" stroke="black" stroke-opacity="0.25" stroke-linejoin="round"/>
<path d="M786.527 250.387V300.387L751.527 335.387V285.387L786.527 250.387Z" fill="url(#paint35_linear_444_2427)"/>
<path d="M786.881 300.741C786.975 300.647 787.027 300.52 787.027 300.387V250.387C787.027 250.185 786.906 250.002 786.719 249.925C786.532 249.848 786.317 249.89 786.174 250.033L751.174 285.033C751.08 285.127 751.027 285.254 751.027 285.387V335.387C751.027 335.589 751.149 335.772 751.336 335.849C751.523 335.926 751.738 335.884 751.881 335.741L786.881 300.741Z" stroke="black" stroke-opacity="0.25" stroke-linejoin="round"/>
<path d="M636.527 150.387H586.527L551.527 185.387H601.527L636.527 150.387Z" fill="url(#paint36_linear_444_2427)"/>
<path d="M586.527 149.887C586.395 149.887 586.268 149.94 586.174 150.033L551.174 185.033C551.031 185.176 550.988 185.391 551.065 185.578C551.143 185.765 551.325 185.887 551.527 185.887H601.527C601.66 185.887 601.787 185.834 601.881 185.741L636.881 150.741C637.024 150.598 637.067 150.382 636.989 150.196C636.912 150.009 636.73 149.887 636.527 149.887H586.527Z" stroke="black" stroke-opacity="0.25" stroke-linejoin="round"/>
<path d="M586.527 150.387V100.387L551.527 135.387V185.387L586.527 150.387Z" fill="url(#paint37_linear_444_2427)"/>
<path d="M587.027 100.387C587.027 100.185 586.906 100.002 586.719 99.925C586.532 99.8476 586.317 99.8904 586.174 100.033L551.174 135.033C551.08 135.127 551.027 135.254 551.027 135.387V185.387C551.027 185.589 551.149 185.771 551.336 185.849C551.523 185.926 551.738 185.883 551.881 185.741L586.881 150.741C586.975 150.647 587.027 150.52 587.027 150.387V100.387Z" stroke="black" stroke-opacity="0.25" stroke-linejoin="round"/>
<path d="M536.527 50.387H486.527L451.527 85.387H501.527L536.527 50.387Z" fill="url(#paint38_linear_444_2427)"/>
<path d="M486.527 49.887C486.395 49.887 486.268 49.9396 486.174 50.0334L451.174 85.0334C451.031 85.1764 450.988 85.3915 451.065 85.5783C451.143 85.7651 451.325 85.887 451.527 85.887H501.527C501.66 85.887 501.787 85.8343 501.881 85.7405L536.881 50.7405C537.024 50.5975 537.067 50.3825 536.989 50.1956C536.912 50.0088 536.73 49.887 536.527 49.887H486.527Z" stroke="black" stroke-opacity="0.25" stroke-linejoin="round"/>
<path d="M536.527 100.387V50.387L501.527 85.387V135.387L536.527 100.387Z" fill="url(#paint39_linear_444_2427)"/>
<path d="M537.027 50.387C537.027 50.1847 536.906 50.0024 536.719 49.925C536.532 49.8476 536.317 49.8904 536.174 50.0334L501.174 85.0334C501.08 85.1272 501.027 85.2544 501.027 85.387V135.387C501.027 135.589 501.149 135.772 501.336 135.849C501.523 135.926 501.738 135.884 501.881 135.741L536.881 100.741C536.975 100.647 537.027 100.52 537.027 100.387V50.387Z" stroke="black" stroke-opacity="0.25" stroke-linejoin="round"/>
<path d="M586.527 100.387H536.527L501.527 135.387H551.527L586.527 100.387Z" fill="url(#paint40_linear_444_2427)"/>
<path d="M536.527 99.887C536.395 99.887 536.268 99.9396 536.174 100.033L501.174 135.033C501.031 135.176 500.988 135.391 501.065 135.578C501.143 135.765 501.325 135.887 501.527 135.887H551.527C551.66 135.887 551.787 135.834 551.881 135.741L586.881 100.741C587.024 100.598 587.067 100.382 586.989 100.196C586.912 100.009 586.73 99.887 586.527 99.887H536.527Z" stroke="black" stroke-opacity="0.25" stroke-linejoin="round"/>
<path d="M536.527 150.387H586.527L551.527 185.387H501.527L536.527 150.387Z" fill="url(#paint41_linear_444_2427)"/>
<path d="M586.881 150.741C587.024 150.598 587.067 150.382 586.989 150.196C586.912 150.009 586.73 149.887 586.527 149.887H536.527C536.395 149.887 536.268 149.94 536.174 150.033L501.174 185.033C501.031 185.176 500.988 185.391 501.065 185.578C501.143 185.765 501.325 185.887 501.527 185.887H551.527C551.66 185.887 551.787 185.834 551.881 185.741L586.881 150.741Z" stroke="black" stroke-opacity="0.25" stroke-linejoin="round"/>
<path d="M586.527 150.387V200.387L551.527 235.387V185.387L586.527 150.387Z" fill="url(#paint42_linear_444_2427)"/>
<path d="M586.881 200.741C586.975 200.647 587.027 200.52 587.027 200.387V150.387C587.027 150.185 586.906 150.002 586.719 149.925C586.532 149.848 586.317 149.89 586.174 150.033L551.174 185.033C551.08 185.127 551.027 185.254 551.027 185.387V235.387C551.027 235.589 551.149 235.772 551.336 235.849C551.523 235.926 551.738 235.884 551.881 235.741L586.881 200.741Z" stroke="black" stroke-opacity="0.25" stroke-linejoin="round"/>
<path d="M586.527 200.387H636.527L601.527 235.387H551.527L586.527 200.387Z" fill="url(#paint43_linear_444_2427)"/>
<path d="M636.881 200.741C637.024 200.598 637.067 200.382 636.989 200.196C636.912 200.009 636.73 199.887 636.527 199.887H586.527C586.395 199.887 586.268 199.94 586.174 200.033L551.174 235.033C551.031 235.176 550.988 235.391 551.065 235.578C551.143 235.765 551.325 235.887 551.527 235.887H601.527C601.66 235.887 601.787 235.834 601.881 235.741L636.881 200.741Z" stroke="black" stroke-opacity="0.25" stroke-linejoin="round"/>
<path d="M636.527 200.387V300.387L601.527 335.387V235.387L636.527 200.387Z" fill="url(#paint44_linear_444_2427)"/>
<path d="M636.881 300.741C636.975 300.647 637.027 300.52 637.027 300.387V200.387C637.027 200.185 636.906 200.002 636.719 199.925C636.532 199.848 636.317 199.89 636.174 200.033L601.174 235.033C601.08 235.127 601.027 235.254 601.027 235.387V335.387C601.027 335.589 601.149 335.772 601.336 335.849C601.523 335.926 601.738 335.884 601.881 335.741L636.881 300.741Z" stroke="black" stroke-opacity="0.25" stroke-linejoin="round"/>
<path d="M436.527 100.387V50.387L401.527 85.387V135.387L436.527 100.387Z" fill="url(#paint45_linear_444_2427)"/>
<path d="M437.027 50.387C437.027 50.1847 436.906 50.0024 436.719 49.925C436.532 49.8476 436.317 49.8904 436.174 50.0334L401.174 85.0334C401.08 85.1272 401.027 85.2544 401.027 85.387V135.387C401.027 135.589 401.149 135.772 401.336 135.849C401.523 135.926 401.738 135.884 401.881 135.741L436.881 100.741C436.975 100.647 437.027 100.52 437.027 100.387V50.387Z" stroke="black" stroke-opacity="0.25" stroke-linejoin="round"/>
<path d="M636.527 300.387H686.527L651.527 335.387H601.527L636.527 300.387Z" fill="url(#paint46_linear_444_2427)"/>
<path d="M686.881 300.741C687.024 300.598 687.067 300.382 686.989 300.196C686.912 300.009 686.73 299.887 686.527 299.887H636.527C636.395 299.887 636.268 299.94 636.174 300.033L601.174 335.033C601.031 335.176 600.988 335.391 601.065 335.578C601.143 335.765 601.325 335.887 601.527 335.887H651.527C651.66 335.887 651.787 335.834 651.881 335.741L686.881 300.741Z" stroke="black" stroke-opacity="0.25" stroke-linejoin="round"/>
<path d="M536.527 300.387V150.387L501.527 185.387V335.387L536.527 300.387Z" fill="url(#paint47_linear_444_2427)"/>
<path d="M537.027 150.387C537.027 150.185 536.906 150.002 536.719 149.925C536.532 149.848 536.317 149.89 536.174 150.033L501.174 185.033C501.08 185.127 501.027 185.254 501.027 185.387V335.387C501.027 335.589 501.149 335.772 501.336 335.849C501.523 335.926 501.738 335.884 501.881 335.741L536.881 300.741C536.975 300.647 537.027 300.52 537.027 300.387V150.387Z" stroke="black" stroke-opacity="0.25" stroke-linejoin="round"/>
<path d="M436.527 50.387H286.527L251.527 85.387H401.527L436.527 50.387Z" fill="url(#paint48_linear_444_2427)"/>
<path d="M286.527 49.887C286.395 49.887 286.268 49.9396 286.174 50.0334L251.174 85.0334C251.031 85.1764 250.988 85.3915 251.065 85.5783C251.143 85.7651 251.325 85.887 251.527 85.887H401.527C401.66 85.887 401.787 85.8343 401.881 85.7405L436.881 50.7405C437.024 50.5975 437.067 50.3825 436.989 50.1956C436.912 50.0088 436.73 49.887 436.527 49.887H286.527Z" stroke="black" stroke-opacity="0.25" stroke-linejoin="round"/>
<path d="M386.527 100.387H436.527L401.527 135.387H351.527L386.527 100.387Z" fill="url(#paint49_linear_444_2427)"/>
<path d="M436.881 100.741C437.024 100.598 437.067 100.382 436.989 100.196C436.912 100.009 436.73 99.887 436.527 99.887H386.527C386.395 99.887 386.268 99.9396 386.174 100.033L351.174 135.033C351.031 135.176 350.988 135.391 351.065 135.578C351.143 135.765 351.325 135.887 351.527 135.887H401.527C401.66 135.887 401.787 135.834 401.881 135.741L436.881 100.741Z" stroke="black" stroke-opacity="0.25" stroke-linejoin="round"/>
<path d="M486.527 50.387V300.387L451.527 335.387V85.387L486.527 50.387Z" fill="url(#paint50_linear_444_2427)"/>
<path d="M486.881 300.741C486.975 300.647 487.027 300.52 487.027 300.387V50.387C487.027 50.1847 486.906 50.0024 486.719 49.925C486.532 49.8476 486.317 49.8904 486.174 50.0334L451.174 85.0334C451.08 85.1272 451.027 85.2544 451.027 85.387V335.387C451.027 335.589 451.149 335.772 451.336 335.849C451.523 335.926 451.738 335.884 451.881 335.741L486.881 300.741Z" stroke="black" stroke-opacity="0.25" stroke-linejoin="round"/>
<path d="M386.527 250.387V100.387L351.527 135.387V285.387L386.527 250.387Z" fill="url(#paint51_linear_444_2427)"/>
<path d="M387.027 100.387C387.027 100.185 386.906 100.002 386.719 99.925C386.532 99.8476 386.317 99.8904 386.174 100.033L351.174 135.033C351.08 135.127 351.027 135.254 351.027 135.387V285.387C351.027 285.589 351.149 285.772 351.336 285.849C351.523 285.926 351.738 285.884 351.881 285.741L386.881 250.741C386.975 250.647 387.027 250.52 387.027 250.387V100.387Z" stroke="black" stroke-opacity="0.25" stroke-linejoin="round"/>
<path d="M286.527 100.387H336.527L301.527 135.387H251.527L286.527 100.387Z" fill="url(#paint52_linear_444_2427)"/>
<path d="M336.881 100.741C337.024 100.598 337.067 100.382 336.989 100.196C336.912 100.009 336.73 99.887 336.527 99.887H286.527C286.395 99.887 286.268 99.9396 286.174 100.033L251.174 135.033C251.031 135.176 250.988 135.391 251.065 135.578C251.143 135.765 251.325 135.887 251.527 135.887H301.527C301.66 135.887 301.787 135.834 301.881 135.741L336.881 100.741Z" stroke="black" stroke-opacity="0.25" stroke-linejoin="round"/>
<path d="M286.527 50.387V100.387L251.527 135.387V85.387L286.527 50.387Z" fill="url(#paint53_linear_444_2427)"/>
<path d="M286.881 100.741C286.975 100.647 287.027 100.52 287.027 100.387V50.387C287.027 50.1847 286.906 50.0024 286.719 49.925C286.532 49.8476 286.317 49.8904 286.174 50.0334L251.174 85.0334C251.08 85.1272 251.027 85.2544 251.027 85.387V135.387C251.027 135.589 251.149 135.772 251.336 135.849C251.523 135.926 251.738 135.884 251.881 135.741L286.881 100.741Z" stroke="black" stroke-opacity="0.25" stroke-linejoin="round"/>
<path d="M486.527 300.387H536.527L501.527 335.387H451.527L486.527 300.387Z" fill="url(#paint54_linear_444_2427)"/>
<path d="M536.881 300.741C537.024 300.598 537.067 300.382 536.989 300.196C536.912 300.009 536.73 299.887 536.527 299.887H486.527C486.395 299.887 486.268 299.94 486.174 300.033L451.174 335.033C451.031 335.176 450.988 335.391 451.065 335.578C451.143 335.765 451.325 335.887 451.527 335.887H501.527C501.66 335.887 501.787 335.834 501.881 335.741L536.881 300.741Z" stroke="black" stroke-opacity="0.25" stroke-linejoin="round"/>
<path d="M236.527 100.387V50.387L201.527 85.387V135.387L236.527 100.387Z" fill="url(#paint55_linear_444_2427)"/>
<path d="M237.027 50.387C237.027 50.1847 236.906 50.0024 236.719 49.925C236.532 49.8476 236.317 49.8904 236.174 50.0334L201.174 85.0334C201.08 85.1272 201.027 85.2544 201.027 85.387V135.387C201.027 135.589 201.149 135.772 201.336 135.849C201.523 135.926 201.738 135.884 201.881 135.741L236.881 100.741C236.975 100.647 237.027 100.52 237.027 100.387V50.387Z" stroke="black" stroke-opacity="0.25" stroke-linejoin="round"/>
<path d="M436.527 250.387H386.527L351.527 285.387H401.527L436.527 250.387Z" fill="url(#paint56_linear_444_2427)"/>
<path d="M386.527 249.887C386.395 249.887 386.268 249.94 386.174 250.033L351.174 285.033C351.031 285.176 350.988 285.391 351.065 285.578C351.143 285.765 351.325 285.887 351.527 285.887H401.527C401.66 285.887 401.787 285.834 401.881 285.741L436.881 250.741C437.024 250.598 437.067 250.382 436.989 250.196C436.912 250.009 436.73 249.887 436.527 249.887H386.527Z" stroke="black" stroke-opacity="0.25" stroke-linejoin="round"/>
<path d="M336.527 100.387V250.387L301.527 285.387V135.387L336.527 100.387Z" fill="url(#paint57_linear_444_2427)"/>
<path d="M336.881 250.741C336.975 250.647 337.027 250.52 337.027 250.387V100.387C337.027 100.185 336.906 100.002 336.719 99.925C336.532 99.8476 336.317 99.8904 336.174 100.033L301.174 135.033C301.08 135.127 301.027 135.254 301.027 135.387V285.387C301.027 285.589 301.149 285.772 301.336 285.849C301.523 285.926 301.738 285.884 301.881 285.741L336.881 250.741Z" stroke="black" stroke-opacity="0.25" stroke-linejoin="round"/>
<path d="M436.527 300.387V250.387L401.527 285.387V335.387L436.527 300.387Z" fill="url(#paint58_linear_444_2427)"/>
<path d="M437.027 250.387C437.027 250.185 436.906 250.002 436.719 249.925C436.532 249.848 436.317 249.89 436.174 250.033L401.174 285.033C401.08 285.127 401.027 285.254 401.027 285.387V335.387C401.027 335.589 401.149 335.772 401.336 335.849C401.523 335.926 401.738 335.884 401.881 335.741L436.881 300.741C436.975 300.647 437.027 300.52 437.027 300.387V250.387Z" stroke="black" stroke-opacity="0.25" stroke-linejoin="round"/>
<path d="M236.527 50.387H86.5273L51.5273 85.387H201.527L236.527 50.387Z" fill="url(#paint59_linear_444_2427)"/>
<path d="M86.5273 49.887C86.3947 49.887 86.2676 49.9396 86.1738 50.0334L51.1738 85.0334C51.0308 85.1764 50.988 85.3915 51.0654 85.5783C51.1428 85.7651 51.3251 85.887 51.5273 85.887H201.527C201.66 85.887 201.787 85.8343 201.881 85.7405L236.881 50.7405C237.024 50.5975 237.067 50.3825 236.989 50.1956C236.912 50.0088 236.73 49.887 236.527 49.887H86.5273Z" stroke="black" stroke-opacity="0.25" stroke-linejoin="round"/>
<path d="M86.5273 100.387H236.527L201.527 135.387H51.5273L86.5273 100.387Z" fill="url(#paint60_linear_444_2427)"/>
<path d="M236.881 100.741C237.024 100.598 237.067 100.382 236.989 100.196C236.912 100.009 236.73 99.887 236.527 99.887H86.5273C86.3947 99.887 86.2676 99.9396 86.1738 100.033L51.1738 135.033C51.0308 135.176 50.988 135.391 51.0654 135.578C51.1428 135.765 51.3251 135.887 51.5273 135.887H201.527C201.66 135.887 201.787 135.834 201.881 135.741L236.881 100.741Z" stroke="black" stroke-opacity="0.25" stroke-linejoin="round"/>
<path d="M286.527 300.387H436.527L401.527 335.387H251.527L286.527 300.387Z" fill="url(#paint61_linear_444_2427)"/>
<path d="M436.881 300.741C437.024 300.598 437.067 300.382 436.989 300.196C436.912 300.009 436.73 299.887 436.527 299.887H286.527C286.395 299.887 286.268 299.94 286.174 300.033L251.174 335.033C251.031 335.176 250.988 335.391 251.065 335.578C251.143 335.765 251.325 335.887 251.527 335.887H401.527C401.66 335.887 401.787 335.834 401.881 335.741L436.881 300.741Z" stroke="black" stroke-opacity="0.25" stroke-linejoin="round"/>
<path d="M336.527 250.387H286.527L251.527 285.387H301.527L336.527 250.387Z" fill="url(#paint62_linear_444_2427)"/>
<path d="M286.527 249.887C286.395 249.887 286.268 249.94 286.174 250.033L251.174 285.033C251.031 285.176 250.988 285.391 251.065 285.578C251.143 285.765 251.325 285.887 251.527 285.887H301.527C301.66 285.887 301.787 285.834 301.881 285.741L336.881 250.741C337.024 250.598 337.067 250.382 336.989 250.196C336.912 250.009 336.73 249.887 336.527 249.887H286.527Z" stroke="black" stroke-opacity="0.25" stroke-linejoin="round"/>
<path d="M186.527 200.387V150.387L151.527 185.387V235.387L186.527 200.387Z" fill="url(#paint63_linear_444_2427)"/>
<path d="M187.027 150.387C187.027 150.185 186.906 150.002 186.719 149.925C186.532 149.848 186.317 149.89 186.174 150.033L151.174 185.033C151.08 185.127 151.027 185.254 151.027 185.387V235.387C151.027 235.589 151.149 235.772 151.336 235.849C151.523 235.926 151.738 235.884 151.881 235.741L186.881 200.741C186.975 200.647 187.027 200.52 187.027 200.387V150.387Z" stroke="black" stroke-opacity="0.25" stroke-linejoin="round"/>
<path d="M236.527 200.387H186.527L151.527 235.387H201.527L236.527 200.387Z" fill="url(#paint64_linear_444_2427)"/>
<path d="M186.527 199.887C186.395 199.887 186.268 199.94 186.174 200.033L151.174 235.033C151.031 235.176 150.988 235.391 151.065 235.578C151.143 235.765 151.325 235.887 151.527 235.887H201.527C201.66 235.887 201.787 235.834 201.881 235.741L236.881 200.741C237.024 200.598 237.067 200.382 236.989 200.196C236.912 200.009 236.73 199.887 236.527 199.887H186.527Z" stroke="black" stroke-opacity="0.25" stroke-linejoin="round"/>
<path d="M86.5273 50.387V100.387L51.5273 135.387V85.387L86.5273 50.387Z" fill="url(#paint65_linear_444_2427)"/>
<path d="M86.8809 100.741C86.9747 100.647 87.0273 100.52 87.0273 100.387V50.387C87.0273 50.1847 86.9055 50.0024 86.7187 49.925C86.5318 49.8476 86.3168 49.8904 86.1738 50.0334L51.1738 85.0334C51.08 85.1272 51.0273 85.2544 51.0273 85.387V135.387C51.0273 135.589 51.1492 135.772 51.336 135.849C51.5228 135.926 51.7379 135.884 51.8809 135.741L86.8809 100.741Z" stroke="black" stroke-opacity="0.25" stroke-linejoin="round"/>
<path d="M236.527 250.387V200.387L201.527 235.387V285.387L236.527 250.387Z" fill="url(#paint66_linear_444_2427)"/>
<path d="M237.027 200.387C237.027 200.185 236.906 200.002 236.719 199.925C236.532 199.848 236.317 199.89 236.174 200.033L201.174 235.033C201.08 235.127 201.027 235.254 201.027 235.387V285.387C201.027 285.589 201.149 285.772 201.336 285.849C201.523 285.926 201.738 285.884 201.881 285.741L236.881 250.741C236.975 250.647 237.027 250.52 237.027 250.387V200.387Z" stroke="black" stroke-opacity="0.25" stroke-linejoin="round"/>
<path d="M286.527 250.387V300.387L251.527 335.387V285.387L286.527 250.387Z" fill="url(#paint67_linear_444_2427)"/>
<path d="M286.881 300.741C286.975 300.647 287.027 300.52 287.027 300.387V250.387C287.027 250.185 286.906 250.002 286.719 249.925C286.532 249.848 286.317 249.89 286.174 250.033L251.174 285.033C251.08 285.127 251.027 285.254 251.027 285.387V335.387C251.027 335.589 251.149 335.772 251.336 335.849C251.523 335.926 251.738 335.884 251.881 335.741L286.881 300.741Z" stroke="black" stroke-opacity="0.25" stroke-linejoin="round"/>
<path d="M186.527 150.387H86.5273L51.5273 185.387H151.527L186.527 150.387Z" fill="url(#paint68_linear_444_2427)"/>
<path d="M86.5273 149.887C86.3947 149.887 86.2676 149.94 86.1738 150.033L51.1738 185.033C51.0308 185.176 50.988 185.391 51.0654 185.578C51.1428 185.765 51.3251 185.887 51.5273 185.887H151.527C151.66 185.887 151.787 185.834 151.881 185.741L186.881 150.741C187.024 150.598 187.067 150.382 186.989 150.196C186.912 150.009 186.73 149.887 186.527 149.887H86.5273Z" stroke="black" stroke-opacity="0.25" stroke-linejoin="round"/>
<path d="M186.527 200.387V250.387L151.527 285.387V235.387L186.527 200.387Z" fill="url(#paint69_linear_444_2427)"/>
<path d="M186.881 250.741C186.975 250.647 187.027 250.52 187.027 250.387V200.387C187.027 200.185 186.906 200.002 186.719 199.925C186.532 199.848 186.317 199.89 186.174 200.033L151.174 235.033C151.08 235.127 151.027 235.254 151.027 235.387V285.387C151.027 285.589 151.149 285.772 151.336 285.849C151.523 285.926 151.738 285.884 151.881 285.741L186.881 250.741Z" stroke="black" stroke-opacity="0.25" stroke-linejoin="round"/>
<path d="M86.5273 150.387V100.387L51.5273 135.387V185.387L86.5273 150.387Z" fill="url(#paint70_linear_444_2427)"/>
<path d="M87.0273 100.387C87.0273 100.185 86.9055 100.002 86.7187 99.925C86.5318 99.8476 86.3168 99.8904 86.1738 100.033L51.1738 135.033C51.08 135.127 51.0273 135.254 51.0273 135.387V185.387C51.0273 185.589 51.1492 185.771 51.336 185.849C51.5228 185.926 51.7379 185.883 51.8809 185.741L86.8809 150.741C86.9747 150.647 87.0273 150.52 87.0273 150.387V100.387Z" stroke="black" stroke-opacity="0.25" stroke-linejoin="round"/>
<path d="M186.527 250.387H236.527L201.527 285.387H151.527L186.527 250.387Z" fill="url(#paint71_linear_444_2427)"/>
<path d="M236.881 250.741C237.024 250.598 237.067 250.382 236.989 250.196C236.912 250.009 236.73 249.887 236.527 249.887H186.527C186.395 249.887 186.268 249.94 186.174 250.033L151.174 285.033C151.031 285.176 150.988 285.391 151.065 285.578C151.143 285.765 151.325 285.887 151.527 285.887H201.527C201.66 285.887 201.787 285.834 201.881 285.741L236.881 250.741Z" stroke="black" stroke-opacity="0.25" stroke-linejoin="round"/>
<path d="M86.5273 100.387H36.5273L1.52734 135.387H51.5273L86.5273 100.387Z" fill="url(#paint72_linear_444_2427)"/>
<path d="M36.5273 99.887C36.3947 99.887 36.2676 99.9396 36.1738 100.033L1.17379 135.033C1.03079 135.176 0.988014 135.391 1.0654 135.578C1.14279 135.765 1.32511 135.887 1.52734 135.887H51.5273C51.66 135.887 51.7871 135.834 51.8809 135.741L86.8809 100.741C87.0239 100.598 87.0667 100.382 86.9893 100.196C86.9119 100.009 86.7296 99.887 86.5273 99.887H36.5273Z" stroke="black" stroke-opacity="0.25" stroke-linejoin="round"/>
<path d="M86.5273 200.387H186.527L151.527 235.387H51.5273L86.5273 200.387Z" fill="url(#paint73_linear_444_2427)"/>
<path d="M186.881 200.741C187.024 200.598 187.067 200.382 186.989 200.196C186.912 200.009 186.73 199.887 186.527 199.887H86.5273C86.3947 199.887 86.2676 199.94 86.1738 200.033L51.1738 235.033C51.0308 235.176 50.988 235.391 51.0654 235.578C51.1428 235.765 51.3251 235.887 51.5273 235.887H151.527C151.66 235.887 151.787 235.834 151.881 235.741L186.881 200.741Z" stroke="black" stroke-opacity="0.25" stroke-linejoin="round"/>
<path d="M36.5273 150.387H86.5273L51.5273 185.387H1.52734L36.5273 150.387Z" fill="url(#paint74_linear_444_2427)"/>
<path d="M86.8809 150.741C87.0239 150.598 87.0667 150.382 86.9893 150.196C86.9119 150.009 86.7296 149.887 86.5273 149.887H36.5273C36.3947 149.887 36.2676 149.94 36.1738 150.033L1.17379 185.033C1.03079 185.176 0.988014 185.391 1.0654 185.578C1.14279 185.765 1.32511 185.887 1.52734 185.887H51.5273C51.66 185.887 51.7871 185.834 51.8809 185.741L86.8809 150.741Z" stroke="black" stroke-opacity="0.25" stroke-linejoin="round"/>
<path d="M186.527 300.387V250.387L151.527 285.387V335.387L186.527 300.387Z" fill="url(#paint75_linear_444_2427)"/>
<path d="M187.027 250.387C187.027 250.185 186.906 250.002 186.719 249.925C186.532 249.848 186.317 249.89 186.174 250.033L151.174 285.033C151.08 285.127 151.027 285.254 151.027 285.387V335.387C151.027 335.589 151.149 335.772 151.336 335.849C151.523 335.926 151.738 335.884 151.881 335.741L186.881 300.741C186.975 300.647 187.027 300.52 187.027 300.387V250.387Z" stroke="black" stroke-opacity="0.25" stroke-linejoin="round"/>
<path d="M36.5273 100.387V150.387L1.52734 185.387V135.387L36.5273 100.387Z" fill="url(#paint76_linear_444_2427)"/>
<path d="M36.8809 150.741C36.9747 150.647 37.0273 150.52 37.0273 150.387V100.387C37.0273 100.185 36.9055 100.002 36.7187 99.925C36.5318 99.8476 36.3168 99.8904 36.1738 100.033L1.17379 135.033C1.08002 135.127 1.02734 135.254 1.02734 135.387V185.387C1.02734 185.589 1.14916 185.771 1.336 185.849C1.52284 185.926 1.7379 185.883 1.8809 185.741L36.8809 150.741Z" stroke="black" stroke-opacity="0.25" stroke-linejoin="round"/>
<path d="M86.5273 150.387V200.387L51.5273 235.387V185.387L86.5273 150.387Z" fill="url(#paint77_linear_444_2427)"/>
<path d="M86.8809 200.741C86.9747 200.647 87.0273 200.52 87.0273 200.387V150.387C87.0273 150.185 86.9055 150.002 86.7187 149.925C86.5318 149.848 86.3168 149.89 86.1738 150.033L51.1738 185.033C51.08 185.127 51.0273 185.254 51.0273 185.387V235.387C51.0273 235.589 51.1492 235.772 51.336 235.849C51.5228 235.926 51.7379 235.884 51.8809 235.741L86.8809 200.741Z" stroke="black" stroke-opacity="0.25" stroke-linejoin="round"/>
<path d="M186.527 250.387H36.5273L1.52734 285.387H151.527L186.527 250.387Z" fill="url(#paint78_linear_444_2427)"/>
<path d="M36.5273 249.887C36.3947 249.887 36.2676 249.94 36.1738 250.033L1.17379 285.033C1.03079 285.176 0.988014 285.391 1.0654 285.578C1.14279 285.765 1.32511 285.887 1.52734 285.887H151.527C151.66 285.887 151.787 285.834 151.881 285.741L186.881 250.741C187.024 250.598 187.067 250.382 186.989 250.196C186.912 250.009 186.73 249.887 186.527 249.887H36.5273Z" stroke="black" stroke-opacity="0.25" stroke-linejoin="round"/>
<path d="M36.5273 300.387H186.527L151.527 335.387H1.52734L36.5273 300.387Z" fill="url(#paint79_linear_444_2427)"/>
<path d="M186.881 300.741C187.024 300.598 187.067 300.382 186.989 300.196C186.912 300.009 186.73 299.887 186.527 299.887H36.5273C36.3947 299.887 36.2676 299.94 36.1738 300.033L1.17379 335.033C1.03079 335.176 0.988014 335.391 1.0654 335.578C1.14279 335.765 1.32511 335.887 1.52734 335.887H151.527C151.66 335.887 151.787 335.834 151.881 335.741L186.881 300.741Z" stroke="black" stroke-opacity="0.25" stroke-linejoin="round"/>
<path d="M36.5273 250.387V300.387L1.52734 335.387V285.387L36.5273 250.387Z" fill="url(#paint80_linear_444_2427)"/>
<path d="M36.8809 300.741C36.9747 300.647 37.0273 300.52 37.0273 300.387V250.387C37.0273 250.185 36.9055 250.002 36.7187 249.925C36.5318 249.848 36.3168 249.89 36.1738 250.033L1.17379 285.033C1.08002 285.127 1.02734 285.254 1.02734 285.387V335.387C1.02734 335.589 1.14916 335.772 1.336 335.849C1.52284 335.926 1.7379 335.884 1.8809 335.741L36.8809 300.741Z" stroke="black" stroke-opacity="0.25" stroke-linejoin="round"/>
<path d="M36.5273 150.387V100.387H86.5273V150.387H36.5273ZM86.5273 50.387H236.527V100.387H86.5273V50.387ZM186.527 200.387H86.5273V150.387H186.527V200.387ZM236.527 250.387H186.527V200.387H236.527V250.387ZM36.5273 250.387H186.527V300.387H36.5273V250.387ZM386.527 100.387V250.387H436.527V300.387H286.527V250.387H336.527V100.387H286.527V50.387H436.527V100.387H386.527ZM636.527 200.387H586.527V150.387H636.527V50.387H686.527V300.387H636.527V200.387ZM536.527 150.387V300.387H486.527V50.387H536.527V100.387H586.527V150.387H536.527ZM936.527 100.387V50.387H786.527V100.387H936.527ZM786.527 100.387H736.527V250.387H786.527V100.387ZM936.527 300.387H786.527V250.387H886.527V200.387H836.527V150.387H936.527V300.387ZM1136.53 150.387V50.387H1186.53V300.387H1136.53V200.387H1036.53V300.387H986.527V50.387H1036.53V150.387H1136.53Z" fill="url(#paint81_linear_444_2427)"/>
<path d="M36.5273 150.387H35.5273V151.387H36.5273V150.387ZM36.5273 100.387V99.387H35.5273V100.387H36.5273ZM86.5273 100.387H87.5273V99.387H86.5273V100.387ZM86.5273 150.387V151.387H87.5273V150.387H86.5273ZM86.5273 50.387V49.387H85.5273V50.387H86.5273ZM236.527 50.387H237.527V49.387H236.527V50.387ZM236.527 100.387V101.387H237.527V100.387H236.527ZM86.5273 100.387H85.5273V101.387H86.5273V100.387ZM186.527 200.387V201.387H187.527V200.387H186.527ZM86.5273 200.387H85.5273V201.387H86.5273V200.387ZM86.5273 150.387V149.387H85.5273V150.387H86.5273ZM186.527 150.387H187.527V149.387H186.527V150.387ZM236.527 250.387V251.387H237.527V250.387H236.527ZM186.527 250.387H185.527V251.387H186.527V250.387ZM186.527 200.387V199.387H185.527V200.387H186.527ZM236.527 200.387H237.527V199.387H236.527V200.387ZM36.5273 250.387V249.387H35.5273V250.387H36.5273ZM186.527 250.387H187.527V249.387H186.527V250.387ZM186.527 300.387V301.387H187.527V300.387H186.527ZM36.5273 300.387H35.5273V301.387H36.5273V300.387ZM37.5273 150.387V100.387H35.5273V150.387H37.5273ZM36.5273 101.387H86.5273V99.387H36.5273V101.387ZM85.5273 100.387V150.387H87.5273V100.387H85.5273ZM86.5273 149.387H36.5273V151.387H86.5273V149.387ZM86.5273 51.387H236.527V49.387H86.5273V51.387ZM235.527 50.387V100.387H237.527V50.387H235.527ZM236.527 99.387H86.5273V101.387H236.527V99.387ZM87.5273 100.387V50.387H85.5273V100.387H87.5273ZM186.527 199.387H86.5273V201.387H186.527V199.387ZM87.5273 200.387V150.387H85.5273V200.387H87.5273ZM86.5273 151.387H186.527V149.387H86.5273V151.387ZM185.527 150.387V200.387H187.527V150.387H185.527ZM236.527 249.387H186.527V251.387H236.527V249.387ZM187.527 250.387V200.387H185.527V250.387H187.527ZM186.527 201.387H236.527V199.387H186.527V201.387ZM235.527 200.387V250.387H237.527V200.387H235.527ZM36.5273 251.387H186.527V249.387H36.5273V251.387ZM185.527 250.387V300.387H187.527V250.387H185.527ZM186.527 299.387H36.5273V301.387H186.527V299.387ZM37.5273 300.387V250.387H35.5273V300.387H37.5273ZM386.527 100.387V99.387H385.527V100.387H386.527ZM386.527 250.387H385.527V251.387H386.527V250.387ZM436.527 250.387H437.527V249.387H436.527V250.387ZM436.527 300.387V301.387H437.527V300.387H436.527ZM286.527 300.387H285.527V301.387H286.527V300.387ZM286.527 250.387V249.387H285.527V250.387H286.527ZM336.527 250.387V251.387H337.527V250.387H336.527ZM336.527 100.387H337.527V99.387H336.527V100.387ZM286.527 100.387H285.527V101.387H286.527V100.387ZM286.527 50.387V49.387H285.527V50.387H286.527ZM436.527 50.387H437.527V49.387H436.527V50.387ZM436.527 100.387V101.387H437.527V100.387H436.527ZM385.527 100.387V250.387H387.527V100.387H385.527ZM386.527 251.387H436.527V249.387H386.527V251.387ZM435.527 250.387V300.387H437.527V250.387H435.527ZM436.527 299.387H286.527V301.387H436.527V299.387ZM287.527 300.387V250.387H285.527V300.387H287.527ZM286.527 251.387H336.527V249.387H286.527V251.387ZM337.527 250.387V100.387H335.527V250.387H337.527ZM336.527 99.387H286.527V101.387H336.527V99.387ZM287.527 100.387V50.387H285.527V100.387H287.527ZM286.527 51.387H436.527V49.387H286.527V51.387ZM435.527 50.387V100.387H437.527V50.387H435.527ZM436.527 99.387H386.527V101.387H436.527V99.387ZM636.527 200.387H637.527V199.387H636.527V200.387ZM586.527 200.387H585.527V201.387H586.527V200.387ZM586.527 150.387V149.387H585.527V150.387H586.527ZM636.527 150.387V151.387H637.527V150.387H636.527ZM636.527 50.387V49.387H635.527V50.387H636.527ZM686.527 50.387H687.527V49.387H686.527V50.387ZM686.527 300.387V301.387H687.527V300.387H686.527ZM636.527 300.387H635.527V301.387H636.527V300.387ZM536.527 150.387V149.387H535.527V150.387H536.527ZM536.527 300.387V301.387H537.527V300.387H536.527ZM486.527 300.387H485.527V301.387H486.527V300.387ZM486.527 50.387V49.387H485.527V50.387H486.527ZM536.527 50.387H537.527V49.387H536.527V50.387ZM536.527 100.387H535.527V101.387H536.527V100.387ZM586.527 100.387H587.527V99.387H586.527V100.387ZM586.527 150.387V151.387H587.527V150.387H586.527ZM636.527 199.387H586.527V201.387H636.527V199.387ZM587.527 200.387V150.387H585.527V200.387H587.527ZM586.527 151.387H636.527V149.387H586.527V151.387ZM637.527 150.387V50.387H635.527V150.387H637.527ZM636.527 51.387H686.527V49.387H636.527V51.387ZM685.527 50.387V300.387H687.527V50.387H685.527ZM686.527 299.387H636.527V301.387H686.527V299.387ZM637.527 300.387V200.387H635.527V300.387H637.527ZM535.527 150.387V300.387H537.527V150.387H535.527ZM536.527 299.387H486.527V301.387H536.527V299.387ZM487.527 300.387V50.387H485.527V300.387H487.527ZM486.527 51.387H536.527V49.387H486.527V51.387ZM535.527 50.387V100.387H537.527V50.387H535.527ZM536.527 101.387H586.527V99.387H536.527V101.387ZM585.527 100.387V150.387H587.527V100.387H585.527ZM586.527 149.387H536.527V151.387H586.527V149.387ZM936.527 100.387V101.387H937.527V100.387H936.527ZM936.527 50.387H937.527V49.387H936.527V50.387ZM786.527 50.387V49.387H785.527V50.387H786.527ZM786.527 100.387H785.527V101.387H786.527V100.387ZM786.527 100.387H787.527V99.387H786.527V100.387ZM736.527 100.387V99.387H735.527V100.387H736.527ZM736.527 250.387H735.527V251.387H736.527V250.387ZM786.527 250.387V251.387H787.527V250.387H786.527ZM936.527 300.387V301.387H937.527V300.387H936.527ZM786.527 300.387H785.527V301.387H786.527V300.387ZM786.527 250.387V249.387H785.527V250.387H786.527ZM886.527 250.387V251.387H887.527V250.387H886.527ZM886.527 200.387H887.527V199.387H886.527V200.387ZM836.527 200.387H835.527V201.387H836.527V200.387ZM836.527 150.387V149.387H835.527V150.387H836.527ZM936.527 150.387H937.527V149.387H936.527V150.387ZM937.527 100.387V50.387H935.527V100.387H937.527ZM936.527 49.387H786.527V51.387H936.527V49.387ZM785.527 50.387V100.387H787.527V50.387H785.527ZM786.527 101.387H936.527V99.387H786.527V101.387ZM786.527 99.387H736.527V101.387H786.527V99.387ZM735.527 100.387V250.387H737.527V100.387H735.527ZM736.527 251.387H786.527V249.387H736.527V251.387ZM787.527 250.387V100.387H785.527V250.387H787.527ZM936.527 299.387H786.527V301.387H936.527V299.387ZM787.527 300.387V250.387H785.527V300.387H787.527ZM786.527 251.387H886.527V249.387H786.527V251.387ZM887.527 250.387V200.387H885.527V250.387H887.527ZM886.527 199.387H836.527V201.387H886.527V199.387ZM837.527 200.387V150.387H835.527V200.387H837.527ZM836.527 151.387H936.527V149.387H836.527V151.387ZM935.527 150.387V300.387H937.527V150.387H935.527ZM1136.53 150.387V151.387H1137.53V150.387H1136.53ZM1136.53 50.387V49.387H1135.53V50.387H1136.53ZM1186.53 50.387H1187.53V49.387H1186.53V50.387ZM1186.53 300.387V301.387H1187.53V300.387H1186.53ZM1136.53 300.387H1135.53V301.387H1136.53V300.387ZM1136.53 200.387H1137.53V199.387H1136.53V200.387ZM1036.53 200.387V199.387H1035.53V200.387H1036.53ZM1036.53 300.387V301.387H1037.53V300.387H1036.53ZM986.527 300.387H985.527V301.387H986.527V300.387ZM986.527 50.387V49.387H985.527V50.387H986.527ZM1036.53 50.387H1037.53V49.387H1036.53V50.387ZM1036.53 150.387H1035.53V151.387H1036.53V150.387ZM1137.53 150.387V50.387H1135.53V150.387H1137.53ZM1136.53 51.387H1186.53V49.387H1136.53V51.387ZM1185.53 50.387V300.387H1187.53V50.387H1185.53ZM1186.53 299.387H1136.53V301.387H1186.53V299.387ZM1137.53 300.387V200.387H1135.53V300.387H1137.53ZM1136.53 199.387H1036.53V201.387H1136.53V199.387ZM1035.53 200.387V300.387H1037.53V200.387H1035.53ZM1036.53 299.387H986.527V301.387H1036.53V299.387ZM987.527 300.387V50.387H985.527V300.387H987.527ZM986.527 51.387H1036.53V49.387H986.527V51.387ZM1035.53 50.387V150.387H1037.53V50.387H1035.53ZM1036.53 151.387H1136.53V149.387H1036.53V151.387Z" fill="black" fill-opacity="0.25"/>
<defs>
<linearGradient id="paint0_linear_444_2427" x1="562.144" y1="333.019" x2="569.666" y2="98.3751" gradientUnits="userSpaceOnUse">
<stop stop-color="#652469"/>
<stop offset="0.348987" stop-color="#AF3174"/>
<stop offset="0.890659" stop-color="#E3813C"/>
</linearGradient>
<linearGradient id="paint1_linear_444_2427" x1="562.144" y1="333.019" x2="569.666" y2="98.3751" gradientUnits="userSpaceOnUse">
<stop stop-color="#652469"/>
<stop offset="0.348987" stop-color="#AF3174"/>
<stop offset="0.890659" stop-color="#E3813C"/>
</linearGradient>
<linearGradient id="paint2_linear_444_2427" x1="562.144" y1="333.019" x2="569.666" y2="98.3751" gradientUnits="userSpaceOnUse">
<stop stop-color="#652469"/>
<stop offset="0.348987" stop-color="#AF3174"/>
<stop offset="0.890659" stop-color="#E3813C"/>
</linearGradient>
<linearGradient id="paint3_linear_444_2427" x1="562.144" y1="333.019" x2="569.666" y2="98.3751" gradientUnits="userSpaceOnUse">
<stop stop-color="#652469"/>
<stop offset="0.348987" stop-color="#AF3174"/>
<stop offset="0.890659" stop-color="#E3813C"/>
</linearGradient>
<linearGradient id="paint4_linear_444_2427" x1="562.144" y1="333.019" x2="569.666" y2="98.3751" gradientUnits="userSpaceOnUse">
<stop stop-color="#652469"/>
<stop offset="0.348987" stop-color="#AF3174"/>
<stop offset="0.890659" stop-color="#E3813C"/>
</linearGradient>
<linearGradient id="paint5_linear_444_2427" x1="1142.96" y1="85.0554" x2="1144.95" y2="52.2924" gradientUnits="userSpaceOnUse">
<stop stop-color="#652469"/>
<stop offset="0.348987" stop-color="#AF3174"/>
<stop offset="0.890659" stop-color="#E3813C"/>
</linearGradient>
<linearGradient id="paint6_linear_444_2427" x1="1118.59" y1="184.108" x2="1173.1" y2="88.2779" gradientUnits="userSpaceOnUse">
<stop stop-color="#652469"/>
<stop offset="0.348987" stop-color="#AF3174"/>
<stop offset="0.890659" stop-color="#E3813C"/>
</linearGradient>
<linearGradient id="paint7_linear_444_2427" x1="1168.59" y1="332.687" x2="1300.26" y2="223.039" gradientUnits="userSpaceOnUse">
<stop stop-color="#652469"/>
<stop offset="0.348987" stop-color="#AF3174"/>
<stop offset="0.890659" stop-color="#E3813C"/>
</linearGradient>
<linearGradient id="paint8_linear_444_2427" x1="992.964" y1="85.0554" x2="994.954" y2="52.2924" gradientUnits="userSpaceOnUse">
<stop stop-color="#652469"/>
<stop offset="0.348987" stop-color="#AF3174"/>
<stop offset="0.890659" stop-color="#E3813C"/>
</linearGradient>
<linearGradient id="paint9_linear_444_2427" x1="1067.34" y1="185.055" x2="1068.59" y2="152.22" gradientUnits="userSpaceOnUse">
<stop stop-color="#652469"/>
<stop offset="0.348987" stop-color="#AF3174"/>
<stop offset="0.890659" stop-color="#E3813C"/>
</linearGradient>
<linearGradient id="paint10_linear_444_2427" x1="1018.59" y1="184.108" x2="1073.1" y2="88.2779" gradientUnits="userSpaceOnUse">
<stop stop-color="#652469"/>
<stop offset="0.348987" stop-color="#AF3174"/>
<stop offset="0.890659" stop-color="#E3813C"/>
</linearGradient>
<linearGradient id="paint11_linear_444_2427" x1="1118.59" y1="334.108" x2="1173.1" y2="238.278" gradientUnits="userSpaceOnUse">
<stop stop-color="#652469"/>
<stop offset="0.348987" stop-color="#AF3174"/>
<stop offset="0.890659" stop-color="#E3813C"/>
</linearGradient>
<linearGradient id="paint12_linear_444_2427" x1="1067.34" y1="235.055" x2="1068.59" y2="202.22" gradientUnits="userSpaceOnUse">
<stop stop-color="#652469"/>
<stop offset="0.348987" stop-color="#AF3174"/>
<stop offset="0.890659" stop-color="#E3813C"/>
</linearGradient>
<linearGradient id="paint13_linear_444_2427" x1="918.59" y1="134.582" x2="943.94" y2="63.8003" gradientUnits="userSpaceOnUse">
<stop stop-color="#652469"/>
<stop offset="0.348987" stop-color="#AF3174"/>
<stop offset="0.890659" stop-color="#E3813C"/>
</linearGradient>
<linearGradient id="paint14_linear_444_2427" x1="1142.96" y1="335.055" x2="1144.95" y2="302.292" gradientUnits="userSpaceOnUse">
<stop stop-color="#652469"/>
<stop offset="0.348987" stop-color="#AF3174"/>
<stop offset="0.890659" stop-color="#E3813C"/>
</linearGradient>
<linearGradient id="paint15_linear_444_2427" x1="841.713" y1="85.0554" x2="842.63" y2="52.1971" gradientUnits="userSpaceOnUse">
<stop stop-color="#652469"/>
<stop offset="0.348987" stop-color="#AF3174"/>
<stop offset="0.890659" stop-color="#E3813C"/>
</linearGradient>
<linearGradient id="paint16_linear_444_2427" x1="968.59" y1="332.687" x2="1100.26" y2="223.039" gradientUnits="userSpaceOnUse">
<stop stop-color="#652469"/>
<stop offset="0.348987" stop-color="#AF3174"/>
<stop offset="0.890659" stop-color="#E3813C"/>
</linearGradient>
<linearGradient id="paint17_linear_444_2427" x1="1018.59" y1="334.108" x2="1073.1" y2="238.278" gradientUnits="userSpaceOnUse">
<stop stop-color="#652469"/>
<stop offset="0.348987" stop-color="#AF3174"/>
<stop offset="0.890659" stop-color="#E3813C"/>
</linearGradient>
<linearGradient id="paint18_linear_444_2427" x1="841.713" y1="135.055" x2="842.63" y2="102.197" gradientUnits="userSpaceOnUse">
<stop stop-color="#652469"/>
<stop offset="0.348987" stop-color="#AF3174"/>
<stop offset="0.890659" stop-color="#E3813C"/>
</linearGradient>
<linearGradient id="paint19_linear_444_2427" x1="867.339" y1="185.055" x2="868.594" y2="152.22" gradientUnits="userSpaceOnUse">
<stop stop-color="#652469"/>
<stop offset="0.348987" stop-color="#AF3174"/>
<stop offset="0.890659" stop-color="#E3813C"/>
</linearGradient>
<linearGradient id="paint20_linear_444_2427" x1="918.59" y1="333.635" x2="1002.87" y2="225.516" gradientUnits="userSpaceOnUse">
<stop stop-color="#652469"/>
<stop offset="0.348987" stop-color="#AF3174"/>
<stop offset="0.890659" stop-color="#E3813C"/>
</linearGradient>
<linearGradient id="paint21_linear_444_2427" x1="768.59" y1="134.582" x2="793.94" y2="63.8003" gradientUnits="userSpaceOnUse">
<stop stop-color="#652469"/>
<stop offset="0.348987" stop-color="#AF3174"/>
<stop offset="0.890659" stop-color="#E3813C"/>
</linearGradient>
<linearGradient id="paint22_linear_444_2427" x1="992.964" y1="335.055" x2="994.954" y2="302.292" gradientUnits="userSpaceOnUse">
<stop stop-color="#652469"/>
<stop offset="0.348987" stop-color="#AF3174"/>
<stop offset="0.890659" stop-color="#E3813C"/>
</linearGradient>
<linearGradient id="paint23_linear_444_2427" x1="818.59" y1="234.582" x2="843.94" y2="163.8" gradientUnits="userSpaceOnUse">
<stop stop-color="#652469"/>
<stop offset="0.348987" stop-color="#AF3174"/>
<stop offset="0.890659" stop-color="#E3813C"/>
</linearGradient>
<linearGradient id="paint24_linear_444_2427" x1="868.59" y1="284.582" x2="893.94" y2="213.8" gradientUnits="userSpaceOnUse">
<stop stop-color="#652469"/>
<stop offset="0.348987" stop-color="#AF3174"/>
<stop offset="0.890659" stop-color="#E3813C"/>
</linearGradient>
<linearGradient id="paint25_linear_444_2427" x1="742.964" y1="135.055" x2="744.954" y2="102.292" gradientUnits="userSpaceOnUse">
<stop stop-color="#652469"/>
<stop offset="0.348987" stop-color="#AF3174"/>
<stop offset="0.890659" stop-color="#E3813C"/>
</linearGradient>
<linearGradient id="paint26_linear_444_2427" x1="842.964" y1="235.055" x2="844.954" y2="202.292" gradientUnits="userSpaceOnUse">
<stop stop-color="#652469"/>
<stop offset="0.348987" stop-color="#AF3174"/>
<stop offset="0.890659" stop-color="#E3813C"/>
</linearGradient>
<linearGradient id="paint27_linear_444_2427" x1="642.964" y1="85.0554" x2="644.954" y2="52.2924" gradientUnits="userSpaceOnUse">
<stop stop-color="#652469"/>
<stop offset="0.348987" stop-color="#AF3174"/>
<stop offset="0.890659" stop-color="#E3813C"/>
</linearGradient>
<linearGradient id="paint28_linear_444_2427" x1="768.59" y1="283.635" x2="852.869" y2="175.516" gradientUnits="userSpaceOnUse">
<stop stop-color="#652469"/>
<stop offset="0.348987" stop-color="#AF3174"/>
<stop offset="0.890659" stop-color="#E3813C"/>
</linearGradient>
<linearGradient id="paint29_linear_444_2427" x1="817.339" y1="285.055" x2="818.594" y2="252.22" gradientUnits="userSpaceOnUse">
<stop stop-color="#652469"/>
<stop offset="0.348987" stop-color="#AF3174"/>
<stop offset="0.890659" stop-color="#E3813C"/>
</linearGradient>
<linearGradient id="paint30_linear_444_2427" x1="718.59" y1="283.635" x2="802.869" y2="175.516" gradientUnits="userSpaceOnUse">
<stop stop-color="#652469"/>
<stop offset="0.348987" stop-color="#AF3174"/>
<stop offset="0.890659" stop-color="#E3813C"/>
</linearGradient>
<linearGradient id="paint31_linear_444_2427" x1="841.713" y1="335.055" x2="842.63" y2="302.197" gradientUnits="userSpaceOnUse">
<stop stop-color="#652469"/>
<stop offset="0.348987" stop-color="#AF3174"/>
<stop offset="0.890659" stop-color="#E3813C"/>
</linearGradient>
<linearGradient id="paint32_linear_444_2427" x1="618.59" y1="184.108" x2="673.101" y2="88.2779" gradientUnits="userSpaceOnUse">
<stop stop-color="#652469"/>
<stop offset="0.348987" stop-color="#AF3174"/>
<stop offset="0.890659" stop-color="#E3813C"/>
</linearGradient>
<linearGradient id="paint33_linear_444_2427" x1="668.59" y1="332.687" x2="800.262" y2="223.039" gradientUnits="userSpaceOnUse">
<stop stop-color="#652469"/>
<stop offset="0.348987" stop-color="#AF3174"/>
<stop offset="0.890659" stop-color="#E3813C"/>
</linearGradient>
<linearGradient id="paint34_linear_444_2427" x1="742.964" y1="285.055" x2="744.954" y2="252.292" gradientUnits="userSpaceOnUse">
<stop stop-color="#652469"/>
<stop offset="0.348987" stop-color="#AF3174"/>
<stop offset="0.890659" stop-color="#E3813C"/>
</linearGradient>
<linearGradient id="paint35_linear_444_2427" x1="768.59" y1="334.582" x2="793.94" y2="263.8" gradientUnits="userSpaceOnUse">
<stop stop-color="#652469"/>
<stop offset="0.348987" stop-color="#AF3174"/>
<stop offset="0.890659" stop-color="#E3813C"/>
</linearGradient>
<linearGradient id="paint36_linear_444_2427" x1="592.964" y1="185.055" x2="594.954" y2="152.292" gradientUnits="userSpaceOnUse">
<stop stop-color="#652469"/>
<stop offset="0.348987" stop-color="#AF3174"/>
<stop offset="0.890659" stop-color="#E3813C"/>
</linearGradient>
<linearGradient id="paint37_linear_444_2427" x1="568.59" y1="184.582" x2="593.94" y2="113.8" gradientUnits="userSpaceOnUse">
<stop stop-color="#652469"/>
<stop offset="0.348987" stop-color="#AF3174"/>
<stop offset="0.890659" stop-color="#E3813C"/>
</linearGradient>
<linearGradient id="paint38_linear_444_2427" x1="492.964" y1="85.0554" x2="494.954" y2="52.2924" gradientUnits="userSpaceOnUse">
<stop stop-color="#652469"/>
<stop offset="0.348987" stop-color="#AF3174"/>
<stop offset="0.890659" stop-color="#E3813C"/>
</linearGradient>
<linearGradient id="paint39_linear_444_2427" x1="518.59" y1="134.582" x2="543.94" y2="63.8003" gradientUnits="userSpaceOnUse">
<stop stop-color="#652469"/>
<stop offset="0.348987" stop-color="#AF3174"/>
<stop offset="0.890659" stop-color="#E3813C"/>
</linearGradient>
<linearGradient id="paint40_linear_444_2427" x1="542.964" y1="135.055" x2="544.954" y2="102.292" gradientUnits="userSpaceOnUse">
<stop stop-color="#652469"/>
<stop offset="0.348987" stop-color="#AF3174"/>
<stop offset="0.890659" stop-color="#E3813C"/>
</linearGradient>
<linearGradient id="paint41_linear_444_2427" x1="542.964" y1="185.055" x2="544.954" y2="152.292" gradientUnits="userSpaceOnUse">
<stop stop-color="#652469"/>
<stop offset="0.348987" stop-color="#AF3174"/>
<stop offset="0.890659" stop-color="#E3813C"/>
</linearGradient>
<linearGradient id="paint42_linear_444_2427" x1="568.59" y1="234.582" x2="593.94" y2="163.8" gradientUnits="userSpaceOnUse">
<stop stop-color="#652469"/>
<stop offset="0.348987" stop-color="#AF3174"/>
<stop offset="0.890659" stop-color="#E3813C"/>
</linearGradient>
<linearGradient id="paint43_linear_444_2427" x1="592.964" y1="235.055" x2="594.954" y2="202.292" gradientUnits="userSpaceOnUse">
<stop stop-color="#652469"/>
<stop offset="0.348987" stop-color="#AF3174"/>
<stop offset="0.890659" stop-color="#E3813C"/>
</linearGradient>
<linearGradient id="paint44_linear_444_2427" x1="618.59" y1="334.108" x2="673.101" y2="238.278" gradientUnits="userSpaceOnUse">
<stop stop-color="#652469"/>
<stop offset="0.348987" stop-color="#AF3174"/>
<stop offset="0.890659" stop-color="#E3813C"/>
</linearGradient>
<linearGradient id="paint45_linear_444_2427" x1="418.59" y1="134.582" x2="443.94" y2="63.8003" gradientUnits="userSpaceOnUse">
<stop stop-color="#652469"/>
<stop offset="0.348987" stop-color="#AF3174"/>
<stop offset="0.890659" stop-color="#E3813C"/>
</linearGradient>
<linearGradient id="paint46_linear_444_2427" x1="642.964" y1="335.055" x2="644.954" y2="302.292" gradientUnits="userSpaceOnUse">
<stop stop-color="#652469"/>
<stop offset="0.348987" stop-color="#AF3174"/>
<stop offset="0.890659" stop-color="#E3813C"/>
</linearGradient>
<linearGradient id="paint47_linear_444_2427" x1="518.59" y1="333.635" x2="602.869" y2="225.516" gradientUnits="userSpaceOnUse">
<stop stop-color="#652469"/>
<stop offset="0.348987" stop-color="#AF3174"/>
<stop offset="0.890659" stop-color="#E3813C"/>
</linearGradient>
<linearGradient id="paint48_linear_444_2427" x1="341.713" y1="85.0554" x2="342.63" y2="52.1971" gradientUnits="userSpaceOnUse">
<stop stop-color="#652469"/>
<stop offset="0.348987" stop-color="#AF3174"/>
<stop offset="0.890659" stop-color="#E3813C"/>
</linearGradient>
<linearGradient id="paint49_linear_444_2427" x1="392.964" y1="135.055" x2="394.954" y2="102.292" gradientUnits="userSpaceOnUse">
<stop stop-color="#652469"/>
<stop offset="0.348987" stop-color="#AF3174"/>
<stop offset="0.890659" stop-color="#E3813C"/>
</linearGradient>
<linearGradient id="paint50_linear_444_2427" x1="468.59" y1="332.687" x2="600.262" y2="223.039" gradientUnits="userSpaceOnUse">
<stop stop-color="#652469"/>
<stop offset="0.348987" stop-color="#AF3174"/>
<stop offset="0.890659" stop-color="#E3813C"/>
</linearGradient>
<linearGradient id="paint51_linear_444_2427" x1="368.59" y1="283.635" x2="452.869" y2="175.516" gradientUnits="userSpaceOnUse">
<stop stop-color="#652469"/>
<stop offset="0.348987" stop-color="#AF3174"/>
<stop offset="0.890659" stop-color="#E3813C"/>
</linearGradient>
<linearGradient id="paint52_linear_444_2427" x1="292.964" y1="135.055" x2="294.954" y2="102.292" gradientUnits="userSpaceOnUse">
<stop stop-color="#652469"/>
<stop offset="0.348987" stop-color="#AF3174"/>
<stop offset="0.890659" stop-color="#E3813C"/>
</linearGradient>
<linearGradient id="paint53_linear_444_2427" x1="268.59" y1="134.582" x2="293.94" y2="63.8003" gradientUnits="userSpaceOnUse">
<stop stop-color="#652469"/>
<stop offset="0.348987" stop-color="#AF3174"/>
<stop offset="0.890659" stop-color="#E3813C"/>
</linearGradient>
<linearGradient id="paint54_linear_444_2427" x1="492.964" y1="335.055" x2="494.954" y2="302.292" gradientUnits="userSpaceOnUse">
<stop stop-color="#652469"/>
<stop offset="0.348987" stop-color="#AF3174"/>
<stop offset="0.890659" stop-color="#E3813C"/>
</linearGradient>
<linearGradient id="paint55_linear_444_2427" x1="218.59" y1="134.582" x2="243.94" y2="63.8003" gradientUnits="userSpaceOnUse">
<stop stop-color="#652469"/>
<stop offset="0.348987" stop-color="#AF3174"/>
<stop offset="0.890659" stop-color="#E3813C"/>
</linearGradient>
<linearGradient id="paint56_linear_444_2427" x1="392.964" y1="285.055" x2="394.954" y2="252.292" gradientUnits="userSpaceOnUse">
<stop stop-color="#652469"/>
<stop offset="0.348987" stop-color="#AF3174"/>
<stop offset="0.890659" stop-color="#E3813C"/>
</linearGradient>
<linearGradient id="paint57_linear_444_2427" x1="318.59" y1="283.635" x2="402.869" y2="175.516" gradientUnits="userSpaceOnUse">
<stop stop-color="#652469"/>
<stop offset="0.348987" stop-color="#AF3174"/>
<stop offset="0.890659" stop-color="#E3813C"/>
</linearGradient>
<linearGradient id="paint58_linear_444_2427" x1="418.59" y1="334.582" x2="443.94" y2="263.8" gradientUnits="userSpaceOnUse">
<stop stop-color="#652469"/>
<stop offset="0.348987" stop-color="#AF3174"/>
<stop offset="0.890659" stop-color="#E3813C"/>
</linearGradient>
<linearGradient id="paint59_linear_444_2427" x1="141.713" y1="85.0554" x2="142.63" y2="52.1971" gradientUnits="userSpaceOnUse">
<stop stop-color="#652469"/>
<stop offset="0.348987" stop-color="#AF3174"/>
<stop offset="0.890659" stop-color="#E3813C"/>
</linearGradient>
<linearGradient id="paint60_linear_444_2427" x1="141.713" y1="135.055" x2="142.63" y2="102.197" gradientUnits="userSpaceOnUse">
<stop stop-color="#652469"/>
<stop offset="0.348987" stop-color="#AF3174"/>
<stop offset="0.890659" stop-color="#E3813C"/>
</linearGradient>
<linearGradient id="paint61_linear_444_2427" x1="341.713" y1="335.055" x2="342.63" y2="302.197" gradientUnits="userSpaceOnUse">
<stop stop-color="#652469"/>
<stop offset="0.348987" stop-color="#AF3174"/>
<stop offset="0.890659" stop-color="#E3813C"/>
</linearGradient>
<linearGradient id="paint62_linear_444_2427" x1="292.964" y1="285.055" x2="294.954" y2="252.292" gradientUnits="userSpaceOnUse">
<stop stop-color="#652469"/>
<stop offset="0.348987" stop-color="#AF3174"/>
<stop offset="0.890659" stop-color="#E3813C"/>
</linearGradient>
<linearGradient id="paint63_linear_444_2427" x1="168.59" y1="234.582" x2="193.94" y2="163.8" gradientUnits="userSpaceOnUse">
<stop stop-color="#652469"/>
<stop offset="0.348987" stop-color="#AF3174"/>
<stop offset="0.890659" stop-color="#E3813C"/>
</linearGradient>
<linearGradient id="paint64_linear_444_2427" x1="192.964" y1="235.055" x2="194.954" y2="202.292" gradientUnits="userSpaceOnUse">
<stop stop-color="#652469"/>
<stop offset="0.348987" stop-color="#AF3174"/>
<stop offset="0.890659" stop-color="#E3813C"/>
</linearGradient>
<linearGradient id="paint65_linear_444_2427" x1="68.5896" y1="134.582" x2="93.9402" y2="63.8003" gradientUnits="userSpaceOnUse">
<stop stop-color="#652469"/>
<stop offset="0.348987" stop-color="#AF3174"/>
<stop offset="0.890659" stop-color="#E3813C"/>
</linearGradient>
<linearGradient id="paint66_linear_444_2427" x1="218.59" y1="284.582" x2="243.94" y2="213.8" gradientUnits="userSpaceOnUse">
<stop stop-color="#652469"/>
<stop offset="0.348987" stop-color="#AF3174"/>
<stop offset="0.890659" stop-color="#E3813C"/>
</linearGradient>
<linearGradient id="paint67_linear_444_2427" x1="268.59" y1="334.582" x2="293.94" y2="263.8" gradientUnits="userSpaceOnUse">
<stop stop-color="#652469"/>
<stop offset="0.348987" stop-color="#AF3174"/>
<stop offset="0.890659" stop-color="#E3813C"/>
</linearGradient>
<linearGradient id="paint68_linear_444_2427" x1="117.339" y1="185.055" x2="118.594" y2="152.22" gradientUnits="userSpaceOnUse">
<stop stop-color="#652469"/>
<stop offset="0.348987" stop-color="#AF3174"/>
<stop offset="0.890659" stop-color="#E3813C"/>
</linearGradient>
<linearGradient id="paint69_linear_444_2427" x1="168.59" y1="284.582" x2="193.94" y2="213.8" gradientUnits="userSpaceOnUse">
<stop stop-color="#652469"/>
<stop offset="0.348987" stop-color="#AF3174"/>
<stop offset="0.890659" stop-color="#E3813C"/>
</linearGradient>
<linearGradient id="paint70_linear_444_2427" x1="68.5896" y1="184.582" x2="93.9401" y2="113.8" gradientUnits="userSpaceOnUse">
<stop stop-color="#652469"/>
<stop offset="0.348987" stop-color="#AF3174"/>
<stop offset="0.890659" stop-color="#E3813C"/>
</linearGradient>
<linearGradient id="paint71_linear_444_2427" x1="192.964" y1="285.055" x2="194.954" y2="252.292" gradientUnits="userSpaceOnUse">
<stop stop-color="#652469"/>
<stop offset="0.348987" stop-color="#AF3174"/>
<stop offset="0.890659" stop-color="#E3813C"/>
</linearGradient>
<linearGradient id="paint72_linear_444_2427" x1="42.9642" y1="135.055" x2="44.9537" y2="102.292" gradientUnits="userSpaceOnUse">
<stop stop-color="#652469"/>
<stop offset="0.348987" stop-color="#AF3174"/>
<stop offset="0.890659" stop-color="#E3813C"/>
</linearGradient>
<linearGradient id="paint73_linear_444_2427" x1="117.339" y1="235.055" x2="118.594" y2="202.22" gradientUnits="userSpaceOnUse">
<stop stop-color="#652469"/>
<stop offset="0.348987" stop-color="#AF3174"/>
<stop offset="0.890659" stop-color="#E3813C"/>
</linearGradient>
<linearGradient id="paint74_linear_444_2427" x1="42.9642" y1="185.055" x2="44.9537" y2="152.292" gradientUnits="userSpaceOnUse">
<stop stop-color="#652469"/>
<stop offset="0.348987" stop-color="#AF3174"/>
<stop offset="0.890659" stop-color="#E3813C"/>
</linearGradient>
<linearGradient id="paint75_linear_444_2427" x1="168.59" y1="334.582" x2="193.94" y2="263.8" gradientUnits="userSpaceOnUse">
<stop stop-color="#652469"/>
<stop offset="0.348987" stop-color="#AF3174"/>
<stop offset="0.890659" stop-color="#E3813C"/>
</linearGradient>
<linearGradient id="paint76_linear_444_2427" x1="18.5896" y1="184.582" x2="43.9401" y2="113.8" gradientUnits="userSpaceOnUse">
<stop stop-color="#652469"/>
<stop offset="0.348987" stop-color="#AF3174"/>
<stop offset="0.890659" stop-color="#E3813C"/>
</linearGradient>
<linearGradient id="paint77_linear_444_2427" x1="68.5896" y1="234.582" x2="93.9402" y2="163.8" gradientUnits="userSpaceOnUse">
<stop stop-color="#652469"/>
<stop offset="0.348987" stop-color="#AF3174"/>
<stop offset="0.890659" stop-color="#E3813C"/>
</linearGradient>
<linearGradient id="paint78_linear_444_2427" x1="91.7135" y1="285.055" x2="92.6302" y2="252.197" gradientUnits="userSpaceOnUse">
<stop stop-color="#652469"/>
<stop offset="0.348987" stop-color="#AF3174"/>
<stop offset="0.890659" stop-color="#E3813C"/>
</linearGradient>
<linearGradient id="paint79_linear_444_2427" x1="91.7135" y1="335.055" x2="92.6302" y2="302.197" gradientUnits="userSpaceOnUse">
<stop stop-color="#652469"/>
<stop offset="0.348987" stop-color="#AF3174"/>
<stop offset="0.890659" stop-color="#E3813C"/>
</linearGradient>
<linearGradient id="paint80_linear_444_2427" x1="18.5896" y1="334.582" x2="43.9402" y2="263.8" gradientUnits="userSpaceOnUse">
<stop stop-color="#652469"/>
<stop offset="0.348987" stop-color="#AF3174"/>
<stop offset="0.890659" stop-color="#E3813C"/>
</linearGradient>
<linearGradient id="paint81_linear_444_2427" x1="621.518" y1="396.598" x2="639.948" y2="21.6881" gradientUnits="userSpaceOnUse">
<stop stop-color="#652469"/>
<stop offset="0.348987" stop-color="#AF3174"/>
<stop offset="0.890659" stop-color="#E3813C"/>
</linearGradient>
</defs>
</svg>
